<mxfile host="Electron" modified="2024-03-27T13:54:22.737Z" agent="Mozilla/5.0 (Windows NT 10.0; Win64; x64) AppleWebKit/537.36 (KHTML, like Gecko) draw.io/24.1.0 Chrome/120.0.6099.109 Electron/28.1.0 Safari/537.36" etag="HYJPpoLf-BIr9rFa-ymL" version="24.1.0" type="device">
  <diagram name="第 1 页" id="GSBP9Ic8UuohEQc4Tbug">
    <mxGraphModel dx="1562" dy="909" grid="1" gridSize="10" guides="1" tooltips="1" connect="1" arrows="1" fold="1" page="1" pageScale="1" pageWidth="827" pageHeight="1169" math="0" shadow="0">
      <root>
        <mxCell id="0" />
        <mxCell id="1" parent="0" />
        <mxCell id="BVx5rpm0QCm9_0AkrCD--1" value="" style="shape=image;verticalLabelPosition=bottom;labelBackgroundColor=default;verticalAlign=top;aspect=fixed;imageAspect=0;image=data:image/png,iVBORw0KGgoAAAANSUhEUgAAAtgAAAEdCAYAAAA2HhCfAAAgAElEQVR4AeydCVhTZ/b/0zuZNIWCg4zLuI7irnWpW92rFkFRq7jvtoo7WhXbUhfUulMXtO7Q1l3cijviUpWqqFXctaJVcRRrVUaY8KOZzP/7f86FhCQkIZGQ3MC5z8PDzV3e5XPfe+/3nve855WBFybABJgAE2ACTIAJMAEmwATsRkBmt5Q4ISbABJgAE2ACTIAJMAEmwATAApsbARNgAkyACTABJsAEmAATsCMBFth2hMlJMQEmwASYABNgAkyACTABFtjcBpgAE2ACTIAJMAEmwASYgB0JsMC2I0xOigkwASbABJgAE2ACTIAJsMDmNsAEmAATYAJMgAkwASbABOxIgAW2HWFyUkyACTABJsAEmAATYAJMgAU2twEmwASYABNgAkyACTABJmBHAiyw7QiTk2ICTIAJMAEmwASYABNgAiywuQ0wASbABJgAE2ACTIAJMAE7EmCBbUeYnBQTYAJMgAkwASbABJgAE2CBzW2ACTABJsAEmAATYAJMgAnYkQALbDvC5KSYABNgAkyACTABJsAEmAALbG4DTIAJMAEmwASYABNgAkzAjgRYYNsRJifFBJgAE2ACTIAJMAEmwARYYHMbYAJMgAkwASbABJgAE2ACdiTAAtuOMDkpJsAEmAATYAJMgAkwASbAApvbABNgAkyACTABJsAEmAATsCMBFth2hMlJMQEmwASYABNgAkyACTABFtjcBpgAE2ACTIAJMAEmwASYgB0JsMC2I0xOigkwASbABJgAE2ACTIAJsMDmNsAEmAATYAJMgAkwASbABOxIgAW2HWFyUkyACTABJsAEmAATYAJMgAU2twEmwASYABNgAkyACTABJmBHAiyw7QiTk2ICTIAJMAEmwASYABNgAiywuQ0wASbABJgAE2ACTIAJMAE7EmCBbUeYnBQTYAJMgAkwASbABJgAE2CBzW2ACTABJsAEmAATYAJMgAnYkQALbDvC5KSYABNgAkyACTABJsAEmAALbG4DTIAJMAEmwASYABNgAkzAjgRYYNsRJifFBJgAE2ACTIAJMAEmwARYYHMbYAJMgAkwASbABJgAE2ACdiTAAtuOMDkpJsAEmAATYAJMgAkwASbAApvbABNgAkyACTABJsAEmAATsCMBFth2hMlJMQEmwASYABNgAkyACTABFtjcBpgAE2ACTIAJMAEmwASYgB0JsMC2I0xOigkwASbABJgAE2ACTIAJsMDmNsAEmAATYAJMgAkwASbABOxIgAW2HWFyUkyACTABJsAEmAATYAJMgAU2twEmwASYABNgAkyACTABJmBHAiyw7QiTk2ICTIAJMAEmwASYABNgAiywuQ0wARck8H//93/45ZdfsGvXLqxatQozZ87E2LFj0adPH3Tr1g2dO3cW/2i9b9++GDduHGbPno01a9Zg9+7dSExMxJ9//umCNeciMwEmwASYABOQPgEW2NK/RlzCIk7g2bNniI2NxcKFC9G/f3/UqlULf/nLXyCTycz+0f68jvnrX/+KunXrYtCgQVi8eDGOHTuGP/74o4jT5uozASbABJgAE8g/ARbY+WfIKTABuxN4+vQpli5disaNG+cS0RUqVECXLl0wffp0bNy4URTfly9fxuPHj0GW7f/3//6frjy0npGRgeTkZNHiffjwYfzwww8IDQ1Fp06dUKZMmVzpt2zZUrSKs9jWYeQVJsAEmAATYAI2EWCBbRMuPpgJFByB1NRUREVFoX379njrrbdE4evu7i66fSxbtgw//fQTXr58afcCkJAm6/U333yDwMBAvP3222LecrlcFOGbN29Genq63fPlBJkAE2ACTIAJFFYCLLAL65XlerkEgczMTOzcuRPdu3eHQqHQCVuyUG/btg3/+c9/HF6P169fi1buDh06QBAEsUzvvPOO6Mu9b98+/Pe//3V4mThDJsAEmAATYAKuRIAFtitdLS5roSFArhs7duxApUqVRAFL/tRt2rTB2rVr8eLFC8nUk/y/ly9fjg8++EBXzpo1a+LgwYMGriiSKTAXhAkwASbABJiABAiwwJbAReAiFC0C58+fR/PmzUXB+u6772LWrFmij7TUKdy/fx9ffPEFlEqlWHZfX19cu3ZN6sXm8jEBJsAEmAATcDgBFtgOR84ZFlUCjx49EqOAkLWaXC9GjBgBshC72kL1GDBggCiyqR5BQUFISUlxtWpweZkAE2ACTIAJFBgBFtgFhpYTZgJZBNLS0vDVV18VOssvWeJbtGihs8TPmTNHjFjC150JMAEmwASYQFEnwAK7qLcArn+BEqDweRUrVhRFKPkuHzp0qFD5LpMvOU12U7lyZbGONWrUwJ07dwqUKSfOBJgAE2ACTEDqBFhgS/0KcflclsDWrVtB0TdoQheKaV2Yo29QNBSaKZJcRjw9PXHgwAGXvW5ccCbABJgAE2AC+SXAAju/BPl8JmBEQKPRYMqUKaJFt1SpUvj555+Njii8P2nGyb/97W9iHG9yGdGf9Kbw1pprxgSYABNgAkzAkAALbEMe/IsJ5IvAq1evQPGjaSAjzcJIsysWtSUpKQm1a9cWGfTs2ZMnqSlqDYDrywSYABNgAmCBzY2ACdiJAMWvrl+/vigshwwZIk5bbqekXS4ZGthJk+fQh0arVq1YZLvcFeQCMwEmwASYQH4IsMDODz0+lwlkE6ApzBs0aCAKyrCwMHaNAPC///0PwcHBIpPWrVs7ZVZKbqBMgAkwASbABJxBgAW2M6hznoWKQGpqKt5//31RSE6fPr1Q1S2/lSEf7DFjxohsaKZKlUqV3yT5fCbABJgAE2ACkifAAlvyl4gLKGUCNKDR399fFJAU65oH9eW+WsRk1KhRIqP+/fszo9yIeAsTYAJMgAkUMgIssAvZBbVndTQppxAxYz0uZZpIVfMcV46cxq9qw32Z139AWHgsHhltNzyq8Pz6/PPPReE4aNAgFo4WLit9iAQEBIisFi1aZOFI19mV+/7IRMr1E/hxUxTWR23GnuPX8czo3ilq94frXE0uKRNgAkzAvgRYYNuXZ6FJTfPsGGa0q4Nuyy8hTa9W6t+vYt+3U9C7cRm4VRyNvel6O2lVdQ1r+9RB80l78VBjtK+Q/aQ419poIRkZGYWsdvavzr///W/QRDRvvfUWDh8+bP8MHJii8f2heRaPiCGNUFIuiG2C2oVMJqBYja6YHpMEnc4uQveHAy8HZ8UEmAATkBwBFtiSuyQSKFDGNazp5YMqAzYgSbREa/A4PgphQZ3QuKEfPh31MaorZFDWD8VJE7pS8zAaw2qUR5eIyzDW3xKonV2KkJycDA8PD1Cc63/96192SbMoJPLrr7+iWLFiIjeKuuKSS677Ix37x1aCslwLDAoNx6qoKKwJn4JeDbwhyGQQirfDvIQc3/OicH+45HXlQjMBJsAE7EiABbYdYRaOpFS4uMgXJUoEIOKG1s8jE1e/n4ppkSdwPx1Q31kGP3cZ3NrMR6LONKdfezXuruuBMt7tMf984ZPY5FPcsWNH0VK5b98+/YrzuhUEvv/+e5EdudW43mLi/tA8xJrAJgiJe2VQHc2TA5jQwA2CTA6fsfvwWre3cN8fumryChNgAkygCBNggV2EL76pqqvvrEK3UgpUGRUDc/ZF9a8R8HeXwaPLKtw35waSehif1VLC238prpoU4aZyd41tGzduFAViv379XKPAEislfaD4+fmJDA8ePCix0lkujsn7I+MkpvachlO5enPUuLPMD+4yGdw7LMEt7fcqZVGI7w/LBHkvE2ACTKBoEGCBXTSus5W1TMOxKXWhUNTExFh9z2vD07UC27PfRrMiHFDh5Jf1oVRUw9i95qS6Ybqu8Cs9PR1///vfxb/nz5+7QpElWcaHDx/i3XffxT//+U/8+eefkixj7kKZuz9S8ejhc5j61kyLHgpvQYBHtzVGYxIK5/2RmxlvYQJMgAkUTQIssIvmdTdd61cxGO0jh7zCCOxJNX0IbSWB3dFdgNfg7QYDII3PSD8YjKpyOcoO3Y7fjXe66O958+aJlteVK1e6aA2kU+zZs2eLLNetWyedQlkqiZX3R04SalwLbw93wR1t5l3OGeiYfUBhvD9y6s5rTIAJMIGiTYAFdtG+/ga1V8VNRk2FDO4BK7IHNxrs1v3QCuziQywLbM3j9Qj0FCCvPAb7zBvEdelKfeX169fw8vJC+fLlkZlZyPxenABfy7NChQouwdPa+0OHMuMi5rZ2h7xCf2z4Lbd9u7DdH7p68woTYAJMgAmABTY3gmwCavwa0RHuMjnKj4yxGP3DWoENVSwmVFNA5tYOiwqBI/acOXNEi+vatWu51diJgLZHYM2aNXZKsaCSsf7+yCqBGncie6OCWzUM3ngX+u7XuhIWsvtDVy9eYQJMgAkwARbY3Aa0BDJwMrQ+lDIlGoSeQq7xWtrD9FxE8rJgIyMBs5opIVPUwMTYnDBlekm5zOr//vc/VKxYEaVLl3Yhn2Hp401LSxN9sWmqeWkv1t8fVI/X58PRsWw5+M+PNz9OoRDdH9K+dlw6JsAEmIDjCbAF2/HMJZqjCocnVINcpkTTsLOWBfZtCtMnIE+BnZmI+W3cIJOXw8gfXTtc34kTJ0TrdUhIiESvn+sWa+jQoSLba9euSbgS1t8fmUnbMaJeRfjOPIaU3J4hOXUsRPdHTqV4jQkwASbABIgAC2xuB9kEVDg+pQ4UMiXe/+q0RYGdeXUR2roJKDZoq8VBjsg8j9nNSWBXRfAh1xbYQ4YMEUXg9evXucXYmcDJkydFtpMnT7ZzyvZMzrr7Q/NoP0JaVEWHvMQ1Fa0Q3R/2JM1pMQEmwAQKAwEW2IXhKtqlDplIXPAh3GRyVAk+aNEHO/P8bDR3k8FzwGZYCDYCqI4hpI4CMmUzzEqw5HRilwoUWCJqtdpF3BgKDEGBJkzuNxSur2zZsqAY2dJc8r4/NE+OYFq7GvANO4qnlizX2goWkvtDWx3+zwSYABNgAjkEWGDnsCjya6m7hqGMIMCz93dIsUAj41QoGihlsBwHG8DLrRjkLUAoMRBbXDgUdkJCgmhhnTp1qgUqvCs/BEaOHCkyTkpKyk8yBXqupftD8+wEZvvVgm9YnHXimkpaSO6PAoXOiRcNAqp0qMx9lFraVzToSKaWKpVrj6VyNEgW2I4mLuH8NA/XobuXAGWDUBOz0uUUPGXzQJQWaHa6xbhpMjxC1rEZCTPxgVKAZ8C3FsP+5aQszbWFCxeK4i8uLk4aBdQ8x5WYlQgbPxR9u3fFx4H9MGzCDCzbfBS3Xph6S2Ui5foJ/LgpCuujNmPP8et4JrEog1u3bhUZR0ZGSoOxiVKYvT9exGNRQHkoilVDCz9/+Pub+uuMUVE3DaKJFJb7wwQq3uQAApqUU4iYsR6XzN3L9Jw4chq/Gj2jM6//gLDwWDwy2u6AIhtkob69HxEzQzCiV3vUKdsIoXpToVraZ5AIALMcXl1B9JxF2PMw55moSTmDyLAIHH1pnIojfr/G7SNbsO34XYs9xPkryWvcP/Mj1s4ej1m7HmVNfqV5gdsnorF8ajDC417ZmHwmbsYsQdjkIPRqVxtlm4XhrAQ6o6XShvOCyQI7L0JFab/6HtZ084bg7oclBvM6k7/oL1g1LADtW74Pn+JyCDIZZIIXqjRpB79uodj9OOchloVMg3sru8BT8EKn5bcNhIWrIe3UqRPkcjn+85//OL3ommcnER5YHZ7lmmPAF+FYv3k7tn6/EnOCA9GwtALKigOx8UHOtdA8i0fEkEYoKRdEASuj6yYTUKxGV0yPSco1+YmzKvjkyROxfIMGDXJWEfLO1+T9oULsxBpQCMTV0p8bms8+r8e78NwfeYPjI+xNQPPsGGa0q4Nuyy/lGgej/v0q9n07Bb0bl4FbxdHYazz8RXUNa/vUQfNJe41mF7V3KS2np350Dnt3RCK4mRtkyvqGAtvCPv1UzXLQJOPHMXVRecDGnDqqbyOytw/qTYyFM/R1RsIsNHMTIHh8hPBr5r6K9Gv3BuuvtmFwCQGCpy++yc5DnbQCndxlkJfphw2Pct4N1qWuxoMzMYheMxpNlDIom0hDYEMibTgvhiyw8yJUpPZrkLJjOCrLi8E/4lb+RLE6Cas+Lg55+UHYnGzrTS0t6P/4xz/QoEED5xdK8wjRn1aFskxXRFzOPXNPxp2V6FZnLPbpXqjp2D+2EpTlWmBQaDhWRUVhTfgU9GrgLX4gCcXbYV6CdLr8aAKfOnXqOJ+z2RLw/WEWDe9wHIGMa1jTywdVBmzQ6xnU4HF8FMKCOqFxQz98OupjVFfIoKwfipMmLI6ah9EYVqM8ukRcLkBrqjVI0rBrWGkIRgI760xL+wCY5EBnapCydwxqudXF5ye0D0M1kqL6oLynL5bccI7pXn1/C4bV8oRXgwmIeWL0TtQ8RNySIHzUbQEu5kN7Z5wNQ1OlHFWCdupc1dL2j0VluRINQ3/Ca2suialj0qIx1FuQjsCmqyyZNmwKWNY2Ftjm2RTNPZmJ+KZDcbg1norTuTWc1UxUCbPRwt0Tbeaeh3QknNXF1x1IMzaSZbJHjx66bc5aUd+OgL+nAtWCD5p+UKYfwqRus3FO+0LVPMSawCYIMeoW1Dw5gAkN3CDI5PAZu890Wk6oZJs2beDh4SHhgY7Uk8P3hxOaBmepI6DCxUW+KFEiABEGQjETV7+fimmRJ3A/HVDfoVCqMri1mY9Ek4JNjbvreqCMd3vMP68VobpMHLhCRoDKkJsU2Jb2meMAQHVOjF4lrzkZR7UvnxcHEFxTDrd24bjuHH2dxVSjhtpIW4s7Mk4htIEynwI2ayC2e6kuWKFrG+mIC6kNN5+h2Gaz9VqvGaTHYFQFeT7Lp5eeXVal0obNV4YFtnk2RXZPWsJ8fFSiDLqtekMrtjoJUX3Lo3irmYi3GGZE+ojv3r0rCuxJkyY5vbDp+8agotwNreZe0nM10C+WCi9+T83pecg4iak9p5nwp1fjzjI/uMvIj34JjL2B9FN05PrgwYNF1q9e2eon6MhSAnx/OJY355ZDQH1nFbqVUqDKqBjzExhlTwbm7y6DR5dVuG9K0FGSqYfxWS0lvP2XwnkT7aoQ+1l1KEwKbPP7zHPQ4MnWISgvyOA9YEs2IzVuLe8EL5kcNSfFSdPgk/EzpjfKp8BWnUVYs/IIiEjMCbP7PAZjalbD4E33ct4LOc3J+rX0Awj2kZrAlkobNo+RBbZ5NkV4TwZuRA1Ajcq9sO62SfOHBTZq3Ns4EFWr9MLqK860jFgoog27jh49Koq+iIgIG84qmENVR0NQWyGgeEAEblp1WVLx6OHzrIEuRkVKix4Kb0GAR7c1OT6KRsc4+uf06dNF1pcvX3Z01jbmx/eHjcD4cLsQSMOxKXWhUNTExFjL3YvqXyNAAttypCcVTn5ZH0pFNYzda1uYp8wnFxGzfgnmzZmLBUtWY2vsFaQYPZPSH5xDzHcRWDh3Ppas24UzD7XmZH0YKhwLqWNWYJveZ4GD+hYi/EuhQqPOmLApe1CxKh7TGpdAlRY9ELbvcfbAv5e4fzUR9KzJ+UvEjYd6FiH1XRzcFIvf9Czemhf3cTVR75zEW0jWXQo1Xt1PwL7vN+AYDaxUP8X5nauxePFqHLxJ78Kc/Uf1Bl6KNDLOYEaTPAS25gVuxG3GqvAFWLhsLbb/lKTX+6jGnXWD4TdhJ+7ryqtCwrxu6DzrKJ6Z+8jSvxSW1lWxmFBNYdqCrXqKO8TEgIWlxPT3afDyt2tINLoO13XXIRUPrutdp8Qb0O0Sk3nzNqxfioJaZ4FdUGRdPt2XSFjRB407LzXTxWi6guobqxDYuDu+iTct7Eyf5ditFGt506ZNoAlOHjx4gP/+979mCxAdHS2Kvi1btpg9xmE7XuzD2OoKyIRiqNc3DJF743H1wUsz1mxLpVLjWnh7uAvuaDPv8hucbyntN99HHzHkjnP8+PE3T8RhZxbe+8NhCDkj2wi8isFoHznkFUZgj54ONJUICeyO7gK8Bm/PNQhS//j0g8GoKpej7NDt+F1/h7n1V9ewa24QAnsMwugJEzB6UCc0KKOEIHiiR2S2eH2ViC1ffIwmjX3RY+Ag9Parj9IKAfLSrfD53uzIFrr0VTjxRV2zAtvkPoscVHia/CzHgivmk4onyS8NLbgZCVg3fiDaVXXPGo9S7D10HTkRM7dd0z0PyZ/5A6+2WKDnY6M6F4nPg4einY8CglsV+A77GnvuqpERvwiBzaujhELIGrB57Dq2jWqIYjT4WV4Bw+d9bbhfL2LKqztHERXWDw0ppG0xHzRq1QqtWrXChwOWZ0eI0eBp/BpM6NUHEyN2IPZYLHZEjELLUh6o2nUO4rL9udOfP891rVN/f27EQgfethVVLCbWMCGwUy9h7YBa8CjdFH0nL8WhHHVvZfoZuPBdCAa2LAc5DRKXV0SbQcEI016HzERsmjoWA1pVgFzwRv3un2PLdcMvOZvbsJUls8dhLLDtQbHQpqFC8m+PbbtBM5/g/kPpW67fe+89UcyRoBMEATTAjh5qFMVi2rRpWLlyJSgs3zfffCMet2PHDglcZQ0exExB69LZUVzESC5yeJSujiYdemPk1OX4MdGKD5uMi5jb2h3yCv2x4bf8mjbsh2X16tUi67Zt22Lt2rW4ffu2tP2xUXjvD/tdVU7JXgRUcZNRUyGDe8AKvcGNplPXCuziQywLbM3j9Qj0FCCvPAb7dJZY02lm3tuB4KZ10Gf1VQMhp356DF+2qI3PYrMs1OmHJ6CO7yIkaseCIBO/7RmL+koha9ClgSHbdoFtCwfTNcnZmhoXgroKGeQ+43DAoP5piCPLukyJJmFnjN6BL7FtSDk0Cf3JaKK1V4geWgqCwgftu/fDyAUbsTt6OUa26pwdNSR7v4E7jAaPLx1F7IGl6FdRDkXt4Vh7OA7Uc3r8cjLU0ODpwRA09fbBJ9uS9Xoj1bi3vidKC3JUHbELKQX9GDchsDVPT2Bel+qo1f1r7L+bv3e++t469CgpQGYqghnUuLm4A0p8OB+/6NpUzjW0pQ3nnOWYNRbYjuHMuUiMwKhRo3QCWxte7a233sq1rWXLlhIS2FkQVY/OYUfEVxjZpyNavlcRXmQ1yQ4RJ3jWx8jtlvzt1LgT2RsV3Kph8Ma7hlYdJ1+jVatW6eqhrU+JEiUQGBiIZcuW4dKlS9BoCvpN4mQInD0TMElAjV8jOsJdJkf5kTF5Rv6wVmAju+tf5tYOiyw5YquTsL5nabg1NRWmLR0x43pg0ZUsy2Lm9a1Yve+hnhikwcFXsaitG2QeXbDK4KPeVoFtGweTKPU3qrIGF8qUjTD9Zz319mwngmqXgJdcgKL2JBzRD7+RFouJTfsg0qAelGh2yE6ZG1rMTtD5eqvu3UKSqD+z9xsI7OzCmBCw4p7My5jfxh3yiqMQo18GiqKRvA7dPQQIpQZhi1XdD/oVt3HdqHxp1zZhbMv3EbjgKJJ1Lik2pmlw+AvEjK4KueCB9uFXdb0I4iHqW1jWqRaGRT81bFPa861tw9rjHfifBbYDYXNW0iDwr3/9C+PGjcsl5rSiTvv/0KFDIMs1/d68ebM0Cm+iFJkv7+PC/jUI6egDpSCDolowDpgZJ/j6fDg6li0H//nxFgdJmcimwDdpXUR27dqFnTt3Ijg4GPXq1YP+h4+npyc6duyIefPm4eeffwZFeeGFCRR+Ahk4GVofSpkSDUJPGVlUc9feaoGdkYBZzZSQKWpgYrYFOndqgDrpW3T2lKNM0G4D67WpY3Nty3iOe5fiMMvPHTL3jogwmPnGVoFtG4dcZcm1ITt/mRs+XJCYLezUSFrTE62mbER4x2IQ5JUwfGeOgk0/EgLfcXtNxNJW4cTndaGQV8a4A6Ysutn7bRDY6ltLs6LBNAvDz2lGxoW0PQgqI0Dm1gbz9dxYclXRHht0AjsUO3d+Bb9qzfFZzL0826EtWat+npEVa7vRNMTr9XJkXvgabdvOwQW97x+DdK1swwbnOOgHC2wHgeZsnEOALJ5Xr14FWUcHDBiAihUrmhXWWiE3ZswYvH6dZS44duyYePzSpUudUwFbcn11HF+8r4RM2QyzEnI/jTKTtmNEvYrwnXms4LsUbSl39rE0FT19zFy5csXg7NTUVBw4cACff/45PvjgA3HSH+1HkFKpBIX3owGS5NKTnm7qxWaQHP9gAi5IQIXDE6pBLlOiadjZPIWN+jaF6ROQl4sIhZ2c38YNMnk5jPzR/L2Tfni86Ktdedz+PK3nBDft7jF8NzcY/QJ84du5D4JCpuPTFu4Q8i2wbeNgzYVOj5uMWgoBHh0jsma9zLyIuX7dsPxWBh593xelBAGlekcha/6u14gN6Y4wfQWoyyRbrCvq4UtTwcdh4WNCJ2ANewjSDwWjilwGeck6+NC/Ezp37YbugT3Qs2cv9O7TB337D8XISRE4+tRIfOvKZKeV7PLJK7yHOqXlkAneaPXlIeSaXy4/2dEA1U5eEBQ1EKyzEKXh6JQ2GLjBqEdEPx8r27D+KY5aZ4HtKNKcj0MI0GyLJ06cwNdffy1OWU0WT60Yo/9Vq1bF0KFDsW7dOpD7gf4+Hx8fnDp1yqCc9+7dE4/57LPPDLZL80c6Do+vCrlbc3x9wdCyq3m0HyEtqqKDRMU18Rw4cKDImgS1pYWuMQ2EDAsLQ7t27fDOO+/oruNf/vIXNGnSBJMnT8bevXvx8qUz5myzVHrexwTehIAKx6dk+QS//9XpPAV25tVFaOsmoNigrZYtzpnnxZjRMnlVBB+yILDFEKECivWKgvEcKca1eX5sBtqUKolWn23E+SfaD/00bB9S3LTAJquvKasuCdJc+2zjYFw2k7/TDmF8dQWE4j0Q+UiD17Eh+GjkLjyjg5/vxojKcgieflhKsaVf7cPEwcvMxNI2VV79HC3sNyew945GBbkMSrLqalHqJ+modXQKq5EAACAASURBVF35ZiD26DwEVJBDkJdCuxlxuglt8l+U7BCLcjnKDdmale7z3Rjl9wWOG7nHGORlZRs2OMdBP1hgOwg0Z1MwBJ4+fSq6E5AAbty4sYF1869//ato8SSxtWfPHjx7Jj4ydQUh316twCbraEZG7ifYn3/+KboodO/eXXees1ZUsWGYtNHClzxSsTuoHBQ+oxGj5yKieXIE09rVgG/YUTs+DO1PgQaZFitWzOaE6RqdPXsWCxcuREBAgJiG9rrSf5odknoltm/fDpqSnRcm4HoEsiYRcZPJUSX4YJ5W5Mzzs9HcTQbPAZuNBuIZ1Vx1DCF1FGZ7vbRHZ16cg5ZuMsgrBWHXc+1WE//Vv2JF52JQVB+PQwaiyLzAjptcCwrFe/j8uJ5fgJi0Crn32cbBRAlNbHqFmJGVIBdKYcDG69j8ib+ehToNcZOzPmyahp3B4x3BGBn1wLQvMKi8NcW6TMlVF8rWwn6tgG08A/qu4FruglcvRNrVXGwCg6VN6QcRXEUO5ftf4XQG8PJcBHpWUUCQl0a76bF5fnRZStpg3+s4hLxHHztdsfLXDNxb1w+BS69bHitkZRs2yMdBP1hgOwg0Z5N/Av/73/9w/fp1rFmzRoz2UalSJZ1AJiHl5eUlCizyzyVLtCnBrF8K8vmtW7cuLl68qL8513rZsmVFX+BcOxy8IW33SHSac8FwAIheGTT3f0D/it5oNz9n9kzNsxOY7VcLvmH2tDToZWrHVeJM1yO/C7kFkZvJ8uXL0bNnT5QqVcqgnVBPxSeffILvvvsO1ENBYRt5YQJSJ5C6axjKCAI8e3+HlDwKm3EqFA2UecXBBvByKwZReLgSA7HFUijsjJ8xozGF4yuJzstvmH0GIf0AxvnI4db8a+h3omkeH8TERm4mLNg0W2MlyBXVMOGwscA2vc8WDnlg0u1+Hv0JysnlKNWhCzr2WpnlKpK9N+PcTHyglEFRfRBGfRKM7WZDdpgury4TZO+Xm6hrtsBW1JkCA21O3JsQdy90CE/UDZzMSfPN1zQvb+P4tgiEjpyKaOO43MbJZvt7K2pNRlz2ZUq9sByBlUlkl0TrKXsN4oXT6Talr8svE5fnfwgPwQ0twjZgZsAQbMhrBkpr27AuD8etsMB2HGvOyUYCKpVKjFU9d+5cdOrUCX/7299yCSWa/Y9Cut24cQMkwG1ZyH2ArJ95LV26dAG5HqSlGcRxyus0u+9P2z0c5at1w9e7E/G7gQdIBh6f+wET2vig4YhNuKU1xL+Ix6KA8lAUq4YWfv6iy4y/v/H/zhgVlT0hg91LbH2CycnJ4rUl9x17LySgf/31V6xfvx7UXv75z38atKMyZcqgT58+YmjGa9eu2dyO7F1eTo8JmCKgebgO3b0EKBuEmpid1fCMlM0DUVqgmVoX46aFKA8ZCSQeBXgGfJtH6D8NkveMxntuAoTiTTEqKgHP9NJ9nXQa8bfSgYxzmPmBEoJHU4zffgkPH9/D+R/DMXrQBAz7yBOCW3uEX9M7ES+xZWBxCEJpfLLD2DXM9D5bOBhSMf9L83Qj+pcSRF/0wVuMolWob2CJnycEmRxVx5ga3KhN9yU2DzBXFzpGu78UPok2qmvGWYQ1VUJwa4TgHVfxKPkOzhw7j2QNcR+Txd2rEYLW63NX49nFrVi4+piJAZfaMpn/nxo9BN4yGTz9lkI3s7q5w59vQF9PAULZ4dit1zPxIn4hOpUjn+xiqP/JOlzQ+0izKX29fDW/RaJnSYoJ7o36wfuh1xmrd1TOqvVtOOccR62xwHYUac4nTwLkwrF7927QtORNmzY1cPeQy+Wib+3EiRNBUSZSUvKy4eSZndUHaGNhHz582OpzCuLAzF/WYmjLSvAgK1bZmmjUxh9du/ihdb1KqNSkN0I3XsBz3ViX7JBQNNFBdgg/0//d0Hz2efMWqYKoiIk0aeIfKt/3339vYq/9N5Ggp8mDRo4ciZo1axowop6Qrl27Ijw8HOfPn4darS8I7F8WTpEJWEVAfQ9runlDMBkrmELh/YJVwwLQvuX78CmeHStf8EKVJu3g1y0Uu3O5GGhwb2UXeApe6LT8tuVueLGA6bgZ/SU61ygGQZCjeLVm8OvSGR1a1Ee91kGIukZf/WokbR2BesWyQ4cKClTqMg/Hn77Gjk9KiueVeq8tugZvQOLJxRjg/wF8POlYAZ5VmqHjwKWii0RGvPl9yIuDVTCNDtI8QmRPbyiqB2N/LkWnwW/rAuGtqInPYvXUpV4SWeVtisoeWXXxqNQI7TsNwOJsx2nj/fp1zUomA5eWBaCsPOt5LbjXQv+VCXghPs/TcCP6S3St7Q25oECJGi3g//HH8G/dGC17hmLzpTcZZ5KJy/NaQSmvgqBdKWZcXqhkKvy0sA/8mlaGB71LBC9UbxmAoSsSsscBaPDs5Hx0rqiAoCyNhkMjITYDWJu+HkTd6jNEf1oBcmUThJ3RWot0O41WbG3DRqcX8E8W2AUMmJM3TYCszTdv3hQHGw4ZMgTUba8vAMkXl8KxzZkzBz/99BPImu2shVxIqGxffPGFs4qgl68aL+//gp8O7Eb01m3YEXMY8TdS7Np1qJeZw1aHDRsmMv7tt98clqd+Rs+fPxf99OkDrmHDhuLkQ9r26O7ujo8++gizZ88We1Tycj3ST5fXmYD9CGiQsmM4KsuLwT/ilhWCOI+c1UlY9XFxyMsPwuZk3Zd5HieRkP8dt+IPYU90NHbtP4qfbzwxev5okJr0Mw7sjMbuI5eQbPdHt505iDXWIOVCDLafuGvS2KB5cRkHth3Fnbz0Xt70LByhQvLFw9i5fReOXEnJXQ7NK9w7H4e9O7cjOiYO5++9siCMLWRDu9Q3saSDB4r7LYWl8Od5pKLb/fr2GZy99zqnPPlMP/3WEWzddQZ5eYfgTduwruQFu8IC2wRfso5SyK8ffvgBixYtQkhICEgEklWLXBX8/PxE8de5c2f069cP48ePF4UgRaagyAV3797lbmYjrv/3f/+H06dPY/78+SBuxYsXNxDU5E9NUSRoNj+pddPTVOok+Gn2R17sT4B8psuVKyeGUJSKPzSFaYyNjcVXX30FmmxIoVDo2iutt2jRAqGhoaBY6f/+97/tD8VFU/zjjz/EKD4bN24UZ0Glj1Lyd//4449zPTt79+4txqOnDxe676n3ij666X7jxQyBzER806E43BpPxel8eqypEmajhbsn2szNGbNhJlfpbbYjB+lVruBLlEGDYL1bYtaZfDYiM0Ut6PS12Uq9DRdpgU0Pcho0R5OIkIj29fVFyZIldS9SrQVL+5/iJFNkCoq9Sy9ZmmJbu8/4P1m9KGYvzRhILw+KckDhxYrKQhbBH3/8UeRKHIiblhH5Mzdq1AgTJkwQJ3JxhcgOw4cPF8ufmJhYVC6hw+pJ0wJT2/jyyy8dlqetGdEHIg2cpfCP9Jyg+1vbnuk58P7774vtmUQitf3CvlAP1J07dxAdHS1+hJDhgQapapmY+q99dr799tvimAZTx9A2er5SLwL1atBAVeLOHzE5LSotYT4+KlEG3Vblw4qtTkJU3/Io3mom4o3cgXNykvaaXThIu4oFUzpNCnYG1YPvvHMw7fCSz2wLOn1t8VygDRc5gU0WMhK7NJOfsZimBz+9KMniQhOLUGg3mi2OLNIUm9eUdY1E84MHD3DhwgVxMgyyYpNFmya/IKun/kuE0qeoBpQuvbALy0Jcbt++jcjISJEdxZrWr7eHh4do9SdLFcUvdsXJQOLj48U60UcBL/YlQBMAUXuhNuQqC32c0z1P/vlknTXukalRowZGjBghfrw/evTIVaplsZx0n1N0FgppWb58eYN7nMZIUA8P9UKR7zqNk6AeK7qmNJjY1ABkegaSL/wvv/wi9gRQVBcKqUnuOH//+99zpU8inowhrvj8sAjW5p0ZuBE1ADUq98K62wajna1MSY17GweiapVeWH3FfOxrKxNz4mH55eDEojsza/UdHIs5hycFNbSkoNMX2blGGy4yApuiTFB3r35otypVqogPdHpokyXb3oOZ6IX08OFD0W1k1qxZYlezVniS+P70009BMwVSF7krLTQ9NX14UNxhcpvx9vY2eBnSbIn9+/cXozLQC9nV6mfqWtC1JD9xevEXpo8jU3V15Db6cKWJYmhQqysvJCDpGUIzhvbt2xcUmUR7r9N/uidIfNIHOFl+qT25ynL//n3RBa5WrVq6OpG1mowUNCj18uXLdp+ynvhQzxa54JBbGfUaaHsM3dzcRNe8/fv3WxUFyFU421bOl0hY0QeNOy+FrbNkq2+sQmDj7vgm/nmOz6xtmUvo6DfnIKFKcFFsJOAqbbhQC+zHjx+LIpBi62pfdqVLlwZNSkLWJ2e85EhwL1iwQIz3a1wmsuRIcSG/SvItJ8tV8+bNDfxRtd3jwcHB4kQexLywLuSPT9dsxYoVhbWKDq8XzcZITMl6WZgWeraQMCUBSj1i9DGvvd/pP/We9ejRAxSLnQSq1D5C6Z4n9wxy79KWm6KrkFX+5MmTJi3SBX39KMqQcZmo54AiwZC13BnP84Kus+X0VUj+7XGeszrmSiPzCe4/dGXLtXGN3pCDcTL823UIuEgbLpQCm/z1SAxqByZJ1VpMFi+yquvH5e3WrZvokuKslk4vKYoZTIKHfCCrV6+ue8HSi/bdd98VrUkzZ84E+c46Oza0IzmROxBNr/6Pf/wjz0lsHFkuV82LXAdoKnvqGbB375EUmZBFlmaTHDt2rOhOoRWu9J84kAsEWWvPnDljs2WWelXsMTiQIqTQRE10n1O5qHeBLPL79u2zuUwFeQ1ogiCKMKQfYvHDDz8UP1YKMl9OmwkwASZgLYFCJbDpBUNdtFr/PfIJ3Llzp+S79EnUkl84TcdNLzXyZyQrOwmQgl7I3YPyJr9JEvckIPVf/BTdgV6wZLUlS5s9XuIFXaeCTH/x4sUiH/rPS/4ITJ06VWS5YcOG/CXkomfT/U3ClQZYN2nSxGDgHw30I8E4Y8YM0Y0srwHSMTEx4sBh+mh/k4WeQVu3bkWFChXEa0KudGR9l7q/M5Wb3NBogiIahE5/tO4KA6ff5DrxOUyACbgOgUIjsMlXT+sjSFMj06xtUut2taZZ0Ih5GkFPIpe6ZJctW2ZXyxG91Ml3kSI2UPgxGnipFdTk7lG/fn3RwkYv28IyOMsa7tYeQxY+smDTrJJPnz619jQ+zogADRwmEVmtWrUi/9GmRUNilnqFSFSTuCY+2nuTPrrJT33KlCmiKH/1ynA2DIrfrT2WLLu29AiQxZzSpvPJkk4f2/Th7WoLGQCIG9WD/LSply2vDxNXqyOXlwkwAdch4PICm2Imd+jQQXyo0guJrGKu7rZAA6Yojqw27BX5b1LIO7LW2LLQ8UlJSWI876CgIIPuVHoJUaix9u3biy/0I0eOgGL/8pI3AeoVIX5k8bf1muSdeuE/gtp369atRYYUVYYX0wRI5JL4JbcRmnSJovFQu6M/stTS2BJyN6FQedpxJrSd9tOH8tWrV00nnL2VfMR79eolHk+hMyktVw8xSPcjjRfRRjKiwaY0n4GpKCYW4fBOJsAEmEA+CbiswKYHKQ0QohcDvVAo1Fdhs7iS9YWij5A1hupIk9pYmtHwzz//REJCAsh9gdxNyJJP52n/6GVDkzsQNxpQWdTdPfJz7wQGBopcSdzwYhsBcuOiNkkD5nixngD1yJGVlnq1qP0Zu3Np73Ptf3o2khWXngvGC/VQkX81HRsQEIBbt24ZH+LSv6nO9JyjXkCqIxlhHOFy59LQuPBMgAnYlYBLCmwa0EMzK9KDkwZIkagszAv5E9Lsh1TfBg0aiKH/qL7UTXzw4EFxoCRZBPW7lLUWrtGjR4uxYylWN1tb7ddKaLZPenlTFANnTe9tv9o4LiXqcaKeE+qd4clD8sed7meKM02x2enZYO6P3MC0EYpIpJObCR1LEZWo56owLySqBw8eLNaX3hVv6qNemBlx3ZgAEygYAi4nsCkMXOPGjcUHpr+/vygyCwaNtFKlLs7p06eL9aaoKPqRR+hlSdaotm3bYtq0aTh8+LA4MY60alD4SkMDy4g9dc9LfTCYFOi/ePFCjENP/sQU6o0X+xCge96cuNZuJ2s2CWuaxIW20aDKf/3rX/YpgMRToQ8RCu9HDOjjjmbb5IUJMAEmUNAEXEpg0+QmWreHL774wiUHMeb3gtLLQesyQn6WNOMkxfS2ZVBTfsvA5+cQIBceEiwU05h7CHK4GK+RO1K7du1EVitXrjTezb/zQUDrz64V0zRYmaL/tGjRQowARBbc0NBQ0WJNx1CUjaI4WdJPP/2kizBFHyXsl52PRsenMgEmkCcBlxHYNOMhuUCQpZZiyRblhbo5K1euLIoVEni8OI8AvaS14RXHjx/PItvEpSC3BJrFkMTd8OHDmZEJRvnZRB8sO3bswLlz50SrtHH0JPLbJncmsuCSJbcofwjSRF9kmKC2SGMAWGTnp+XZ8VxVOlTmJjS2tM+OReCk8iZgaQxY3mcXvSNcQmBTpAES1hRCqrD7W1vbBKm7XfuimD17trWn8XEFQIDcQ8haSC9til9elAWMMV4Se1ofWIqE4Yrh34zr5Eq/ExMTxXECNOnWgQMHXKnoBVZWGjxO7nR0v9IskK4qsjUppxAxYz0uGURUzETK9RP4cVMU1kdtxp7j1/HMYD+Qef0HhIXH4pG6wBBblbD69n5EzAzBiF7tUadsI4SeytCdZ2mf7qDsFdMcaJDSFUTPWYQ9D3OUuyblDCLDInC04KeYMC4mgNe4fWQLth2/i4KbR/M17p/5EWtnj8esXY8g1lzzArdPRGP51GCExxmG9zRRSKNNmbgZswRhk4PQq11tlG0WhrM5l8noWMf9lEobzqvGkhfY5KtJ4ppCVLG4NrycJLK14blo9jVenEeAQkPSNPL00p40aRKLbEB04aJpwokJjZcoim4JzmuRAA0o9fb2xl//+lcx9r0zyyK1vElka2NmjxkzxuXuV82zY5jRrg66Lb+EtGy4mmfxiBjSCCXlgnjP0X0nkwkoVqMrpsckQaezVdewtk8dNJ+0F3ra0+GXSP3oHPbuiERwMzfIlPUNBbaFffoFNcVB3K9Jxo9j6qLygI05dVTfRmRvH9SbGAtn6OuMhFlo5iZA8PgI4dd0V0O/Ovlff7UNg0sIEDx98U12HuqkFejkLoO8TD9seJTzsWFdZmo8OBOD6DWj0UQpg7KJNAQ2JNKG82IoaYFN0+FS1yZN20uzDfKSm8Aff/yhm3a5qLvO5Kbj2C0UR/yDDz4QX27kk12UBz5S9AZtfHr6z+LasW2R4lnTrIw0oJRmi+QlNwES2Vr/9SVLluQ+QKpbMq5hTS8fVBmwAUk6K3Q69o+tBGW5FhgUGo5VUVFYEz4FvRp4Q5DJIBRvh3kJKl2NNA+jMaxGeXSJuFyA1lRddhZW0rBrWGkIRgI76wRL+wCY5EBnapCydwxqudXF5ye0tmI1kqL6oLynL5bc0EGzUC7771Lf34JhtTzh1WACYp4YCV3NQ8QtCcJH3RbgYj60d8bZMDRVylElaCeeZmeRtn8sKsuVaBj6E954pou0aAz1FqQjsOkqS6YNm28rkhXYZBGsXbu2OKECvyDMX0Dak5ycjJIlS4qWfuoS5sV5BKjdan2y69SpA/pILGoLWU61YwSK6oA6Z15zGvCsFY5r1651ZlEknzeFOqVJaWhgaFxcnOTLC6hwcZEvSpQIQIS+UNQ8xJrAJggxcgHQPDmACQ3cIMjk8Bm7T09gqXF3XQ+U8W6P+ee1ItQZ1acPg8qQmxTYlvaZ4UBVUJ3D7OZukNecjKPab4oXBxBcUw63duG47hx9nQVXo4baSFuLOzJOIbSBMp8CNhOJCz6Ee6kuWKFrG+mIC6kNN5+h2Gaz9VqvPaTHYFQFeT7Lp5eeXVal0obNV0aSApt8WGmWPOrimjt3rvnS8x4dgfj4eLErmKxWrj4bm65SLrpCPp1ff/212H6pB6awxxrWv0y7du0SQ6HRgLoVK1a4XNe7fl1cdZ1mZKRnJ8XA5yVvAjTJDrkg0r0q9Q9i9Z1V6FZKgSqjYvBCv2oZJzG15zTouTFn71XjzjI/uNPMvR2W4Ja+uEw9jM9qKeHtvxRX82E11S+G7esqxH5WHQqTAtv8PrMcoMGTrUNQXpDBe8CWbEZq3FreCV4yOWpOioNWc9te1gI8I+NnTG+UT4GtOouwZuUREJEInZv08xiMqVkNgzfdg/6lt7km6QcQ7CM1gQ1AEm3YPE1JCmyyutALgqbx5QFj5i+e8R4tt549exrv4t9OIEA9L/TiJusYRXspzG4S5A6jncDk73//OygkGi+OJ0ATT9Gzs1WrViZncHR8iVwjx/3794vcaLCydAc9puHYlLpQKGpiYqzW81rLNxWPHj7PGtSm3ZT9Py16KLwFAR7d1uT4I4v7VDj5ZX0oFdUwdq+BXDdKIffPzCcXEbN+CebNmYsFS1Zja+wVpBiJ9PQH5xDzXQQWzp2PJet24cxDU9JWhWMhdcwKbNP7LHBQ30KEfylUaNQZEzbdzBKVqnhMa1wCVVr0QNi+x9kD/17i/tVEcWZUirKT9ZeIGw9TcyqrvouDm2Lxm54y1by4j6uJ2uMv43LiLSTrLoUar+4nYN/3G3CMnNvVT3F+52osXrwaB29SL0HO/qPGzu8ZZzCjSR4CW/MCN+I2Y1X4Aixcthbbf0oy6JG4s24w/CbsxH1deVVImNcNnWcdxTNTVvOcmua9porFhGoK0xZs1VPcISYGLPJOMusIDV7+dg2JumtAbBNxXXcdUvHgut51SrwB3S4xgTdvw9aWMD/HSU5g00QyJEr+8Y9/8GQpNl5Z+hjp2rWr+KLgyRRshFdAh9NMe9WrVxevScWKFcUQk4Xpo5GihERFRYn3Kwk7/ZlGCwgpJ2uGAI0BoPjXNGaFwtHxYhsBsvhTG6ZQhpJcXsVgtI8c8gojsEdPB1ouqxrXwtvDXXBHm3mXcwY6Zp+UfjAYVeVylB26Hb9bTihr76tr2DU3CIE9BmH0hAkYPagTGpRRQhA80SMyW7y+SsSWLz5Gk8a+6DFwEHr71UdphQB56Vb4fG92ZAtdXiqc+KKuWYFtcp9FDio8TX6WY8EV80nFk+SXhhbcjASsGz8Q7aq6Z/moF3sPXUdOxMxt13SMyJ/5A6+2WJCY8+WgOheJz4OHop2PAoJbFfgO+xp77qqREb8Igc2ro4RCyBqweew6to1qiGKCDDJ5BQyf97Xhfr2uhld3jiIqrB8aegsQivmgUatW4gfyhwOWZ0eI0eBp/BpM6NUHEyN2IPZYLHZEjELLUh6o2nUO4rL9udOfP9cNeNXiTf39uREL7R4b/6tiMbGGCYGdeglrB9SCR+mm6Dt5KQ7lqHsrM8jAhe9CMLBlOchpUK68ItoMCkaY9jpkJmLT1LEY0KoC5II36nf/HFuu51wPysTmNmxlyexxmKQENgmPgIAA8SFHs+TxYjsBmladZnqkCXlooBkvzidAlusFCxaIH470Am/WrJkYs9j5JctfCSh8Zr169cT7laaMJ2HCEx7lj2l+zqaQc9S+eCKfN6NIHyjly5cXXZwePHjwZokU4FmquMmoqZDBPWCF3uDGPDLMuIi5rd0hr9AfG37LbcbUPF6PQE8B8spjsE9niTWdZua9HQhuWgd9Vl81EHLqp8fwZYva+Cw2y0KdfngC6vguQqLOTyETv+0Zi/pKAcr6oThpYMi2XWC/EQfTVUJqXAjqKmSQ+4zDAYP6pyGOLOsyJZqEnTESqS+xbUg5NAn9CYbfOa8QPbQUBIUP2nfvh5ELNmJ39HKMbNU5O2pI9n4DdxgNHl86itgDS9GvohyK2sOx9nAcjh49iuOXk6GGBk8PhqCptw8+2Zas10Ohxr31PVFakKPqiF1IyX1pzdT4DTebENiapycwr0t11Or+NfbfzZ8fv/reOvQoKUDm7oclBn5MVF41bi7ugBIfzscvujaVUw9b2nDOWY5Zk5TApi51ekH06dPHMbUvpLlERkaKHIODgwtpDV2zWr///jtGjRoluoxQO+/Xr59LWhrv3LmDLl26iG2MQsBNnjwZNFiMF+cRuHTpkng9aHCjdF0cnMfH2pwPHz4scgwMDLT2FAcdp8avER3hLpOj/MgYKyN/qHEnsjcquFXD4I13DS242lJnd/3L3NphkSVHbHUS1vcsDbempsK0pSNmXA8supJlWcy8vhWr9z3UE4MAMq9iUVs3yDy6YJWB0LdVYL8JB21lTfxXZQ0ulCkbYfrPeurt2U4E1S4BL7kARe1JOKIffiMtFhOb9kGkQT0obRViJ9aAQuaGFrMTdL7eqnu3kCTqz+z9BgI7u0wmBKy4J/My5rdxh7ziKMTol4GiaCSvQ3cPAUKpQdhiVfeDifpbu8mofGnXNmFsy/cRuOAoknUuKdYmZuq4F4gZXRVywQPtw6/qehHEI9W3sKxTLQyLfmrYprTJWNuGtcc78L9kBDZZr2niFJoQgdxEeHlzAsSSuurffvttZvnmGAvszBs3bohxoUlk0zUigUquJFJeqE1duXIFFDOYQr9R2SkUodQHhUmZqT3L1rlzZ/GakC8pL/kjoO1FlRbLDJwMrQ+lTIkGoaeMLKqm6/v6fDg6li0H//nxhgMi9Q/PSMCsZkrIFDUwMdsCrb9bu65O+hadPeUoE7TbwHqt3W/xf8Zz3LsUh1l+7pC5d0TEr/qKzFaBbTsHi2VDdv4yN3y4IDFb2KmRtKYnWk3ZiPCOxSDIK2H4zhwFm34kBL7j9pqIpa3Cic/rQiGvjHEHTFl0s/fbILDVt5bCz10Gt2Zh+DnNyEydtgdBZQTI3Npgvp4bi+X6vuFencAOxc6dX8GvWnN8FnPPqnZobY6qn2dkxdpuNA3xhiIDwgAAIABJREFUer0cmRe+Rtu2c3BB7/vHIE0r27DBOQ76IRmBvWfPHvEFwVZX+1x5bW8ACSJepEmArGUUipLEKv3RR1F4eLikPoru37+POXPmoFatWrpyNmrUCKdPn5Ym1CJYqvPnz4vXRnpWV9e8GNreABrPIp1FhcMTqkEuU6Jp2Nk8hU1m0naMqFcRvjOPWXYfyEzE/DZukMnLYeSPpkRhFoH0w+NFX+3K4/ZbZT1Pu3sM380NRr8AX/h27oOgkOn4tIU7hHwLbNs4WHP90uMmo5ZCgEfHCIjaP/Mi5vp1w/JbGXj0fV+UEgSU6h2FB6K+fY3YkO4I01eAukyyxbqiHr48aUoNWviY0AlYwx6C9EPBqCKXQV6yDj7074TOXbuhe2AP9OzZC7379EHf/kMxclIEjmqDXuvKYueV7PLJK7yHOqXlkAneaPXlITw20vz5ypUGqHbygqCogeAD2h7RNByd0gYDNxj1iOhnZGUb1j/FUeuSENhkHaMZCZVKJciHmJf8EyCmJISoC597BPLPs6BSoEGCFMZvyJAhOh/tt956C23atAFFhXGGH/2zZ89Ef2rtpDkk/imE2YgRI0Azq7ILQkG1hjdLt1OnTqLApvjjvNiHgDZMLIltaSwqHJ+S5RP8/lenLQpszaP9CGlRFR3yEtdUsczzYsxombwqgg9ZENj7xqCiXECxXlEwniPFmM/zYzPQplRJtPpsI84/0QrNNGwfUty0wCarrymrLlmXc+2znoNxucz+TjuE8dUVEIr3QOQjDV7HhuCjkbvwjE54vhsjKsshePphKcWWfrUPEwcvMxNL21R59XO1sN+cwN47GhXkMijJqqtFqZ+ko9Z15ZuB2KPzEFBBDkFeCu1mxOkmtMl/UbJDLMrlKDdka1a6z3djlN8XOG7kHmOQl5Vt2OAcB/2QhMCmKdDpJU7+qbzYjwBFEiGuZIHkRfoEMjIysHPnTnGiGnKVomtHH0gkoCjM3969e0Wfbfp4stdCYpms1NRWZsyYgY8++kjnI/7OO++gb9++4kyAf/75p72y5HTsSIAmmaIPMvKJ58V+BLS9AtJ5J2VNIuImk6NK8EGzVmTNkyOY1q4GfMOOWid8VMcQUkcBmbIZZiWYV3CZF+egpZsM8kpB2PXcAmf1r1jRuRgU1cfjkIEoMi+w4ybXgkLxHj4/rucXIGahQu591nGwUEITu14hZmQlyIVSGLDxOjZ/4q9noU5D3OSsD5umYWfweEcwRkY9MO0LDCpvTbEuU3LVhbK1sF8rYBvPgL4ruJa74NULkXY1F5vAYGlT+kEEV5FD+f5XOJ0BvDwXgZ5VFBDkpdFuemyeH12WkjbY9zoOIe/Rx05XrPw1A/fW9UPg0uumxw9oT7SyDWsPd+R/SQhsbXikCxcuOLLuhT4vEkUUk5hmKrOnKCv04CRQwdTUVDH8Xfv27UUBRWJb+/e3v/1NnKlv/Pjx+Pbbb7Fjxw4x7vTNmzfFSYYoGoJKpQJNBU3rNLiS/L5PnDghhgmkaB/kOkQxfykkpjZd+k8TxHTs2BGbN28u0lO9S6AJWFUEmoiLrhu52PFiPwL0vCS3KLrXpBK/PnXXMJQRBHj2/g4pJqqqeXYCs/1qwTfMBqviy60YROHhSgzEFkuhsDN+xozGFI6vJDovv2E4CE2/LOkHMM5HDrfmX+OCXjQ1zeODmNjIzYQFO2uKd7miGiYcNhbYpvflxUG/ONauP4/+BOXkcpTq0AUde63MchXJPjnj3Ex8oJRBUX0QRn0SjO1mQ3aYLm9OGbL3y03UNVtgK+pMgYE2J+5NiLsXOoQn6gZO5qT55mual7dxfFsEQkdORbRxXG7jZLP9vRW1JiMu+zKlXliOwMokskui9ZS9BvHC6XSb0tfll4nL8z+Eh+CGFmEbMDNgCDbkNQOltW1Yl4fjVpwusOnhRQ+xmjVrsggsgOtOIoxewGfOnCmA1DlJRxCgSVzOnj2L1atXi7085Lrh7u5uIIz1RbK16ySuW7ZsCZr5b/369aAPXBLmvLgGARKB9PHs7e3Nk8oUwCVbtGiReI9FR0cXQOq2J6l5uA7dvQQoG4TmnrHxRTwWBZSHolg1tPDzFwdR+/sb/++MUVHZk69kZ5+RQOJRgGfAt3mE/tMgec9ovOcmQCjeFKOiEvBMb6zi66TTiL+VDmScw8wPlBA8mmL89kt4+Pgezv8YjtGDJmDYR54Q3Noj/JreiXiJLQOLQxBK45MdhkHvYGafRQ62YxXP0DzdiP6lBNEXffAWo2gV6htY4ucpTjdfdYypwY3aTF9i8wBzdaFjtPtL4ZNoo7pmnEVYUyUEt0YI3nEVj5Lv4Myx80jWEPcxWdy9GiFovT53NZ5d3IqFq4+ZGHCpLZP5/6nRQ+Atk8HTbyl0M6ubO/z5BvT1FCCUHY7dej0TL+IXolM58skuhvqfrMMFvY80m9LXy1fzWyR6lqSY4N6oH7wfWm9svUMMVq1vwwanOeSH0wW2djDe/PnzHVLhopaJdsAOCW1eCg8Bcu24e/cu4uLiRGvzkiVLEBoaiuHDh2Pw4MFiCMD+/fuL60FBQfjqq6+wbNkybN26VYyxSm4h3Kvh2u2BolzQx9S4ceNcuyISLf3Tp0/F3iPJDB5V38Oabt4QcsUKzg7/RpOa6PV05V53Q/PZ5/WszxrcW9kFnoIXOi2/bbkbXrxG6bgZ/SU61ygGQZCjeLVm8OvSGR1a1Ee91kGIukYmazWSto5AvWJCVlkEBSp1mYfjT19jxyclxfNKvdcWXYM3IPHkYgzw/wA+nnSsAM8qzdBx4FLRRSIj3vw+mOWQj4akeYTInt5QVA/G/lyKToPf1gXCW1ETn8XqqUu97LLK2xSVPbLq4lGpEdp3GoDF2Y7Txvv165qVTAYuLQtAWXnWNRTca6H/ygS8EAcRpuFG9JfoWtsbckGBEjVawP/jj+HfujFa9gzF5ktvMt9FJi7PawWlvAqCdqWYcXmhkqnw08I+8GtaGR7UvgQvVG8ZgKErErLHAWjw7OR8dK6ogKAsjYZDIyE2A1ibvh5E3eozRH9aAXJlE4SdMe+2lHW4rW1Yl4lDVpwusCdNmiTeiBQCjBf7EyARVbJkSXEQqf1T5xSZABNwFgH6qCIRdeDAAWcVodDnS6FjqYdAGgN7NUjZMRyV5cXgH3HLCkGcx+VRJ2HVx8UhLz8Im5NtCAeR+TtuxR/Cnuho7Np/FD/feGLkuqBBatLPOLAzGruPXEKy3TvF7MxBxKRByoUYbD9xV+8DJIef5sVlHNh2FHfy0ns5p7zBmgrJFw9j5/ZdOHIlJXc5NK9w73wc9u7cjuiYOJy/98qCMM4je/VNLOnggeJ+S2Ep/Hkeqeh2v759Bmfvvc4pTz7TT791BFt3nUFe3iF40zasK3nBrjhdYFOkC3IRkcYDjByHnuNKzEqEjR+Kvt274uPAfhg2YQaWbT6KW1mfk6avCJ135LSB75bpAx2/tWfPnqIlxhkRKRxfW86RCRQNAh9//LE4IPXf//63NCr8ps9OXelTcfvEKdyyuyDTZWDzyoQJE8SPmOvXr9t8boGckJmIbzoUh1vjqThtMPOg7bmpEmajhbsn2sw9bySQbU/L4WfYkYPDyy6BDDPOz0Zz75aYdSafjchMXQo6fW22Um/DThXYNABLEATJjIDXPDuJ8MDq8CzXHAO+CMf6zdux9fuVmBMciIalFVBWHIiNWcEwtdcX6t+vYt+3U9C7cRm4VRyNveYjHenOcfQKDWojSxdPP+9o8pwfEygYAmSQoOnp33///YLJwMZU3+TZaZCF5jF2j6uHYp6BiMwrDpzBiQX7Qzs/Aw0mlsqSljAfH5Uog26r8mHFVichqm95FG81E/FG7sBSqWde5bALh7wyKYz7NSnYGVQPvvPOwbTDSz4rXdDpa4vnAm3YqQKbBt6R8KOR8E5fNI8Q/WlVKMt0RcTl3F91GXdWoludsdgnCmgNHsdHISyoExo39MOnoz5GdYUMyvqhMBlf3smVo8FrxDksLMzJJeHsmQATsAeBhw8five0JCaSsunZaar2GqTsHYc6SgGCh7QENvlh07Nz2LBhpgrupG0ZuBE1ADUq98K623qhOqwujRr3Ng5E1Sq9sPqKBC1CVtcjvxyszqhwHai+g2Mx5/BEf6ypPWtY0OmLZXWNNuxUgb1lyxbx4bVt2zZ7Xt43Skt9OwL+ngpUCz5o+qsu/RAmdZuNc6IPViaufj8V0yJP4H46oL6zLGs60zbzUdAzlr5J5V68eCFyHjp06JuczucwASYgMQI04Q8JP5r509mLbc9OE6V9HosQv34ICqwAucQENo1hoQnQKD68tJaXSFjRB407L7X5naO+sQqBjbvjm/jnOT6z0qqcDaV5cw42ZMKHSoyAq7RhpwrsefPmiS8JCkHm7CVdnKnKDa3mXso9uEAsnAovfk81ObBE/WsE/N1l8OiyCvdtGCviqDrTS4LCurVt29ZRWXI+TIAJFCCBDRs2iM9OioHu7CU/z04gFSendcKAyGvYM7K85AQ2sa1WrZoYDtHZnHPnr0Lyb48tzuqY+xyavfEJ7j90Zcu1ca3ekINxMvzbdQi4SBt2qsAeOXKk+JKQwvToqqMhqK0QUDwgAjdt7HXTCmzPfhuhFwZSUo2VJk2oXLmypMrEhWECTODNCMyePVt8dtKMg85e8vPsTE+Yhy49luNaZhp2Dy8jORcRYuvr64u3335bOgPxnX3BOX8mwASsIuBUgd27d2/xJSGJaZhf7MPY6goxYHq9vmGI3BuPqw9emrFmG7Ilgd3RXYDX4O3I7b1teKyzfrVu3RpeXl7Oyp7zZQJMwI4EJk6cKD47KZ6505c3fXZmXkNEYADmJpA1NQ07PikhSYHdr18/kTVPwuT0lsYFYAIuRcCpArt79+7ig0saE15o8CBmClqXlkPQBusX5PAoXR1NOvTGyKnL8WOiaZ81rcAuPkS6Apum3CY3EV6YABNwfQI0uQz5YCcnJ0ugMm/y7FTj3vcD4TvlSPYsdGnYPthLkgJ7yJAhImvJhEOUwBXnIjABJpA3ARbYRoxUj85hR8RXGNmnI1q+VxFeiuwZqWQyCJ71MXL7vVx+2K4isN99912j2vJPJsAEXJFAcHCwhAR2FkFbnp2alB8xtl0QonUTnKRi8wBPyCQ2yJFqRjOj0scMhZXlhQkwASZgLQGnCuw+ffqID67MTBudnq2tnR2Oy3x5Hxf2r0FIRx8oBRkU1YJxwGgqVVcQ2OwiYofGwEkwAYkQ0M6Ae+/ePYmUKHcxzD87X+P09I/QfcVNPWPFC2zsJ02BrXURycgo0Gn8cgPkLUyACbg0AacKbIrhSpaBx48fSx/iq+P44n0lZMpmmJVg+KBV36YwfQKk7CJSo0YNiY6El/6l5xIyAakRoLkD6Nl57tw5qRUtd3mMnp3qm8vRpXZPLIqJRWys9m8Ppvm6Q+beDqE7adsRxN8xsmTkTtkhW8i97p133oE0XBkdUmXOhAkwATsQcKrAXrhwofiSiI+Pt0NVCjqJdBweXxVyt+b4+oKhxT3z6iK0dRNQbNBWSQ5ypBcDvSCkF8u1oK8Zp88ECieBzZs3i8/O7du3u0AF9Z+dr3AspDYU2nEuZv8r0WxWgu0h6AqARpUqVUAGCl6YABNgArYQcKrAppcDWWHoZeHsRRUbhkkbH1oIvJ+K3UHloPAZjRgjw0rm+dlo7iaD54DNkOKss7///rvIWVqzkTn7inP+TMB1CZBRgp6dCxYscHolbH12vn50E4mXL+Oywd9pLOhEFmx/zDtJ+xJx+4nzYzXTlPQKhQJ+fn5O58wFYAJMwLUIOFVgJyQkiC+JWbNmOZ1a2u6R6DTngtmwfJr7P6B/RW+0m38eKqPSZpwKRQOlDFKNg03dyPQypti5vDABJuD6BMitju7pESNGOL0y+Xl26gqv+Q2runpA5tENax5JZ7YuitIiFc46VoVxRZUOlbnLbmlfYWShXycn1J3DUepfgPytO1Vg/+c//4FcLoe/v3/+amGHs9N2D0f5at3w9e5E/G7gAZKBx+d+wIQ2Pmg4YhNuGbpfizmnbB6I0oIM7h0W46baDoWxcxKLFy8WXxIHDx60c8qcHBNgAs4gQG5fJUuWRJ06dZyRvUGe+Xl26hLKOIewpkrI3Fpi7i8GD2DdIc5Y0fayrl271hnZW8xTk3IKETPW45IBLjWe3z6NmC3fYX3kBuw6fgO/G72TMq//gLDwWDwy2m4xswLYqb69HxEzQzCiV3vUKdsIoadyXq6W9hkXxTQHAK+uIHrOIux5mKPcNSlnEBkWgaMvjVORzm/LdX+N+2d+xNrZ4zFr16OsHnfNC9w+EY3lU4MRHmfUvW5VtTJxM2YJwiYHoVe72ijbLAxncy6FyRSk0oZMFk5CG50qsIlDs2bNQOHj/vvf/zoVS+YvazG0ZSV4CAI8y9ZEozb+6NrFD63rVUKlJr0RuvECnufcp0DmL1g1LADtW74Pn+LZsbMFL1Rp0g5+3UKx+7H+wU6tGrp27QpBEDjMlHMvA+fOBOxKoGfPnuKH8x9//GHXdG1NzOZnpy4DNe5snIie3brAr0V1FBdkkMkEFK/WHH5de2LSpjt6UUZ0Jzl0ZfTo0SLjO3fuODTfvDLTPDuGGe3qoNvyS7pxP5oX57A66AOU0QstKxMUKNfuc/x4T09Nq65hbZ86aD5pL/S0Z15Z2n2/+tE57N0RieBmbpAp6xsKbAv79AtiioO4X5OMH8fUReUBG3PqqL6NyN4+qDcxNjv2un5K0lm3xAWvtmFwCQGCpy++uZb1ZaVOWoFO7jLIy/TDhjfq/VHjwZkYRK8ZjSZKGZRN8hbYkEgbks5VM10SpwvsL7/8UnyAXbhwwXQJHbpVjZf3f8FPB3Yjeus27Ig5jPgbKblcQhxapHxmRj6ENINjw4YN85kSn84EmICUCKxYsUJ8du7Zs0cCxSp8z06CWqtWLZQqVUpaEUQyrmFNLx9UGbABSTrdrMbd5Z1Q8r2+mLfrAh6+SsOzGwexqHcNKAU5yvSKhL7G1jyMxrAa5dEl4jKc6+mehl3DSkMwEthZDdrSPgAmOdCZGqTsHYNabnXx+Qlt7dRIiuqD8p6+WHJDB00C9425IqRh9/AyubhknA1DU6UcVYJ24mm2DS9t/1hUlivRMPQn5CtSe1o0hnoL1glsoiyZNmSOofO3O11gHzlyRHxJzJw50/k0CmEJzpw5I/INCQkphLXjKjGBokvgxo0b4r09fPjwoguhAGv+4MEDkW/fvn0LMBdbk1bh4iJflCgRgAgDofgcWz/pgLCzRiOEnu/F2BoKCF598H2Kfl5q3F3XA2W822P+ea0I1d/vqPV07B9bGXKTAtvSPnMcAKjOYXZzN8hrTsZRLY4XBxBcUw63duG47gr6GqbqnonEBR/CvVQXrNBd+3TEhdSGm89QbHsj67XedU6PwagKcqsFNiCVNqRXB4mtOl1gq9VqlChRApUqVQJZW3mxLwEaBEWDdC5dumTfhDk1JsAEnEqA/LDfe+89eHp6ggcm2f9S0OB7enbu3bvX/om/YYrqO6vQrZQCVUbF4IV+GpkXsOKLVbhs4I9NB7wUJ/ARPLpjnW7WzOwTUw/js1pKePsvxdVc5+knXpDrKsR+Vh0KkwLb/D6zHKDBk61DUF6QwXvAlmxGatxa3gleMjlqTopzkR5pFQ5PqGbIRXUWYc3KIyAiMSd85fMYjKlZDYM35Z5h2uarln4AwT62CGwAkmhDNtfUYSc4XWBTTSdOnCg+yE6dOuWwiheFjGjmMXr50kuYJ0koClec61jUCGgHMG/ZsqWoVb1A60vPy8qVK4vGHzICSWNJw7EpdaFQ1MTE2DTriqROwooAD3i2W4TEXCJahZNf1odSUQ1j9xrI9TzTznxyETHrl2DenLlYsGQ1tsZeQYpR+ukPziHmuwgsnDsfS9btwpmHWnOyfvIqHAupYygkdbvN7bPAQX0LEf6lUKFRZ0zYlD1TqCoe0xqXQJUWPRC277FRKF41Xt1PwL7vN+AYOaSrn+L8ztVYvHg1Dt40suxrXuBG3GasCl+AhcvWYvtPSf+fvesAayJN/7m5XC4HB5xwlsW2KvbeFruuDQsqYkGsuKtiw64r9q5rx4IN1xVdFSt27IquoqtixYYNT1RO4ISDY3O5/+//vBMSUiYhCQGS8M3z5MlkZr7y/r4vM795v7cImmQYJ7dKyOydVDw9/wtCVy7HqtBwHL/9GlEUL1714iHD062D4TX+AF6qpmMGYpb4wHv+OXy0hMtXRhTGV5EIa7AzEvE09i7uxsYhQWPqmT+HtBGwx99WQbDv37/PE+zBgwfbI8aFJpMyGQU9hNnGEGAI2B8CHz9+xB//+EdQtkG2WQ6By5cv888kUv5YzZYSiVGVxBCXG4HDRiZcyLq3El6lmyL4bJKgGOkng1BZLEbpgH34JHiF1sGUBzi4eDh8ew3CqPHjMWpQF9R3l4LjnNErLJu8psTilx964JvGHdBr4CD09aqHUhIO4lItMe1oduQLVbUZuPhDHTUiqTpBth7C5wzikIHEhI85Gl6+ulS8T0jWcZjNvLocvs2qojg5hRKRPf8Qe0c2hAs524rLYWSkkknKkXh1M8b38cPEkP2IOh+F/SEj0aKkEyp3X4Sz77PZrUlyK+XMxJtLoRjbyRNt+oxA0LhA+LWpDBdxMZQq6aRhg52elKRyaFWWTv2UpCWr8owZ3xlRmFhNgGCn3sGWATXgVMoT/Savwakchs83YvIcMqNrtlrEKgg2gdekSRM+ZN+rV69sFUur6rdcLucddCiDIyWaYRtDgCFgnwgoo4lQXgG2WQYBynr7hz/8AXFxcZap0AK1ZJydjOoSERy7rldzbtStOCstGZ8/JeDR+c0Y1a4tgiKe6SVh8nfb4OvMQVxxNI4p+aRulfyRrPj9CPKsBb9N9zWInizxPKY3r4kJUQoNdfrp8ajVYTliVaHesvDq8BjUk3KQ1gvGZQ1Fth4SzbcofM5YHPSIoXU4BREBJcFJKqFdT38ELgvHoYh1CGzpjRV8lA45Ek9OgadbJQzdm6Cm/ZYhfltvlOLEqDziID7IAdPkJi/Btzgxoz3KlemExdGf1OpOxaOIyWhdUqwTXUWr85b9KUCw5YkXsaRbVdTouRDHn2tp9LNbN2UOWbbD1l+b1RBspbPj0KFDrR81G+jhnj17eA3M1KlTbaC3rIsMAYaAuQg8fPiQJ4MdO3Y0twpWTg0BMlUk22t/f3+1o4W9K8OzkM5wFIlRNjBSf+QP+SuEDWmC9j39McCvG5pVcoWbR1P0nhKGG58E7AiyzQJEDm2x3JAhtuwFtvUuBQdPoRBu6Ygc2wvL7ylsRLIe7sGmY1pZkbPuY/m3DhA5dUPoK/V+CJNoBdpC54zEwejhykDUxGqQiBzQfEGMyj47Iz4OL4hPZt3F0taOEJcfiUitEB3yhK3o6cSBKzkIv3wCTJNbjsQDw+EhlqLBjCuqdnO6rc88JucKi+9pEey0B7swpkUD+C47hwSVWYpAq8bOIYGi9n7Iagg22bw1b96cX+58/vy5veOer/KR9rpq1apwdHREUpLw0mC+doBVXmAIkJ3927dv8dtvv+HUqVMIDw/Htm3bsGnTJv5D+7t27cLp06d5R1fKAJiVpWUsWWC9ZQ3lFwJ+fn48KaQU6mwzHwF6DrVu3ZrPG2Bdsa8zcTm4HqQiKeoHX9GrkdaRPPUuNvXzgEQkRrl+P+lqvjNjML+pFCJJNUzM1kDr1AFA9mIDvJ3FcB9+SEN7LXStzrHMJMTfOYv5Xo4QOXZGyDN1tiZEopU1CJ0zEwdllTrfGbg4rQ4k4ooYe0JXQyuLWwMvRxEcms7FtTT1FwMAaYcx3J2DyKE1luoauAOG5Ja/w45+xcFRu8d129VrHqPTfwseUBHsYBw4MANeVZphQmR87nPNyDlkwZ7aTFVWQ7AJsYsXL/IPCcrsyJzyzJ9DSsen4OBg8ythJa0KAUrERGHZyJmNViVIW0nxeUnTZs7H3d0dXbp0Ac0RylZHZIJezNhmmwiQKQMlk6pfvz6sxynP9rBUZm60Pn8gRVQJsUgKz7nXcyc9atBnxS5DGwcROCdvbIzX+o9nxWJpaweIxGUQeESI6CkqSj89jrfVrjj2uH7tuVqbac/P46fFQfDv2gEdvP0wfMpsfNfcEVyeCbb5OKh1T203m8RL6mL6ZZVNi+p8+qkgeIhFEJeohTadusC7uw96+vZC79590NfPD/36ByBwUgjOZQelNlrujHOYUkMCkbQJ5sXotssT7Gm19dimq7pn2Z1sgi0uVxu1Sokh4tzQcvop5Jozz8g5ZNnO2kZtVkWwCbL+/fvzhGHnzp22gaCV9fLFixcgu+uvv/4a6en6b5hW1m3WHQEEnj17BooPT0mC/vznP2sQaYlEggYNGoA0l0FBQVi4cCE2b96MgwcP4uTJk4iKiuI/J06cwIEDB3htNoUdGzt2LPr06YM6derwPg/q5JzmDflCLFmyBBQDmG22hQC9eNF40vixzXQEKCMmhYylxFwfPmgEjTa9MouXyMCFqbUgEZFJQbRJBBtpB/BdSdK0tsOKB+raYzKBuMnHjBaJKyPolP7nRfqx0Sgv5uDSZzuUPn36REw6PwetS5ZAywnhuPleSR7TsG+IqzDBJg2yKlqGeq3Z2mWNc3nAQb1q1b5QG6qTSD86CuXEIkgbzcJVpSg5pzX2TJI7/RhGlxdDJKmFqRc0jNKz68zAmUnV9OCi0azlfqg02HMQdW4JupYTgxOXRNs5Z1VJbQQbM3IOCZa184NWR7Ct+yZn3bOBtP5t2rThH7Lnzp2z7s6y3gki8P79e6xevRqNGjVSEWp64Hfo0AGULIgiw5DNrSW0lGQqEhsbi59//pkPlfmZJWewAAAgAElEQVTtt9/CyclJ1S6ZbG3cuJGZGQmOlPUdJHOhypUr8y9jT548sb4OWnmPBgwYwM9961TuKJKMOIjE8Ag6qaVFzsTVlcHYoWF6kQO2PHE7+rhwkNSYjDPaHDrjPKbUIk1qU8wX1KQq6sn6bRFaOIggrjAcBw1ZHcqeYb23CyRVx+GUhs2yfoJ9dnINSCS1MU2HaGZA95whHHJkNn6P2qjOty9EdJVyc8X6IMyQKtdUubNuYWEzB4g4R3RclR1OUKPTSfhlYHFFFBEBzbrGpZb6kX4SQR5iSBvMQHQmkHwjBL09JODEpdB2dpT+Fysj55ClumlL9VgdwSbwlMt0RCpoaZxtxiGwbNky/gHx/fffG1eAXWUVCKSkpCAsLAxt27blndVIC0n28wMHDuTtqi1Bpo0VlEj3kSNHeC23VCrl5xOFgevcuTNvy52WlkuoAWMbYtflCwLR0dH8mNWrV48lnzEBYfJdoP+dNZsnph78Hu4cB+e+P0FTvy7Hq02+aC6YKluONzv7o4ykLHw3CxC55D0Y5MaBKz4QvxgKhZ15DXMaUzi+EvBe9wh6vTjST2BsJTEcmi3ELbWL5O9OYmIjBwENNmUsrACxpArGn9bW5Aqf04+DCQOuulS4DdVpkvsbkrsYOq6IFXBGzL7SDLkvkOZexEFaeyyOai0LZD3djJ5kpiGphSnntXFR9S7XHXnyE1zYG4LgwJmIoDjfhrZsm3J6ETub3WTqrXXwrUgkuwRaTT2KV1oLIHx1xs4hQ23b6TmrJNikiaVoInTDmzx5sp1Cb1mxyCyAwkpVr14dX75oqA4s2xCrzWIIUAxjyrRJ5h401//0pz+he/fu/AumNWTmo3lE2jwvLy/e+Zj6SGYkFBuYXgrYZp0IzJ49m59PZD7EfFlyH6Nbt27xWn/yS0hMTMy9QCFdIX+zFT2LcZDWD8YVLXOFzJj5aOrWCIE/30aSGo9KvhUK/2rl0H72aUFb2syYeWgi5eDcdYOuA6SGnHIkHB6F2g4cOFdPjNweg49qZOvLi2hcjUsHMm9gXhMpOCdPjNt3B2/exePmkRUYNWg8vm/vDE7HTCUZvwx0BceVwtD92sG9hc8ZwkGjy0b9SMbuAfrapwpI7tEKuYs1wvBt6nLL8PG3Pfhx03kkmyw3IHuyDX3KiSESiVG6zXhsOXsfb969xr2oUEwMCMLEvlUgEZfBsIPauBglGH9RasQQuIlEcPZaA1V2dX3Fk3ainzMHrvQwHFKjEJ+v/oguZcgm2wX1hm7FLa0XMePnkL6G7fe4VRJsgps0aWQPSg910i6wTT8C5KBGGRv/9re/gUVg0Y+TtZyhpfzFixfjr3/9Kz+/v/nmG2zduhXJycnW0kWdftDLwPr163nbbfpPurq6Yu3atfj99991rmUHCheB//3vf/yLGo3T0qVLC7czVt46EWoi1uTjcPPmTevurSwem33cwDl6YXWcGrulXn+JQrBnSUg4CdyqNIVXdx94t2uM+m0GY9GROD2RP+SI39gNzlwxdFn3RCcRiy4Y6XgcMR3e1VzAcWK4UjvdvNGxeT3UbTUc2/m40TK82DMCdV04/t4m4iSo0G0JLiR+wf6hJfhyJWt/i+5BOxF7eRUGdGqCSs50LQdnj6boPHANrmUCmVf1n4MhHHQ7rfeIog1PVHRStO9UoRHadRmAVTrG1ml4FDEd3Wu6QcxJULxac3Tq0QOdWjVGi97B2H2H7tvGy50zdHJ8jA7B4IbFIabkNuSwzknh4bMclz+k4/L0uryG26FMPbTrr8BFrzCCJ7Jwd0lLSMUeGH7wg1qcbe2LM3DpRz94eVaEE/WDK4aqLboiYH1Mtq2/HB8vL4V3eQk4aSk0DAgDP9R8NabOIe227fu31RJsgl158yMNH4UgY5suAhSijRwaKYIAObaxzXoRIOJDUUDKli3L30wrVKjAOyDakpaRZCCbbSIl9EAgm9/IyEimKbWyaUerD7SaRataNF5s00Xg8+fPIFMamse2gZEcH/YPQ0WxCzqFxOkSYnkKXtyIwuF9exBx+CSiHybqN2kgOGQvENrDFeKyg7A7QU3trQuV5pGsT4i7egqHIyJw8Pg5XHv0XqsdOVJfXMOJAxE4dOYOEsy3cNBsV/UrFxxU11l4R56C+JtncfTAPkREnsXN+BQt0mqm3LJPiIs+jv179+Jg1B2o/ELz2n3ZY6zu6ARXrzUwFOLc2Ga+PPkV1+O/aMps7hwytlEbv86qCTZhS05Y5ORFGgaK5cu2HAQSEhJAJI0eEBTvmG3Wi8C1a9dAmmoaKxcXF6xYscKm41H/+9//5iOcODg48DJR7OA7d+5Y7wAUwZ5RVlx6mSOSzVYBNScArRZRSEP6P1KkHpvZsmKxsqMrHBrPRHQe3SEyYhaguaMzWi++qUWQbQANC+JgA9Ka1cXMmwvQzK0F5v+ax4lioHWbnkMG5LLUKasn2CTo7du3efMHRrJzhp001xUrVuQfEFu2bMk5wfasCgEiooMGDeLHiZwFKUweRcqxl+0f//gHAgICeBJHRG706NE2/eJgL+OilCM+Ph5lypRhJFsJCADSXFOISyLXc+bMUTtjG7tpMUvRvrg7fEIFtNjGiiB7ge39ysK15TxcNd/E19jW8uU6i+CQLz2zgkrlH3BgeF10WHIDaubUlu2YHcwhywKiW5tNEGzqNmWqI80fkZSQkJAivSRN2dooXis9IChjH9usEwHSIFK8aRoniohDyUDsdbt79y6fiZVkbdq0qVU7i9nrGOiTi2Ljly5dmp+HM2fOBJn5FNXtwYMHKsXErFmzbPQ5kolH2wegWsU+2PpELVSH0YMqQ3z4QFT26INN97Tj9hldiRVcmFccrECE/OqC7CnOR97Aey1Tfcs1Zy9zyHKICNVkMwSbOk/xf5Va2yFDhuA///mPkEx2fYwINb1kkLaQiAzFRbZm5zi7HgwDwp0/f553BCTCOXfu3CJBaiik5oQJE3giRzbaMTExBhBipyyBAJFlin3fuHFjPrunr68vKAvhqFGj+IyflFyIPpR8pnz58vzYdO3aFf/6178s0bxN1UFJmCj8Jd0/161bZ6PkWgl5MmLW+6Gx9xoIZelWXiX0LXsUCt/GPbHyapKmPa3QxVZ/zHwcrF40K+6gfc2h/APapgg2wUBkktJEE3Ghh8q7d+/yDx0rqpmiqlBIN5L7q6++QrVq1fh9+k0Oji1btsTy5cv5lNdW1O0i1xVyWKREMTQmFCWEYkoXtY1C+5E5Fzkn//TTT0VN/AKXV5kghe4Fhj4zZsxAv379+GuqVq2KopKMhl5CSHNP2Pz973/HpUuXCnyM8qfBDCS8emdaVkfqSNZ7vHxjy5prbTTNxEG7GvbbeATsbg4ZL7opV9ocwSbh5HI5pk2bxt8wS5YsiePHj9u4NsLwkJFpAWmr6QFByUiUNrxk/0rpsUkjpUwKQtdQZAeKVXzx4kWLZPwz3Dt2VokAkWuyQaYx8PDwwOPHj5Wnitw3mXSR7S9hYbtL8bYxbKSZJZwNfSjSC200R1euXMm/AFLWTnJ+tGeTEfJV6dKlC48NOTW+efPGNgaV9ZIhwBCweQRskmArUd+7dy+UUQzatWuHe/fuKU/ZxXdSUhJP2GhJkx6e48eP15vZkhKTHD16FMOGDUOpUqVUD1uKjU1aKwoPx5KD5N+0UCfXrVq1QmqqjXoOWRAiip1ty85kFoQiX6qiF2xKZU8p7vWRa8olILTKd/bsWZUJE60Ekl+HPW0UpjA4OFileOjfvz/LbGlPA8xkYQjYAAI2TbAJXwpVp4zSQHbJlCbcmrNxGTMnyLaczD0oeQw9OD09PfHrr78aU5S/hjRSlJ2MPOSVoaioHiLqFE6NNFjPnj0zuj52oWEEiFxTdBDCmMg1RQ5hmwIBmw2HZoUDSPOMVrPInloZ8pHmnFgs5k0faJ8+dB+kb1rFksn0eznRSlhQUBB/X6Dre/fuDYo6Yssb+QFQVKUSJUrwGNSoUYOFd7XlAWV9ZwjYMAI2T7CV2NOSNJEbelCQI8vChQttTmNBD9D9+/erYluXK1cOpKWn43nZSINFzpG0VEq2sYQRfapUqcKnor98+bJezXhe2i0qZWmuEZ4tWrRAero92TZaZgSJZCsTeoSGhlqm0iJSC70sX79+nTeJo/+r8r9L9v19+/bFnj17+NWSsLAwjXNkNmLsRrbY3bp148v/6U9/4u8JtrgCc+bMGdSqVYuXg6Is0T2PCDfbGAIMAYZAYSBgNwSbwCMievjwYVSqVIm/yZIN6IYNG1Q2y4UBsDFtksaa+t2sWTO+32QbSSmOKaW2pTfSrpI9Jmn6yX5d+cCmZD60jEqE3hYfrpbGydj6CEvCkB7saWn5F9Df2P5Y63WkLaWMo6RtvXLlirV20yr6RQ7NlLmWnJrV/6O0T8foHF2jvn369Imfh5S98fnz5+qnjN6nyDd169bl63Fzc8OyZctAZijWvBGBpgy2nTp14vtNCoTp06eDTETYxhBgCDAEChMBuyLYSiB///13PpID2R8T+aGHOmlvKaSdtWgYyVGTHmjfffcdH9+b+kmRJwIDA0G2qwWxkXbs5s2bvBOa8sGqxIvsOikaBsXQZZswAuTESJpEV1dXvHz5UvgidlSFwP3793mfCdIukvMZ23IQoLB59HJLWml6wab/IX3IWXbq1Km8Fjs3Z8T169fn+aWc7ksU+YUiFVH7ZG5CYQC3bt1qNT4cpEghrT6ZZSnzAVBfydfk9evXOaCyPYYAQ4AhUIgI2CXBVuJJWgwKGebl5cWTV7oJk1Okv78/H3mEiHhBbvRgIFMWso1UPsCoT5SMhLRFhe3hTqSHnKZIG0Qh1qhv9KGQgPSQj46OZkuu2ROGVh1IW0h27fSixDbjEFBGvCDnOyJzRXl7//49b8ZA9ycyzVD+38jpcPHixXwUmryah5mLL62eHThwAD4+Pqp7AfWxR48eiIiIKBTzO3qhpVCDFSpUUGFFLyAUZ/7p06fmisrKMQQYAgyBfEHArgm2OmKkFabkAvRgVz7ISPM4cOBArFq1iidJyvB36uXysk+RPUhDTNofCt9G4fOUbdNyOT0sKHmONW6k6SezlaFDh6ochqjvhBnF3d23b1+RTFahHCsaO8Jj3rx5ykPs20gExo0bx2NHKyRFbSN7ZzL/Isdl5b2AVtgo0ye93ApF/ChsjCj6ENl4U4hQpQMlrdz06dOHVwycPn0aHz58sGg3yQSGsoPu2LGDT16kvsJGUZIooREpKwrrBcSiwrLKGAIMAbtEoMgQbPXRo+X8RYsWgTzMlQ855TelFCZzEgrxRE4yhw4d4kNYkYaEwubRw4Y042Sn/PnzZ1A6bCLRFIt7+/btvHOln58fr/Ulkw9lvfRNy5m0rEnLm7b0YKCl6Rs3bvAvBLVr11bJRMSAHrpr1qyx+egD6vMjt3168JPmmrAo6FWQ3PpmC+fp5Y1eMP/yl7/Y/bxR/nd++OEHUHIX5f2AHLEpageZrdlS+EzSutOLUcOGDVWyKGWiyB30ojBlyhT+ZYE04ORATZFPyEZcee8kcxi6d9KKHZHkkydP8kSaXjxI4UH/K7q3KOulbxcXF96cjlaLivrKhy38x03uY0Y6MvQtaBk6Z3JDNlagEGQnxSDbLINAkSTY6tARaT537hwfuo7C/Qnd3NVv9Mbu0zImLa/S8iVl8yMibkukWh0j7X16MJK9J2XUVDclIZMJSgBEMXXt9SFIhInIBb08ETlgm3kI0H+O/ktEyOxto5cucrwbOXKkhikYvWBTnPoTJ06ATIxsfSMlAzmshoSE8OSXYp6rRyky9l6pfR0pOSh5Fq0SUVQlCilqr/eTvMwB+YcrCJmzDXc0/V21qkzFk4tXEKfGmbIe/oy5K6LwVn8ER6068uen7MlxhMybghF92qFW6UYIvpLj1G/onHZv9OKQcg8Ri5bj8Jsc5i7/8CvC5obgXLJ2Ldbz27DsX/Dy1yPYsmAc5h98q0h1L/+MJxcjsG5mEFacTTFDkCw8jlyNuZOHo0/bmijddC6u5wyFYH3WMocEO2dFB4s8wRYaC1qepKQ1tPRJNtwUN5qII3nwk1Pi4MGDedMJeljSUiXFpd22bRuf6IU0vaShKSobRc4gu9ohQ4ZoxOKlKAT0wkIPSHvy6KcVDSIEtBLBtrwhQFFrCEt7SF1Nc5zMpsjRThm/nmSjiEak0b127VqRIIkUd/vRo0egkHmknSdtN60Gqt87AwIC+BcNMhWilUSKW01KCMLI0mZ6eZuh1lta/vE85rStBZ91d6A3dpH8HQ6NrQsXZ1+Evc8hmch4gC1+tdBs0lGocc8CF1b29gaO7g9DUFMHiKT1NAm2gXPqHdWLgzwBR0bXQcUB4Tkyyp4grG8l1J0YBSvm1zCEC1L2YnBxDpxzB6x8oHizkr1Yjy6OIojd/bHzrdo4qwNlcF+G179GImLzKHwjFUH6Te4E21rmkEGxrOAkI9hWMAj20gXSMpH5Cz1QlfFoiWSQc1T79u15TRdp8m11I+01yUWmDZa2ObVVTPLSbwonR6Y2FL/eFld3aA5s3ryZdwpWd1KkFQ6KjU7+FbYoV17GlJUtAAQyH2Bzn0rwGLATL/RqoeX4cHQsakk5cE5aBBuA/E0Evq9WFt1C7qJwI/en4eD3pcBpEWwFiobOAdCLA8k+GjUc6mDaRaV0MrzY7oeyzh2w+pFe0Apg8IxtIg2Hhrnr4JJ5fS48pWJ4DD+AxGwunXZ8DCqKpWgYfAl5Ck6ZFoEAN844gm1Vc8hYTAv+OkawCx7zItMikWlyLCUzAHUCUrNmTT5WLWWntKWlX9JQ0gvD5MmTi8wY5regpM0kTG0lEguZK/z4449o2rSpyuGPXhLatWvHm02x8IP5PWOKev0Z+G15BxQv3hUhhohiUhSmePljuG85iAUINiDD86294O7WDktvKkloYWCbjuNjKkIsSLANnTOAQ8YNLGjmAHH1yTinNI35fAJB1cVwaLsCD22BX0NI9izELmsDx5LdsF419uk4O6UmHCoFYK9Z2mu1MU+PxMhyYqMJtvXMITUZrGyXEWwrGxB77Q4toZPTE5nXkPkIkSr6/P3vf+fNS8jMxNoTtVAiIKlUyjts2es4FbRclJqbIlN07969oJs2qj1atSAnZlqVIR8D5bylcJ+9evXCrl27QJkq2cYQKAgEZE9D4VNSAo+Rkfist8FUXJ7VBQPCHuBwYFk9BBtA6mlMqCGFW6c1uG/QjltvQxY4kYGoCVUhESTY+s/px0GO93uGoCwngtuAX7IxkiFuXRcUE4lRfdJZKDm3BTqfj1Vk4PT4Kpq4ZFzH3KZl0TUkFioT6aRIjK5eBYN3xSPP7w3pJxBUyRSCbS1zKB+HIY9VM4KdRwBZcdMRIK012VtSZAX1SC7kMEmOk6T1traEEWTOQOSKbGzZZlkEyHyIokZQpAlr2MhJkWyIR40aBXd3dxWpppdB8sE4duxYnhO6WIOcrA+2hkAazk+tA4mkOiZG6bW8RnrMEnTrtQ4PsrLNDAQ12CR7Bi5PrweppArGHNVP14VQynr/GyK3rcaSRYuxbPUm7Im6hw9aJD399Q1E/hSCHxcvxeqtB/HrGyFqm4HzU2ppEklVg/rOGcBBFoeQTiVRrpE3xu96rCCdGVcxq3FxeDTvhbnH3ikcA1VtyJDyMgbHduzEeTJIlyXi5oFNWLVqE04+1tLsyz/j0dndCF2xDD+u3YJ9l14ImmQYJ7eqA9k7qXh6/heErlyOVaHhOH77NaKm1FTDRYanWwfDa/wBvFQx6QzELPGB9/xz+GiO6bV2FzKiML6KRFiDnZGIp7F3cTc2DgkaU8/8OaTdvD3+ZgTbHkfVxmSisIlr167ll9nVw3ORvTNpDsmuu7BNSWbOnMkTLYoOwTbLIkDOcPTyQuEeC2uj1RNyyCXHSwoJp9RUUzSgSZMm8UmWCnsOFhY2rF0rQSAlEqMqiSEuNwKHU/X0KesBQny7YnEMkcM07B9aXNAGW1k6/WQQKovFKB2wD0a93qY8wMHFw+HbaxBGjR+PUYO6oL67FBznjF5h2eQ1JRa//NAD3zTugF4DB6GvVz2UknAQl2qJaUezI18oO4AMXPyhjhqRVJ3gXwAEzxnEIQOJCR9zNLx8dal4n5Cso+HNvLocvs2qoriEUzhZnn+IvSMbwoUTQSQuh5GRSiYpR+LVzRjfxw8TQ/Yj6nwU9oeMRIuSTqjcfRHOKh1ITZJbKWcm3lwKxdhOnmjTZwSCxgXCr01luIiLoVRJJw0b7PSkJB2H1tRPSVqyKus14zsjChOrCRDs1DvYMqAGnEp5ot/kNTiVw/D5RkyeQ2Z0zVaLMIJtqyNnp/2mCCyUKY7i4VJSGyXRoRBnZK9LUTwKOt09OaqVK1eO12YykmX5iUdxVyk9OIV5K8iNkk9REiiKe68ebpL6sWDBAjx48IA5KRbkgLC2DCKQcXYyqktEcOy6Xo9zowzxOwaiw9Qz2VEy0rBvcDGDBFv+bht8nTmIK47GMSWf1NOLrPj9CPKsBb9N9zWInizxPKY3r4kJUQoNdfrp8ajVYTliVXYMWXh1eAzqSTlI6wXjsoYi23SCnTsOegQQPJyCiICS4CSV0K6nPwKXheNQxDoEtvTGCj5KhxyJJ6fA060Shu5NUNN+yxC/rTdKcWJUHnEQH+SAaXKTl+BbnJjRHuXKdMLi6E9qdafiUcRktC4p1omuIiiCpQ4KEGx54kUs6VYVNXouxPHnWhr97HZNmUOW6qqt1MMItq2MVBHs53//+19ec0hp2tXtX4kMUXrpDRs2oCCcypTmIRTXmG35gwAlXaGXKUpAkp8bjeXy5ctB9vTKrITkpPjtt9/yUW4oxjvbGALWh4AMz0I6w1EkRtnASMHIH/IPRzCm7XBEJCjtBVKxe4AzRHpNREhJrDALEDm0xXJDhtiyF9jWuxQcPIVCuKUjcmwvLL+nsBHJergHm469USOMALLuY/m3DhA5dUPoK2X/CGVTCXbuOJg2dhmImlgNEpEDmi+IUdlnZ8TH4QXxyay7WNraEeLyIxGpFaJDnrAVPZ04cCUH4ZdPgGlyy5F4YDg8xFI0mHFF1W5O3/WZx+RcYfE9LYKd9mAXxrRoAN9l55CgMksRaNXYOSRQ1N4PMYJt7yNsR/K9ePGCj6tLZEjdlKROnTogE46YmBiQU5qlN4pxTuRv7969lq7avPrkSbgXuRFzxwWgX8/u6OHrj+/Hz8Ha3ecQ91n94aWsXoakJ9GI/OUnbAvbiYMXHuGToRumslgBflPiIsKY4iFbcqPVB0oIRPODotcoV0Qo1GLPnj35OPf5TeotKQ+rq6gikInLwfUgFUlRP/iKgFnAF0TPbo+e67PtjnmYPiPcPxeCnRmD+U2lEEmqYWK2BloIYdmLDfB2FsN9+CEN7bXQtTrHMpMQf+cs5ns5QuTYGSHP1G8+phLs3HDQaT2XAxm4OK0OJOKKGHtCV0Mri1sDL0cRHJrOxbU0rXtr2mEMd+cgcmiNpbFaBujUqiG55e+wo19xcNTucd12Db945CKSuadVBDsYBw7MgFeVZpgQGS8w17QaMHIOaZUqEj8ZwS4Sw2yakLqZsXInaAWd2YmyyFHYvAEDBqBYsWIq4lSyZEneEY2I2r///W+DghP5okRCucUqJnMVImaJiYkG6yuIk/KPl7HCtyqcyzTDgB9WYNvufdizYyMWBfmiYSkJpOUHIvx1zoNA/vkGNg1vAneyM8yO3CLiJCjTdhqOxKs/6Aqi9/rbIHMM6h8lbsrrRslOKFPkmDFjUKZMGZXcFL2GzIyOHj0Klg44ryiz8gWLgCKqhFgkhefc6zqkR/Z4HbrV7I3lkVF8FlHyFYmKOoxZHYjUtkXwAfp9BlefamX6y4rF0tYOEInLIPCIENFTSJl+ehxvq11x7HFB7bk2FmnPz+OnxUHw79oBHbz9MHzKbHzX3BFcngm2YRy0+5H772yCL6mL6ZdVNi2qYumnguAhFkFcohbadOoC7+4+6OnbC71790FfPz/06x+AwEkhOJcdlNpouTPOYUoNCUTSJpgXo9suT7Cn1dZjm67qnmV3sgm2uFxt1ColhohzQ8vpp/Au53Ei3J6Rc0i4sH0fZQTbvsfXZOm0M2MZTdAKMTsYmZJQymbKmFe1alUVoaK0zZ07d0ZoaCgSEhJ0sHj8+DF/LYWIMxRqzcPDg8/Ip1NBQR+Qv0XEd5Uhde+OkLu6BpOZTzfCp9YYHFM9J2V4vq4LStTuhyUHb+FNSho+PjqJ5X2rQcqJ4d4nDNbCsWnlgV6UPD09zUKV7PIpDCS9cP3tb39TzYGvv/6aJ+2XL18GzRO2MQRsE4EMXJhaCxIRmRREaxFsMieoCYnyBVrvtxRN58dols26yceMFokrI+iU6sahA1H6sdEoL+bg0mc7lD59OhdlH0g6PwetS5ZAywnhuPleSR7TsG+IqzDBJg2ynjB9vHZZ45whHPT1yNDxbA22Rhs516cfHYVyYhGkjWbhqlKUnNMaeybJnX4Mo8uLIZLUwtQLGkbp2XVm4Mykanpw0WjWcj9UGuw5iDq3BF3LicGJS6LtnLOqpDaCjRk5hwTL2vlBRrDtfIBNEk8nM5ZpBM1asoORne2qVavQpk0bPlOgUnNbr149zJ49m49rTIRu2bJlKiJGmk6KVqK90XWUJIeIemFvsich6OQsQZWgk4LhoZB+CpN8FuCG6kGQhD1DO2Luda0beNJRjKkmAVfMDzs+FLZUOe03btwYJUqUyDmQyx6F9QsLC0PXrl1BL1Pq4zxv3jzcu3cv19WJXJpgpxkCVoKAIsmIg0gMj6CTOlrkL28fI/buXdzV+ERjWRfSYHfCkst0LhZP3muR6IzzmFKLNKlNMV9Qk6oQP+u3RWjhIIK4wnAcTILd0/QAACAASURBVDIAiewZ1nu7QFJ1HE5p2CzrJ9hnJ9eARFIb03SIZgZ0zxnGwUDP9JyiNqrz7QsRXaXcXLE+CDOkyjVV7qxbWNjMASLOER1XqZv1KLuZhF8GFldEERHQrCuvsuh3+kkEeYghbTAD0ZlA8o0Q9PaQgBOXQtvZUfpfrIycQxbtq41Uxgi2jQxU/ndTKDOWqQTNWrKD5aCVkpKCPXv2wN/fX0OzWapUKZA5iZKUkcMbObuRA5y6Hfc//vEP/hqKiVzYm0KL5ICWi+9AwOKPdxj6/Ck1JxxV1i2s/yEUd3UuTuZtMzmnntiqcogqbOmAPn368FhnZqreEHQ6RYlpVq5ciRYtWqicFDmOQ+vWrfkwf9YWP11HAHaAIWAmAqkHv4c7x8G5708w6r1Y/gqh3Z0gcvLBZn1Z/pL3YJAbB674QPxiyL848xrmNKZwfCXgve6RnvsPgPQTGFtJDIdmC3FL7b4jf3cSExs5CGiwKWNhBYglVTD+tJYigM9mqHvOZBwM4m2ofbKjvoY535DcxdBxRayAM2J25WbIfYE09yIO0tpjcVRrWSDr6Wb0JDMNSS1MOa+Ni0GBNE7Kk5/gwt4QBAfORATF+Ta0ZduUS2pMxtnsJlNvrYNvRSLZJdBq6lG8ErIqNHYOGWrbTs8xgm2nA2uqWIKZscwhaFaRHUxYerLNvXTpEh/XuGLFiipyrU6yaZ80ov/85z/5SighDh0jbXdhbxnnpqCmhINr1xA8Vnt4mdwv2Qus7+oE57bLIeSbY3J9FipAJj6E9dOnT1U1kn387du3MWvWLFBcdOVYUUbNHj16YMeOHaqxUhXKxx1d/wShxlLx5OIVxKk9FwvaR0GoV+yYbSMgf7MVPYtxkNYPxhX976A5QmbewFxPKUQOLbD4tvANIzNmHppIOTh33aAn9J+yOjkSDo9CbQcOnKsnRm6PwUc1svXlRTSuxqUDmTcwr4kUnJMnxu27gzfv4nHzyAqMGjQe37d3BufQDiseqBVEMn4Z6AqOK4Wh+7WDewufMxkHpQiC38nYPUBf+1SA5B6tkLtYIwzfpi63DB9/24MfN51HsslyA7In29CnnBgikRil24zHlrP38ebda9yLCsXEgCBM7FsFEnEZDDuojYugIIIHUyOGwE0kgrPXGqiyqwteCSBpJ/o5c+BKD8MhtdWHz1d/RJcyZJPtgnpDt+KW1ouY8XNIX8P2e5wRbPsdWxMkM5AZS6gWgwTNNjI7kXOjkqzp+yYyTinc6Xx4eLgQEgV77PMxjKkq4W90dfvNRdjRq7j/Olm/NklP77LurYRX6aYIPmtorVdP4Xw8vHr1ah7r8+fP48KFCwgKCkLZsmVV40Rx0YcMGcJHGsnNgTU/uqntnyDYhvwdDo2tCxdnX4Spa6UK0UdBsJ/soO0hIIvHZh83cI5eWB2nTlLVRZHhafhE9PbpBq/mVeFKSVNEHFyrNINX996YtOtpzgoX5Ijf2A3OXDF0WfdE7bh6fer76XgcMR3e1VzAcWK4VmkKr27e6Ni8Huq2Go7tfNxoGV7sGYG6LtlO1ZwEFbotwYXEL9g/tARfrmTtb9E9aCdiL6/CgE5NUMmZruXg7NEUnQeuwbVMIPOq/nMwCgf1fgvvK9rwREUnRftOFRqhXZcBWKVjbJ2GRxHT0b2mG8ScBMWrNUenHj3QqVVjtOgdjN13kgEYL3fO0MnxMToEgxsWh5gfJxFEnBQePstx+UM6Lk+vy2u4HcrUQ7v+ClyEJdF3NAt3l7SEVOyB4Qc/aIZN1CiSgUs/+sHLsyKcqB9cMVRt0RUB65X2+nJ8vLwU3uUl4KSl0DAgDPxQ83WYOoc0Grb7H4xg2/0QGyGgwcxYuuVzI2i2kNlJGXeZyLMyHrI20SbTAz8/P57gUfKbwt/keB05Fa1KicEpHZk4MZxKVcU3HfsicOY6HIlNEryRZqUl4/OnBDw6vxmj2rVFUMQzTWenwhcOGzdu5LH+61//qiLVlOBn3LhxuHjxYuE6Ker4JwgBJseHo2NRS8oJJvewFh8FoZ6zY7aAgBwf9g9DRbELOoXEGUGIc5FJ9gKhPVwhLjsIu00xFcv6hLirp3A4IgIHj5/DtUfvtUwn5Eh9cQ0nDkTg0Jk7SFBbycmlR0aetjAORrYKeQrib57F0QP7EBF5FjfjU7TutWbKLfuEuOjj2L93Lw5G3YHKL9TYfum7TvYYqzs6wdVrDQyFONdXXPv4lye/4nr8F02ZzZ1D2pXb6W9GsO10YE0Ry5jMWKYQNGvP7ESmIhQZ5KuvvkLDhg3Rtm1bPiYyaUeJzJEj5Jw5c/gsf2PHjuXJHkWosJYt4+0N7A+ZgUC/zmhRuzyKqYXg45zrIXBfvObDV/4KYUOaoH1Pfwzw64ZmlVzh5tEUvaeE4canXOzyClDozZs381hTenLCnxy2cguhWDDdE/JPEGg5KQpTvPwx3LccxILJPazPR0FACnbImhHIisXKjq5waDwT0bqBhEzqeUbMAjR3dEbrxTe1CLJJ1RTOxRbEoXAEyP9WM28uQDO3Fpj/ax4nioGu2vQcMiCXpU4xgm0pJG22HiMyY5lK0OwosxPF2ibNttUkmRGYZ1nJL3Hr+GZM6VwJUk4ESZUgnNAKd6tRLPUuNvXzgEQkRrl+P+Vie6lRMl9/KJPNkImINW2C/gk6HUzF5VldMCDsAQ4HltVDsAFYsY+CjkjsgFUikBazFO2Lu8MnNA9abNkLbO9XFq4t5+Gq+Sa+hYqPRXAoVAnysXH5BxwYXhcdltwQjjhliabtYA5ZAgZDdTCCbQidInHOjMxYuRE0O8rsdOLECZ5gk3bV6reUC/ihgTTXkFskR1bsMrRxEIFz8sbGeOvQYi9atIjHmjJyWs9mnH9CeswSdOu1Dg+y0nBomLugiYhCJtvwUbAe/FlPdBHIxKPtA1CtYh9sfSLsvKhbRv2IDPHhA1HZow823dMK26d+mdXv5xUHqxfQ/A7KnuJ85A2812eqb37N2SXtZQ7lGQiDFTCCbRCeonDSvMxYBgmaHWV2evjwIU/6goODbWAypOP0uMoQOzTDQvUYWUI9TzuA70pSml9tr36hiwvm2PDhw3msrSFjpkpiY/wTsh4gxLcrFscQWUnD/qHFDRBswBZ8FFTysx0rRSAZMev90Nh7jcmRgGSPQuHbuCdWXhX217BSgfV0y3wc9FTIDhuBgH3NISMENvMSRrDNBM5+ipmZGcsQQbOjzE5paWk86evfv3+hD3lG1FxMCn+j6WSi0atUHBpeBpJKoxCZkomrK4Ox45mwCkOeuB19XDhQzNMzVqLE6tixIyQSiUYccg3xCuFH7v4JMsTvGIgOU8+AYgkQwd43uJhBgm3tPgqFADNr0iwEMpDw6p3pzspZ7/HyjZX86c2SW7uQmThoV8N+G4+A3c0h40U35UpGsE1Byy6v1ZcZKw8Ezc4yO1F4uGbNmhX66KcdCkSXRbf0huWTv/wZ/cu7oe1SclqS49UmXzQPviRggyfHm539UUZSFr6bhbKIFY6olOa+cuXKhdO4YKu5+yfIPxzBmLbDEaGKwpCK3QOcIRJ0csxuxI58FARhYwcZAgwBhgBDAIxgs0kA4cxYeSBodpbZibIGUui4//73v4U6W9IODUPZKj5YeCgWnzRMLzPx7sbPGN+6EhqO2IW47CQUmTHz0dStEQJ/vo0kNTPr5Fuh8K9WDu1nn4ah7L8FKey//vUvUFjE7t27F2SzubSVm3/CF0TPbo+e69VfUj7zWTINEmw78lHIBUB2miHAEGAIFFkEGMEuskOfI7i+zFjmEjR7y+w0Y8YM3kzk5s2bOaAVwl7W7S0IaFEBTpQuuXR1NGrdCd27eaFV3Qqo8E1fBIff0iDS+BKFYM+SkHASuFFSiO4+8G7XGPXbDMaiI3HIv+BNpoNz8uRJHuNVq1aZXjjfShj2T5A9XoduNXtjeWQUoqKUn8OY1cERIse2CD5Ax87g6lOtkC525KOQb9CzihkCDAGGgI0jwAi2jQ+gRbqvLzOWWQTN/jI7EXmiUH3Lly+3CNx5q0SG5Je3cenEIUTs2Yv9kadx9dEH/XFs5Sl4cSMKh/ftQcThk4h+mKj/2rx1LE+lp02bxmNMadGtZzPkn5CB81NqQqJM+KP3W4qm85UZ0bIlsyMfBesZK9YThgBDgCFgXQgwgm1d41FIvTGQGctUgmaHmZ3S09Pxxz/+EeSEx7b8QYAS/jg7O0MuV7NlyZ+mTKhVn3+Cooovbx8j9u5dPiEOJcVRfKKxrAtpsDthyWU6Fosn77UcyuzMR8EEQNmlDAGGAEOgyCDACHaRGepcBLVQZix7zezUqVMnnmRbVQi5XIbUVk7HxcXx2uuBAwdaXZeF/RMMdFP+CqHdnSBy8sHmt3peFuzMR8EAGuwUQ4AhwBAosggwgl1kh15X8DxnxrLjzE6UyZHMRFasWKELHDuSJwR++OEHHttz587lqZ78KKzPP0FvW5k3MNdTCpFDCyy+reGJqipibz4KKsHYDkOAIcAQYAioEGAEWwUF2wHykhnLvjM7ZWZmwsXFBTVr1sT//d//scliIQTIJMTd3R1ly5a1MvOQbAH1+SdoyC/D0/CJ6O3TDV7Nq8KVE0Ek4uBapRm8uvfGpF1PkRON3P58FDSgYD8YAgwBhgBDgEeAEWw2EbQQMC8zVlHI7DRq1Che03rmzBktzNhPcxH45ZdfeExnz55tbhX5XM6Af4I5Lduhj4I5MLAyDAGGAEPA3hFgBNveR9gs+czIjFUEMju9fv0aYrEYnp6eTItt1rzSLERxxatUqcLHGP/nP/+pedKaflnIP4FEslcfBWsaLtYXhgBDgCFgDQgwgm0No8D6YDMIBAYG8hrXEydO2EyfrbWjO3fu5LGkOOPWvuXZP4EEtGMfBWsfP9Y/hgBDgCFQ0Agwgl3QiLP2bBqBt2/fQiKRoFatWvj9999tWpbC7DyFPixfvjycnJyQnJxcmF0xsu28+CdQE/bto2AkiOwyhgBDgCFQZBBgBLvIDDUT1FIIKDM7zp8/31JVFrl6xo0bx2uvrStzY27DYJ5/AtVaFHwUckOPnWcIMAQYAkUJAUawi9JoM1ktgsB//vMfVKtWDX/605/w8OFDi9RZlCq5du0a/vCHP/C27NaVWMaYUTDDP4GqLQI+Csagx65hCDAEGAJFBQFGsIvKSDM5LYrA9evXeZJIGQiJcLPNOAS+fPnCOzaSmc3jx4+NK8SuYggwBBgCDAGGgI0hwAi2jQ0Y6671IKBMkDJkyBAWVcSIYfnf//6Hbt268aYhLGGPEYCxSxgCDAGGAEPAZhFgBNtmh451vLARIPOGjh078oRx7dq1hd0dq2+fYl1TNsx+/fqxFxKrHy3WQYYAQ4AhwBDICwKMYOcFPVa2yCOQkpICDw8PcByHo0ePFnk89AEQHh7Ok+v69esjIyND32XsOEOAIcAQYAgwBOwCAUaw7WIYmRCFiUBcXBxcXV15p8fjx48XZlessu3du3fzLyClS5cGhTlkG0OAIcAQYAgwBOwdAUaw7X2EmXwFgkBsbCyKFSvGx8g+efJkgbRpC43s2bOHJ9fu7u54/vy5LXSZ9ZEhwBBgCDAEGAJ5RoAR7DxDyCpgCCgQuHPnjopkb9++vUjD8n//939YvXo1T66/+uorPHv2rEjjwYRnCDAEGAIMgaKFACPYRWu8mbT5jMDdu3dRpkwZ3t54zJgxkMlk+dyi9VWfmZmJgQMH8hhUrlyZkWvrGyLWI4YAQ4AhwBDIZwQYwc5ngFn1RQ+Bjx8/okWLFjzBbNWqFT59+lRkQCAb6wYNGvCyd+7cGampqUVGdiYoQ4AhwBBgCDAElAgwgq1Egn0zBCyIwO+//47Ro0fzRLNs2bK4deuWBWu3zqouXbqE4sWL8zIHBwfD9rI0WieurFcMAYYAQ4AhYHsIMIJte2PGemxDCGzbto2PLkKpwb///nskJibaUO+N6+qbN2/g7+/PE2sHBwdEREQYV5BdxRBgCDAEGAIMATtFgBFsOx1YJpb1IEDOjy1btuQJqKOjIxYuXGgXsaAp7fn06dPx5z//mZfNy8sLFLKQbQwBhgBDgCHAECjqCDCCXdRnAJO/QBCgqBqHDh1CxYoVeTJKjpC7du0CpQ+3te2///0vNm/erDIHqVmzJk6fPm1rYrD+MgQYAgwBhgBDIN8QYAQ736BlFTMEdBHIysrCqlWr4OLiwhPtRo0a4eLFizaROpxeBijGNxFqSnlO9tZEtIlws40hwBBgCDAEGAIMgRwEGMHOwYLtMQQKDIF//vOfCAoKglgs5skqabZnzZpldSYWpHmnJDpTp05VhR8kkxAyDSETEbYxBBgCDAGGAEOAIaCLACPYupiwIwyBAkPg6dOnGDduHEqUKMETbdIM16tXD8uXL0dCQkKB9UO7ofj4eN5WvHr16qp+kVkLEe3Xr19rX85+MwQYAgwBhgBDgCGghgAj2GpgsF2GQGEhQGYWZ8+eRUBAAJycnFSkluJob9y4EeQo+Z///CffupeRkYGbN29i7dq18PT0VLXv6uqKwMBAXLlyxSbtxfMNMFYxQ4AhwBBgCDAEDCDACLYBcNgphkBhIECZEA8ePAhfX19IJBIV2f3jH/+IWrVqYcCAAbyGmwg5hcgjcmzs9u9//xuvXr3CqVOnsHTpUvj5+aFatWp8SnPSntOHQu1R2L3jx4+D4nmzjSHAEGAIMAQYAgwB0xBgBNs0vNjVDIECRYAyIR44cAAzZ86Et7c3KGmNkgirf1P4v6+//hqNGzfmQwJ+++23aNOmDZ9Rkhwpy5cvj7/85S+CZamcj48P5s6diyNHjiA9Pb1AZWSNMQQYAgwBhgBDwN4QYATb3kaUyWP3CCQnJ/ORR9asWYPx48fz2uZ27dqhTp06+Oqrr+Dm5gZnZ2c+Ugntu7u7o27duujQoQOv/Z4wYQLWrVuH6Oho/Otf/7J7vJiADAGGAEOAIcAQKGgEGMEuaMRZewwBhgBDgCHAEGAIMAQYAnaNACPYdj28TDiGAEOAIcAQYAgwBBgCDIGCRoAR7IJGnLXHEGAIMAQYAgwBhgBDgCFg1wgwgm3Xw8uEYwgwBBgCDAGGAEOAIcAQKGgEGMEuaMRZewwBhgBDgCHAEGAIMAQYAnaNACPYdj28TDiGAEOAIcAQYAgwBBgCDIGCRoAR7IJGnLXHEGAIMAQYAgwBhgBDgCFg1wgwgm3Xw8uEYwgwBBgCDAGGAEOAIcAQKGgEGMEuaMRZewwBhgBDgCHAEGAIMAQYAnaNACPYdj28TDiGAEOAIcAQYAgwBBgCDIGCRoAR7IJGnLXHEGAIMAQYAgwBhgBDgCFg1wgwgm3Xw8uEYwgwBBgCDAGGAEOAIcAQKGgEGMEuaMRZewwBhgBDgCHAEGAIMAQYAnaNACPYdj28TDiGAEOAIcAQYAgwBBgCDIGCRoAR7IJGnLXHEGAIMAQYAgwBhgBDgCFg1wgwgm3Xw8uEYwgwBBgCDAGGAEOAIcAQKGgEGMEuaMRZewwBhgBDgCHAEGAIMAQYAnaNACPYdj28TDiGAEOAIcAQYAgwBBgCDIGCRoAR7IJGnLXHEGAIMAQYAgwBhgBDgCFg1wgwgm3Xw8uEYwgwBBgCDAGGAEOAIcAQKGgEGMEuaMRZewwBhgBDgCHAEGAIMAQYAnaNACPYdj28TDiGAEOAIcAQYAgwBBgCDIGCRsBOCHYmnl85iIiICNM++0/gt0R5QWNeNNqTJyJq6TAErLiAdCuWWP7pDELWRuEjmwYaoyRPe4vbp8KxKngYek/YjTca+HzG1Q0j0M07ACvOvofGKY1aCvqHtfarIHCQ48vL6zi8aR5G+43Dzy9kRjaqD7MsJMVdwJ61wfjOdxaOGf0n1lefMd3JS1lj6rema1Jwb/9WHHmiPU7peHp8CyLuZhrRWRqjS9i3bhZG9B6H8Ffq/8SihKURUGlcogc3+Qfc2LUYE8f+gA1nXyNLVeYz7u7/EVPGTsGqY8+s+nmm6jLbsQoE7IRgy5Dw20nsCRmP9uXEEIlEEInEKFGrPXr6+cFP+enbCz5dvdCmQXk4cSKIJLUw9UKGVQyEfXVCjjf7h6O6RATnAbuRarXCyfA8tAfcXLsgJE77QWe1nc7njsmRcG4dpgztgtpuHP9fcuy6Hhp8Lf0UxlWm/xmH4kP2Wc/4Wmu/8nnEgBRcDx2OdpWLgaN7n2NHrH5s5HwWwkz2FEfm+qNJGUdFfc4DsSfNSCGE6jOyKPJS1tg2rOE6eSLOzPaBz+yTeKMxTJ9xbUU/dJ98AM9z49eyeBxbPAStK7lkj3lnhDxTq6yoYGnqeBrALevOYrR0IO4gAufmhTX3FRRb9nw9ujor7oWcY1PM+5VxBlNhL6rX2wnBVg5fJq7OagQpPWTEFTHmuD61SyYSomaiVfFqmBjF/ixK9Cz1LXsRjkEeEv5GZdUEO/MmFjZ3ACeSotHMq0wzoTEBMhE9owH/X9Ih2EjFze0T0d9/DNZf/lDwGuyMdAj/awu5Xxr4FfyPrN8WoTkRBFMItoGxTDsZhCpiEUSmEGwD9WkgIjiGRWH85Eg8MArdp59FkgYgQPKZqeg+9jDeqSuita7R/pl5fS48pTTmWgTb2HHQrrCI/BbCTf42AqPrukFMyjeRE3zDslfnkk5immdJSPjjjvBaHQe1V5nCR0zwv5TdLUPnCr/ndt8DOyPYMrxY3xWOPMGujHGn9RFsGtdkHBj+DYJOGLrGuPGXZyTjXXw8ElI0/3bpie/x2YSbpXGtWflVWXHY2q81Bgd04MfBmgl26ukJqCFRaCzEFYfj4Ccrx7ZAuydD3Govfgx1CXaBdkSzMdkbHAiajHA2Vpq4AJA9C0EnR1MJtk41qgOZV2ehEZE3kwi2qrj+naI8hrIX2NCjISYceYrXH9XV1B8QPqA2hu2Kw6tE459Jsser0JEfc22CrR9+dgbQi5s8Fe/iHyC0bzUEHlZfe01D4ss47B5WG/47EwteqaBv0Az9lwyd01cfO25RBOyMYMvxKrQbnIwi2HIkxUQi6imRYhnijq7B3LG+aFGvDmrXro069Vqh77h5WHfymfDbqiwRMeFz8V3n+ijt7IqKDdujS5cOaNu2A7z7BWLKzInoUc8f2z8oxysNd/YtwZSB7dGgTm1FG027I3DWBkS9zCHm8k9XETZ7GLp+Q/2oA0/vYZj103UkIwuPDi3BBL82qJ9dvnadBvimSWM0buEF30GBmDxnLfZdf6tHu5eMG+HzMda3Oeoq26//DZq3bImW9GnRDI3r10Wd2tS3RhgToa1fUcph6DsD90J64tuJJ/B0hx+cRVZsIiJ/h10DK6BJf380JBLBuaFHqJ6xNiSy3Z6TIW6NtRHsTDwI7YVyLn2x46PdAm+2YESwO1s9wS7iY5gZg/lNpQozBIeyaL84e+VMFoc1Xo6K49KSaDLtpI6GW2hiyB6vZgRbCJhcjhnCTfbiZwzpNhdXtcyi5O+OYKz3ZJz+nEvlBXba0H/J0LkC62CRb6hoEuysZHz4JLDILH+DLT3Jpo1Dyf7h0Of/KH9/Act8PCAVl0SzUWG4/l5NE5H1DtGho9DCXQyRUzeEvtRSYadEYmQlsl91hNfap8LkHTK8CPWBm7s/fn6rVT4pAkPLiCHiSmFg+HvIIEfG55e4ceBHDGrgDE5cBh0WnMcnrWLKmS5/vQU9XTiIJNUw7tQX5eHs70wkxh5EcNuy8N2aYPJbetrN5ejadjrOJsmR9LN1E2xZXAg6l+2B0CePsa6LwnZV6jkXZpvXyeUm46UFvuKnnEbUmE2rPaPaN6WM5Qi2XG6cRLzUeuWX4c3JaWjhykHkbBmCbVK/1IfEKKzVC+jbl8MUaPTVojyul2Cb2V99GmyzcYPlx5AANH52WRZv6J2ryhER+k5B1KTakJASSMTBrX84FIsxGfh1XlM48mYIHJy6rIO6SbVmTTlyGCKKmmUM/DJBDm2sDc0FQ+e0e2PKtRplzRx/fbilPQzHyC4DsOE3zWdj1ovDmNK9D5ZGJ5kw36inWvPTlP4aHBdD/yVD5zTQU/uRM6fUDhrcNereZYq8BluzzZNFkmBnXAyG7+xoqNHi7NFLx/ExFSAWSVBr6nlhTXD6HaztVhpicSl4r7yFFMFxl+Pd0SDULybgbJR5A/OaSCHiXDEkQusVWa2uzGuz0aTNYtzOcWVWnM28guD6UkEb8/Rbi9HGkQM5Ysy/risdX0H6CYytKIZIWg/BV4SvSY0ch+9CX5p2I0m9ivkdO2DuFQUi1k2wM3BtjicqBexDolyO97sHowzZmoorY2SkAc29PAXPoyMQEjwUnRu0xqwrGZC9PYsVAa3g4SKFc5m66DJpF+6rryyqjam+3ay30dg+OwA+3fth6LAA9O3UBm19RmHlmddaL2BZ+PTgNMIWBKJboy5YcisNb86uxajOdVHa2QFuVZqie+AqnEvIWREBzClDPTVAsDMScPPIBswI6Ij634VDSKGT9uw4lo/qhS5endChRT3UqNMKfaduwsXX2hMayF1+GeIjRqI+vRjyq1OlUa9tB3To0AFdZp+C6l+Ua7+ykHA1DLNH+KN3n77o8W091GrYFj4BPyD0bLymDX4+jTWQiVdn12Jsz/ZoWtMdLiWroWnX77D46HPV/SYtNgILR/dF544KGTt49cSIuXtwOzURV7ZMxSDvjujQsQv6Bs7FvmxHLH7ENDTYGXh7bi1GdqoDd2eam3XQcfQWxCRpUSQDmGkQ7JT3uBw6AT6NK8DV0RWVPLsgYMFhPNXWU+itz4gx1Fc2j2OR9iQSi4b2hE/vHmjXqC4at/XB0GkrELY/CtExt3Drtzt4ro2Lnj9r7nNVT0H1w6n3ELF4PMZMXYXIR6rZC6Q/ReSKSRg9aSkibn/Wuv/K8eH6T5jeBTZONAAAHpZJREFUrzUaNGwNL+8u6NRnErZFzEN7IRMRfVhm98N4OdLwJiYSm+eNQs8m1RCwOwXIiMepFYHwbuLBzwWP1sOxOUZx3898fQ7rx/vAs6IrHBzdUatjEH6+pyajCoeC+i+agls6ru/ejKiX2pM6C/f2b0ZknCbpVomis2PuPdeYeyE1Zui/dAz3jblX8n3O/V5ELwgpzy4ifGkQejbtiHnXMpAUvQYDGrvDxb0BBoTeRmYe/5868NnRgaJHsOUfcDyoPhrNECbYJ4Iq8QS7zg8XVQ+8nPGWIW69N9w4Dg7NF+KmMD9VXC5/i10BPlh6R4tQZN3EgmYOEHHFEWCAYGfdWYJ2nVbioTpXopozr2JmQ2GCjYxLmF6XnAsd0WXdcy1yli1F+ikEeRgm2Mj4iHefDAmXg4hi7zPOB7eF1+LrUN6CrJpgfz6K0dXqYPKZ7N6mRmFiTcKNQ3HfLYjXxpwXUoYnkSsx4/vWKE1kXFoXQRvX4ruuPhgRvBhLZwWgeSlaWXCA55xrmmRNGy613/LXhxHUyAWObZfirtL08ssNLGjlBHHxjlh5J3sc5EmIDg1Cz4alFc420m8QOGMwGtdpj/6BIxHg3RjlHImAcnBpMBL7KOyHOWVUfRMi2HJ8uLIF04d6oXo22XXut1OLYGfg4c5AeFZthYkRj7PJbyYerPKCC8fBpdEERCbkkDxj5c9M/YR354LRmMx5nHoi9OkHfPjwAR9T6GFoTL9ScXODH6q51sGQsDvZkU/kSHm0H1NaFgcnKY/Oiy/gA9+1/BlryN/j9KyOaN4/BBdfp0OOLCRe3wj/qhJw0oroEXIrZ95kxmG7vwev6eSK9cRWZZzE9POYWrcsOsyJgsZ7VLYNtsJEpB1+WDkCrZr6YvTsFVi1YARal6ZVMwkqjziYLWPumOUQbB9MmtwMFWu3R69+PfFtzZKQkqaVk6Jyz7W4zr9QGlGf3jFMMzCv8jYW6bdXo0tpN3RYEqNQhsgTcGJKE7jw/XdC6aq1UbtOC0w36K+j+FMYO1dVfyGL7WTi2b6RaOBWGb3X3VD59STf/QlD6zoqnPJUTo65j4PxcsjxJmo95kz0QU0Hurc4wWfeFkzt1wvf/bAEGzavQ7BPFUjpedgoGCfOrUD/Tr0wetYqbN4aghl9asGZzjUIxkXlg4HHpKD+i6bgZqHBysM91/hxAQzdDw2dU0lpzL1I/g7nQ8ajr2dpxRyTNkLwL9sw0rsz2tZUrPo6+YTiwmHLPxdV/bTxHfsl2FwxNPD5HsOHD8/+DMN3g/3RvVkFOHJS1DeHYCvJrcgRHVY9EiawahMi8/UjPNH2cjSWYN9divadVuKRNtlT9kEoSsqXSIysQCTPFX479Dhi5EKwv1zcgV1qWjE1cfTsyvHhxES08l6J20qCCFixiYgcr3/yQ9mWi/Cb6t0nE7cWtYADJwLn0BwLbxl4ufhyEMNKczy58OixGGdVLEeOV9t6oQQngtgjCCeFlDY6CMrwYEU7OIhEcOq5TS16QCauzqQIHg5osfi2WjxWhXNOB9JYcQ6oG7gHcSrMsxB/aBy+KUYPQjE8Ag9BaaZMDj2mljGowUYajo2hF1ERtAl2yoUZ8CxWDv4/a66AyJ6HogeF/eNc0O9npYeiafJn3siOmKDXRER/vz5HTUEDRwkqDTuQTTBzBiPzYQi6FiezqcoYuvdNjubQomMtx5vdg1Gx/CDs0jD7UrzIUNhQcem+CFN7u5N/OIagOlJwnDNaLriOdKTjtxWdUMd/u6D5gMpEhHNB7YEbcEO1tCDH253+cBeLwJUcgr2q44SBfsxUBJsrjlbTj+OV8m8hf4eo2W1Rkl40OWe0XnJLbTVQf33UmuExNFDWnLHIuo/VXm7gnLojVD1GdNIBDCuvMLPrH25sHHfT5mrO7Mr7Xsbd1ehcQopqY45mm5Pk1PnxwHBUpHFQEWzlOX1YmiFH1l0sbe3A31fKeC/B5Xc5DyV54m4MInNIzhFlOy9CtPoC4OdDGEHPI0l1TDqToxUuqP+iebgp8cvbt+n3XNPHxdB/ydA5UkiYci+SPVkLL3rmiIujpv9a3KTFii/PEBW2AXtuflTcL835f+YNYpsobb8EW1wS7YOWYcWKFdmf5Vi6cDamBLSDh5N5BDsrdhnaUBgsSR38cCnnhmHSSOcbwU7Hg9DeKCvm4FA3CEff52gJNfpniGDL3uHASG/M1GM6olFP9g95wiGMbO6D9feVT1/FCavVYGfdx4r2pdEjVFPDryKAIgmqBR1HspCwdCwjChOrSSDi3DHskCaLzrq1UBEmjR7or/Xgr1GvHO+PTEKT8h7wWnJFpf0ns47bi1vAQSRBlfFRGisp8nfb4OtEGnRPzL2hiTnwBRem1eND63ElBmBXNsM2p4xhgp2Ja7MV4TA1CLYsDuu93SCpPBbHdcxkUnFj81gMDlyKE6+UD2jT5Df80CBg9fXrGTZ2cwUnroygk6o3ErWRSEbkSHph4ODQdD5UsFpyrLNu8SEhXXqE4N7bBCQk5HxenZqK+ryjbTH0DlP3fZAj8ehY1JJy4Ip3wtJd89G+zmCEq5FwNSH4KCJKJ8dVWnGwVQ9JhzZYFqt6s9SPGb9YpowiImDzLovDhm5ufAxmSc0pOKe6HeoZg+yOGh5DA2XNGAulzJzLAPyiMR+TcXhEeX6lssbksxr/L3U8NfdNm6uaZfPwS/4R+4dVhFhSC1PO6c5d2aOVwiYi+v4LMEMO2Qus70oOmI7wWqMVoi4rFsvaEPl2RLsVDzWVTrKHWNGOyjmhR+hrBRGTFdB/0Wzc8jBWakVNv+eaPi6G/kuGzsHUe9HncPg7E8GuhDHHNJYiciQ24/+ZU9h+9+yYYOsL05eOmAVt8I0ZGuz042OytQWdEMJHH9GeGHK8v7oHoRs3YqPaJ3TPVaj4rsUIdhn0X38OZ08cwb5tSxDkUx8lJc6o0mUKdt0Vtgzne6sk2JwranfwRa9evfiPr09nfFuvLBwN2GZrSwvZS+wOaAa/rXEaWla6zloJdvql6WhQMQD7FLYAOSLJPyDiO3rokpavL7brI8gGbiT6HGdyGjFmLw2vondieqdyPOErPeJwjo0xGUO8D1MQbIfmWHRLnSgp6s64HIx6RNbUXgLNKZMrwZ7TmCfy6gRbmZDBqccm6IMvdwT0y2/wocFXnIlrAv2SJ4ShF2n2Hb7Fj/d0MaOin/cFoCSZDahfY8Gxlj0kIsTBpWpzeHXqhE6Cn674LvSu5n9J/h5HRtVQOMVJKiNgTzZREQBSpcEWioP98Sf0oYekzouZMGZUvUqDLRimT46E7X3gymPWFstVq1766+PrNLgKYaCsGWORdXsxWvBxwb2wVuN+rQxBKUbloFM5ZjkCmBo+pH+uGi5nwtmkfQgoRY69ffCTcklKrbj+e44BLNXKK3ZzkcMQwVY7p0Ow5a8Q2t0JIpED2i6/z8/rAvsvmo2bDjhmHTDvnqvdlOFxMXQ/NHTO5HtRcjbBljbCrKvaSp3sPpvx/9SW1h5/F0GCDWReX4yABVfVljWVQ5sOQzbYaQe+UzyEtZcclcXpO/MTnl3djCFVyaZXguoBW/DrazVNp6UINlcMjfoGYVT3Grxpg8RjEMIeJGtqENT7pdxXEmxJDYzafQt3795VfH67jkuH12BQvUZ6nR+VVSi+ZXga5o/GfTch9tNnfP6s+Xm5pRcfLtG533Yk8OeS8UX538w4h6X+vvD1zedP34kIf6JOqD7iwPCKkJb7Bl19fOCj9fH2JFJLy96OaL3kjibRUQqfXzeStJe4/PMCjBsxFjM3RGJ/cDM4iDiYSrDxaQf8eG1DOYyMVGi8crvZC5Uxh2CnnwhCJbEIzn4/GxViTAkp/22E/IYeGoq6hEkFOQzz8ZwdWmKxtk9EdidUZExcKSc2vgXHOv3YaFQQi1F+1FGTCZ383SEEVpdAJC6JbuseCNy3FEIYJtg70NeiBBvIipmPpsqXuYtKFbbwGGTDnIuJiIGy5oxF0sFsUxBXdNdYsZLh4Yr2cOTc4Lv1VY5JkLKTuX0bMVdzq8LY85nRM/jVDa7U9zio9hhRls8TwTZWDjUSraPBVjunS7BfI7SHgmC3WRbL308L6r9oPm5KZPP2bd49N7tNI8fF0P3Q0DmT70WMYJs9GYokwdaPlmGCnXF+CmpSYhKHFlicY8ArUF0SfvZzhkjkjN45gbAV1xlNsJegfedVudtgp0Rjfhs3cGSTO/qQVupdga4pCbagplqGZxvGYI5RJiKfsbMfyahI1JL7tzP678rWrH/Zg4H0sDe6rJnXaml5ZfGb0dPdEyM3hCM8XOCzcwUG11JkoJTUnIgojWXlbCzNedALDEPOoSy8ObcSAxrUgc+i43jOc2KliYgZBDvtIL4vSfbEtTH1goL05HqzFyhjDsH+sncwr9F0bLcCD5RWIDmC6tkzXn5DDw1F5cIELTM6WGGCIdGfuVUevwFdyc5QUhUTlNldLTjWhE0xjmztt0LNx1MPJpqHs56GoV8lR96xUOzug42P1F8ac64taIIte7FegRnvt6Dsk/AYKHtpeAwNlDVrLDIQG+qLihIO0rojcVCZbyDjHlZ1ckOp9otxVeg/ruyszrfxc1WnqJkH0o+OQjmynXfpj10CdmvmEWwT5VAj0Xkm2AX0XzQfNzMHSquYefdc08bF0H/J0DmT70WMYGuNrvE/GcHWwMowwcaHcPQvQY5a5ERoyDkmDfuGuIITOcPvZ3WvDwBZ97H8W4oi4pJDODX6oPiReW0OmndfDwoGobEJODlmPtiEXuS0Iy6D7iG3NUwKNMrSD4MEG5B/TkCCUQ+dL7iwegSGDh0q+BnSsRq/rC2p5oUh/DUjsOaSrg2hTv/y7UAmbi5sgRJd10FjtVijvSzE/tgW5HAmErvDf+dbXe2WWQ96jUbUfsjxZn8gajhIUXfCKXxUmW3ngWCTvZwLB65Yb4RlM7lcb/YCZcwh2OmnguBBZMCtF7YZsBGRy5SCmia/oYeGAlRhgkbk2duJnD8d0VlPdB3ZkzUKRx5HNXMCC451+vGxvHkZV2oAdukLsA8g9eVzJCi5KgmV9RibejeA/+ZILGlP9xQxyvTaAo2FmewZVeAEO9v5SVzmO+xXOU4Kj4Fy0hseQwNlzR6LL3h8aBq+LSGBS5U26DdiFL7z9Yb/rL2I1XZAV3ZS8Nu0uSpYhRkHM85ORnVeqdMMC26qTwxFZaYTbDPksCDBLqj/ovm4mTFIAkVMv+eaPi6G/kuGzpl8L2IEW2CEjTtkdwT7pdGZHIUAyoVgyz/g4HCFM1Rxn0265FdVpQGCjQ/Y6U8PSgOh9Mi3/9gY1P9+f3Y4MVXFesL0yfDm4EjUJmcop8aYdMIA+c+FYCtbynp0GL9c/qRLMJUX5PKdsqu/dWVy/HQEI6u4o98OAdKsJov89Xb4kc2jiINTuxXQMdk1+0Gv1ohyl16WGlBM9NIYcVh9/TcLv1FUEzNMRMhutqGUg1uPUDzPfjnL7WYvVMYcgi1/m23rzDmi6exo3blLFlSPt+P/2zsXmKiuNI6TyYRMIGKAoEQqDWotilQqWBSlxUdV6FZQfCxQhGp5aGzVOqKwVei20FYWu/iqa6lVVFbc1WW3so4PVEBEqyLFCqLgi1SUCK4QCJlM8t+ce+dxZ5wZmFvCwOQzkblz75zH9/vO+e53zz3nOylfl/ALOi2UX3fTWCTYIVUDk32acNC6q/B1iCO3gZTr4h+gF8RDnbzz1KcYZ890vlWn8z7UtfKu2smXuGJudpXRhXWq5mKkrsyFdjozuvDLjgj4Ru5BnRJor8xECJtLLvXE0ryXdx3tbwe7Q7EWr9tLMWrFUUFkFhM6UHM2r0MzacXqorsBx9MSkJJ/HS0drfitqcUoe2ErMnpsYVs1moeIk6qHe/mNwSSO0EyzEGZjsYMtRo4+dLDRT31RPDchXfHHFttcEXox15fMXbPYFpGDLboh2JiDrcStnHfhyG1GoZuD2ns6Hfhp9ShudblvSolRQ9x9+0dEj7HnQnrF5d8xPk8X5hxsJeq2h8FZIsGwpfuM3uwBtttXEJbmGVnQpN1oxgur/iMcEX6G81uCudfQUq/F2FOjmRNpIH1HMT5mO0kanSKi/q3yLn6InolUsZFSAAwsB7sbv+aGwdU9Foc1EeIMsOi+PkXhh+q52PYTsPakwXvZTgXWsvn1RqKIKGuyMYtbVDUPuaa3YdMV1XaQX53N7epZp5s/r2pC4Yox3CLHYR8e1XsjoTXcbLHaS5sJteNCqj9kMl+sKdYJKiYN52Bvm8P1JccwwzcpXShLY2EE7eC0ZJ82HCCL81wQr14oKhuD8Kwz0EX0UqGt+gBWhibgoGZ020L5dRETZiP7pQDxDKuJekGFhwXx/Ajy0LnIqTEcCexA+Z8CILN/HUnHBA+nfalrZT12h/NRNyRu0yEvatCbS915rxjpYTOwXrAPMwszFvb6fGzX1vcFyjOmw4mF9POKwo8Gr7eUtZpR+FnINpijw9pAJBd9ZjK2XNQshjDHrKdFjm1QrPeFbPg8bNPEaudatikd8M3evA7NpBWjC9VjnNwYDL+PiwURevh6WPzXwrZqcf6mEqjuY99Sdy5ai3R0FL6/KbT5wPNT6+HLjXCHGCzgNcFSjBzMwQ4zEUVEe80BM76p1r8fChY56h4O+qkviuZmShGWnbfY5orQi7m+ZO4aLLVFmigisklIKxPaDgETMf0TL1B7IhcZX+ah9IGhTRbkPYgPbczBbsGxROYgszm7upXLvddPCw7GsJugFK8sP2oiVJsKzyp3ItpnCCROfojbfg73DXxZ1bNybAlm00Bc8cEh7btTbTVUT05C7u8IiWwcPthzVbtxAPeDrkco2xWHaaFfocLYVI3nx5Hkyce6jjpgsKy8sxo7I0Zyjplz0Ab8VxujWVs08CQfUSwesf04rFMIR03Zb1Rou3Mee5LeguuoZBQZK1+QlbnDgeRgKxvzETtKClnAZuj5FkYFUKI+N5R/SLOTwGXOVlwV3tNaDuED9TSh6Hz96T/tinX861zZFGRoY70ZLYQ/2XUZfw5iI6t2kL46Dxu/P4qj+/8CeWwU4sP5cHsy33j89cedyC7gFwlpDbdEhgnx+3CjTTPdohuNx9cg0GU4QjafEUw3EUQesSAN0IFzGydy03xkUzJ0oeu4mj/D0eWsndnBYcZWwYgrwB5AY16z52Syk9jDZfRbmLckBlHvT4HXsMn4pOiB7kHCUvnbjiOJi188BEHyf+DKtbPYm5KKfM1QPUzXC6qHKPo0EC4SKTwXbMd1bdtW4cmFLzHXYwRmbDktGIlloXD6UNcsdOzFTMxi8bZZpBqpG3xDY7Hyk4+RFD0XE9xeRfi36s1QWE98eg7pISMwNb1C/0G/7QzkfjI+JvF72agUBAxiC7smcYsOfSA/LWy0AAshGcQe/qSjsEov1JZpZto0DlORek4d75bTfztuHkrGZI8AJP+9Xt+pMqcDltasDk3XRYwuVE15iHSSQOLgjvFBcxDxx2X4MCEZq9esR0paBrK/K8DZOm1D4Pukqb+WtlVT+Yg431m1AxGeUu4NjIN3JNJ/+Dcu3riO0sIsLJvtg5FcPHIHjJ2TiNRdp8DvSWSCpRg5ui4hPZC1OQcEZxos/u6+jM+nsmv2GLdWoTcYgO7ryHqbhfCT4c3UUl077qe+KI6bCAUZSWKxnRajF3N9ydw1C22RJtylndQD8Ud0Azd6Youwlco7u/A+t2GZFCM/+qeJXbH1Shl0X2zEwe5AZd4GJC4IwHApfwPjbmJDxmBmzGqk5RsYhZfUpMTt4l3IkkfiDfUOdZKhbyBSnoXvFHd1DoEgnbL5Kgo+j8dMbzcM9fDBtLAoJK5eiWURsxA40Q/Biz7BN4XX8FTj/wjSssPO+iJkLPWHu70MLqP9MXthFBbPC8RYT2/MSt6JUt3QnzplN24V5WBTlD9c2RxhNoVhfDjWZu5DmTYGIKC8V4iE8TLOGDv7LcKG78vVdWjFlcNZWBcxnp9jzG7y9k4Y8Zofpr4dgrenBmDiuJFw5vhJ4BaVj2aDOlvydWA42N2oPihHhO9Q3uGTumPS/BXYXGgQy1UtmPLOv5C5Ohbveg/hf88e1CSOeO3dBGSfvI/Gs7uxcdEb/C5wdhI4jZuLhM8O40ZnKy7nf4boAH6Ekm30MjIkEV8UVutuKkbhqfC0JBOho5i+mNPlAu+wDSj45Tm6rmTx0wHY7pJBa1BYZ7BgUeaH2JSP8I7fdCyMX4GYUH+M8Z6FVbvLYTjFV2vse5VGhacVB5C5LhJ+7EGMexvkgenxqcguvIJqxW58sSYcPk5qR9HeEzMStmB7sW7Kwovqw5DP98Vwbvc3xtAeHtOTsOP8QwNnzFL5O3A5J4x3KFjMaq+5SC1qQDfbOrgX9YLyN243zLCJI/HKhDmIXbsJny6fj+BpEUg58DN0u2Wr8KDPdc0agApNJTmIn+YJJ62dksDVbwnSj1SpH7SVaCzORmKIJ6QSF0xP2g6FZnEenuPng2lYwCKKcG1ThlEzE5F9sgpl+zcjbtoI9eCCBG4BUdi4Q4HG7scozfsMcUHu2msuby7Gpv0VqOqJmeoJLu/fhCVTvODk6A6f4PmIXRGHBbOmIGj+WuwpaxLYxl7qAMZ0WIdak3WpRYNYXSgf4tTXUZjoorsncNy4ARh+4bTE2Q9JBQ0COYx2VE53lvZVUzmJOd9eexQpoWPV9pnZCmeMnSfHkZNbMWeoO/z+kISMvSdQ3dzRQ1+wpM/9Dw2nvsPnSSHaPmfvFYL4lFwo7nXhQcleZCTN4BZhcvdb1wBEp+bgeE0nmsv3IT1xJl5lzj8bQBgxBbFpO6HQPAz3U1/sPbe+HUG1zObytsHy9mWsLzF7yP6Zu8aX16MtUt7Dia8SEOrrxu/kyGzumDlI2pyNI1c1T/bibaWq+RiSvR0gkTgjKKO8h3slJ9Sg+2MjDrY1ubfj0c1KXFCcwIkzl1Bzv1Xv1W9PNetue4S6qxeg+KkYZ8quoaHVcFVjTznQ9cFOQNnaiGvl5ah+1C6Y865CS91FXKisR4vA9msNNxchpQtdzxpQVXYW5ytr8djgTYqGi5g0mrS/51Mj1/WGZ2b7hOZ3vZGfTQNpvlWBcxeuovG5iafXHiutQnvTr7hYUoKL1Q8gOpseyzH1AxU6Ht/CpfOluFrfjA6xYpjKvs/PK9F2vwZXys7g9LkK/PLguaCdiimsL3TYm3LbcfPgOnyUeQp37t5CVWUpTp84jiP5ediVk4nN8tVYHj4J7t5roNAf8DeZuWVt1WQ2oi90PqlDZWkFbmk6e/t93L73wmJ9WFsOHYD+6Yt9xU1Xb/NHYm2u5Xox15fMXdPU37q2SNV6Gz/feGSTzjUjTA62pp3RJxEYBAT0DbfA8zZTdzFpzGRHl4jAICDQhsrchfCZnYVr5pxnNod4YRzyX57JNwhkpCoOVAJkcweqZvq3XuRg9y9vKo0I/C4CYgy3mDS/q5KUmAhYmYDyVi7mDZXCM/G40Wg2muopHx3D+uTdMNhZXnOZPomAKAJkc0Vhs7lE5GDbnEpJIFsmoHqwBxFcNIi3sKXCxIpuAwBi0hhkQV+JwKAiwPYRmCxjG7T4Ydm2YtQ80X/bo2ypxdn8L7EsfCUO1etfG1SCUmUHJAGyuQNSLf1eKXKw+x05FUgExBJQoulYMh+pROKG93Nr9FftG81WTBqjGdFJIjB4CKiacPqL9+AlUy/GdRyG0eMnITDQHxPGeMDF2QvvJHyLM/d795A6eASnmlqfANlc6+tgYNSAHOyBoQeqBREwT0DZiOJtciQti0F0dDT/PyYeqzakY0+JIHazMBcxaYTp6ZgIDGoCSrT8ehJ5X6ViTVIcYuJXQp6Rg78d/gmXGl4Masmo8gOUANncAaoY61SLHGzrcKdSiQARIAJEgAgQASJABGyUADnYNqpYEosIEAEiQASIABEgAkTAOgTIwbYOdyqVCBABIkAEiAARIAJEwEYJkINto4olsYgAESACRIAIEAEiQASsQ4AcbOtwp1KJABEgAkSACBABIkAEbJQAOdg2qlgSiwgQASJABIgAESACRMA6BMjBtg53KpUIEAEiQASIABEgAkTARgmQg22jiiWxiAARIAJEgAgQASJABKxDgBxs63CnUokAESACRIAIEAEiQARslAA52DaqWBKLCBABIkAEiAARIAJEwDoEyMG2DncqlQgQASJABIgAESACRMBGCZCDbaOKJbGIABEgAkSACBABIkAErEOAHGzrcKdSiQARIAJEgAgQASJABGyUADnYNqpYEosIEAEiQASIABEgAkTAOgTIwbYOdyqVCBABIkAEiAARIAJEwEYJkINto4olsYgAESACRIAIEAEiQASsQ4AcbOtwp1KJABEgAkSACBABIkAEbJTA/wGwsQjD9lz+xQAAAABJRU5ErkJggg==;" parent="1" vertex="1">
          <mxGeometry x="120" y="50" width="510.88" height="200" as="geometry" />
        </mxCell>
        <mxCell id="BVx5rpm0QCm9_0AkrCD--5" value="" style="group" parent="1" vertex="1" connectable="0">
          <mxGeometry x="100" y="410" width="580" height="43" as="geometry" />
        </mxCell>
        <mxCell id="IonnQajtelr33Xtonefx-1" value="" style="endArrow=none;html=1;rounded=0;" parent="BVx5rpm0QCm9_0AkrCD--5" edge="1">
          <mxGeometry width="50" height="50" relative="1" as="geometry">
            <mxPoint x="60" y="14" as="sourcePoint" />
            <mxPoint x="670" y="10" as="targetPoint" />
          </mxGeometry>
        </mxCell>
        <mxCell id="BVx5rpm0QCm9_0AkrCD--3" value="S1" style="text;html=1;align=center;verticalAlign=middle;whiteSpace=wrap;rounded=0;" parent="BVx5rpm0QCm9_0AkrCD--5" vertex="1">
          <mxGeometry width="60" height="30" as="geometry" />
        </mxCell>
        <mxCell id="BVx5rpm0QCm9_0AkrCD--6" value="" style="group" parent="1" vertex="1" connectable="0">
          <mxGeometry x="100" y="467" width="580" height="53" as="geometry" />
        </mxCell>
        <mxCell id="BVx5rpm0QCm9_0AkrCD--7" value="" style="endArrow=none;html=1;rounded=0;" parent="BVx5rpm0QCm9_0AkrCD--6" edge="1">
          <mxGeometry width="50" height="50" relative="1" as="geometry">
            <mxPoint x="60" y="14" as="sourcePoint" />
            <mxPoint x="670" y="14" as="targetPoint" />
          </mxGeometry>
        </mxCell>
        <mxCell id="BVx5rpm0QCm9_0AkrCD--8" value="S1.C" style="text;html=1;align=center;verticalAlign=middle;whiteSpace=wrap;rounded=0;" parent="BVx5rpm0QCm9_0AkrCD--6" vertex="1">
          <mxGeometry width="60" height="30" as="geometry" />
        </mxCell>
        <mxCell id="O3Wke8OLRP9PxBDbUxBz-119" value="" style="endArrow=classic;html=1;rounded=0;dashed=1;dashPattern=8 8;" edge="1" parent="BVx5rpm0QCm9_0AkrCD--6">
          <mxGeometry width="50" height="50" relative="1" as="geometry">
            <mxPoint x="480" y="63" as="sourcePoint" />
            <mxPoint x="520" y="13" as="targetPoint" />
          </mxGeometry>
        </mxCell>
        <mxCell id="O3Wke8OLRP9PxBDbUxBz-120" value="w8" style="edgeLabel;html=1;align=center;verticalAlign=middle;resizable=0;points=[];" vertex="1" connectable="0" parent="O3Wke8OLRP9PxBDbUxBz-119">
          <mxGeometry x="-0.1346" y="3" relative="1" as="geometry">
            <mxPoint x="-1" as="offset" />
          </mxGeometry>
        </mxCell>
        <mxCell id="BVx5rpm0QCm9_0AkrCD--9" value="" style="group" parent="1" vertex="1" connectable="0">
          <mxGeometry x="100" y="520" width="580" height="270" as="geometry" />
        </mxCell>
        <mxCell id="BVx5rpm0QCm9_0AkrCD--10" value="" style="endArrow=none;html=1;rounded=0;" parent="BVx5rpm0QCm9_0AkrCD--9" edge="1">
          <mxGeometry width="50" height="50" relative="1" as="geometry">
            <mxPoint x="60" y="14" as="sourcePoint" />
            <mxPoint x="670" y="14" as="targetPoint" />
          </mxGeometry>
        </mxCell>
        <mxCell id="BVx5rpm0QCm9_0AkrCD--11" value="S1.CM" style="text;html=1;align=center;verticalAlign=middle;whiteSpace=wrap;rounded=0;" parent="BVx5rpm0QCm9_0AkrCD--9" vertex="1">
          <mxGeometry width="60" height="30" as="geometry" />
        </mxCell>
        <mxCell id="BVx5rpm0QCm9_0AkrCD--12" value="" style="group" parent="1" vertex="1" connectable="0">
          <mxGeometry x="100" y="570" width="580" height="210" as="geometry" />
        </mxCell>
        <mxCell id="BVx5rpm0QCm9_0AkrCD--13" value="" style="endArrow=none;html=1;rounded=0;" parent="BVx5rpm0QCm9_0AkrCD--12" edge="1">
          <mxGeometry width="50" height="50" relative="1" as="geometry">
            <mxPoint x="60" y="14" as="sourcePoint" />
            <mxPoint x="670" y="14" as="targetPoint" />
          </mxGeometry>
        </mxCell>
        <mxCell id="BVx5rpm0QCm9_0AkrCD--14" value="S2" style="text;html=1;align=center;verticalAlign=middle;whiteSpace=wrap;rounded=0;" parent="BVx5rpm0QCm9_0AkrCD--12" vertex="1">
          <mxGeometry width="60" height="30" as="geometry" />
        </mxCell>
        <mxCell id="O3Wke8OLRP9PxBDbUxBz-86" value="" style="endArrow=classic;html=1;rounded=0;" edge="1" parent="BVx5rpm0QCm9_0AkrCD--12">
          <mxGeometry width="50" height="50" relative="1" as="geometry">
            <mxPoint x="180" y="18" as="sourcePoint" />
            <mxPoint x="200" y="208" as="targetPoint" />
          </mxGeometry>
        </mxCell>
        <mxCell id="O3Wke8OLRP9PxBDbUxBz-110" value="w2" style="edgeLabel;html=1;align=center;verticalAlign=middle;resizable=0;points=[];" vertex="1" connectable="0" parent="O3Wke8OLRP9PxBDbUxBz-86">
          <mxGeometry x="-0.2325" y="-1" relative="1" as="geometry">
            <mxPoint as="offset" />
          </mxGeometry>
        </mxCell>
        <mxCell id="O3Wke8OLRP9PxBDbUxBz-92" value="" style="endArrow=classic;html=1;rounded=0;dashed=1;dashPattern=8 8;" edge="1" parent="BVx5rpm0QCm9_0AkrCD--12">
          <mxGeometry width="50" height="50" relative="1" as="geometry">
            <mxPoint x="320" y="158" as="sourcePoint" />
            <mxPoint x="340" y="120" as="targetPoint" />
          </mxGeometry>
        </mxCell>
        <mxCell id="O3Wke8OLRP9PxBDbUxBz-93" value="w6" style="edgeLabel;html=1;align=center;verticalAlign=middle;resizable=0;points=[];" vertex="1" connectable="0" parent="O3Wke8OLRP9PxBDbUxBz-92">
          <mxGeometry x="-0.1346" y="3" relative="1" as="geometry">
            <mxPoint x="-1" as="offset" />
          </mxGeometry>
        </mxCell>
        <mxCell id="O3Wke8OLRP9PxBDbUxBz-94" value="" style="endArrow=classic;html=1;rounded=0;" edge="1" parent="BVx5rpm0QCm9_0AkrCD--12">
          <mxGeometry width="50" height="50" relative="1" as="geometry">
            <mxPoint x="350" y="160" as="sourcePoint" />
            <mxPoint x="480" y="-42" as="targetPoint" />
          </mxGeometry>
        </mxCell>
        <mxCell id="O3Wke8OLRP9PxBDbUxBz-121" value="w7" style="edgeLabel;html=1;align=center;verticalAlign=middle;resizable=0;points=[];" vertex="1" connectable="0" parent="O3Wke8OLRP9PxBDbUxBz-94">
          <mxGeometry x="0.1877" relative="1" as="geometry">
            <mxPoint as="offset" />
          </mxGeometry>
        </mxCell>
        <mxCell id="O3Wke8OLRP9PxBDbUxBz-96" value="" style="endArrow=classic;html=1;rounded=0;dashed=1;dashPattern=8 8;" edge="1" parent="BVx5rpm0QCm9_0AkrCD--12">
          <mxGeometry width="50" height="50" relative="1" as="geometry">
            <mxPoint x="240" y="208" as="sourcePoint" />
            <mxPoint x="270" y="280" as="targetPoint" />
          </mxGeometry>
        </mxCell>
        <mxCell id="O3Wke8OLRP9PxBDbUxBz-116" value="w4" style="edgeLabel;html=1;align=center;verticalAlign=middle;resizable=0;points=[];" vertex="1" connectable="0" parent="O3Wke8OLRP9PxBDbUxBz-96">
          <mxGeometry x="-0.0025" relative="1" as="geometry">
            <mxPoint as="offset" />
          </mxGeometry>
        </mxCell>
        <mxCell id="O3Wke8OLRP9PxBDbUxBz-100" value="" style="endArrow=classic;html=1;rounded=0;" edge="1" parent="BVx5rpm0QCm9_0AkrCD--12">
          <mxGeometry width="50" height="50" relative="1" as="geometry">
            <mxPoint x="270" y="270" as="sourcePoint" />
            <mxPoint x="320" y="158" as="targetPoint" />
          </mxGeometry>
        </mxCell>
        <mxCell id="O3Wke8OLRP9PxBDbUxBz-117" value="w5" style="edgeLabel;html=1;align=center;verticalAlign=middle;resizable=0;points=[];" vertex="1" connectable="0" parent="O3Wke8OLRP9PxBDbUxBz-100">
          <mxGeometry x="0.3348" y="1" relative="1" as="geometry">
            <mxPoint as="offset" />
          </mxGeometry>
        </mxCell>
        <mxCell id="O3Wke8OLRP9PxBDbUxBz-102" value="" style="endArrow=classic;html=1;rounded=0;" edge="1" parent="BVx5rpm0QCm9_0AkrCD--12">
          <mxGeometry width="50" height="50" relative="1" as="geometry">
            <mxPoint x="160" y="-142" as="sourcePoint" />
            <mxPoint x="180" y="18" as="targetPoint" />
          </mxGeometry>
        </mxCell>
        <mxCell id="O3Wke8OLRP9PxBDbUxBz-109" value="w1" style="edgeLabel;html=1;align=center;verticalAlign=middle;resizable=0;points=[];" vertex="1" connectable="0" parent="O3Wke8OLRP9PxBDbUxBz-102">
          <mxGeometry x="0.0228" y="-1" relative="1" as="geometry">
            <mxPoint y="1" as="offset" />
          </mxGeometry>
        </mxCell>
        <mxCell id="O3Wke8OLRP9PxBDbUxBz-104" value="(3)" style="rounded=0;whiteSpace=wrap;html=1;" vertex="1" parent="BVx5rpm0QCm9_0AkrCD--12">
          <mxGeometry x="210" y="208" width="30" height="10" as="geometry" />
        </mxCell>
        <mxCell id="BVx5rpm0QCm9_0AkrCD--25" value="&lt;div style=&quot;text-align: justify; font-size: 14px;&quot;&gt;&lt;b&gt;Write Process&lt;/b&gt;&lt;span style=&quot;background-color: initial;&quot;&gt;&lt;font style=&quot;font-size: 14px;&quot;&gt;&lt;br&gt;&lt;/font&gt;&lt;/span&gt;&lt;/div&gt;&lt;div style=&quot;text-align: justify; font-size: 14px;&quot;&gt;&lt;span style=&quot;background-color: initial;&quot;&gt;&lt;font style=&quot;font-size: 14px;&quot;&gt;(1) call(&quot;write&quot;,k,v)&lt;/font&gt;&lt;/span&gt;&lt;/div&gt;&lt;div style=&quot;text-align: justify; font-size: 14px;&quot;&gt;&lt;font style=&quot;font-size: 14px;&quot;&gt;(2) call(&quot;write&quot;,k,v)&lt;/font&gt;&lt;/div&gt;&lt;div style=&quot;text-align: justify; font-size: 14px;&quot;&gt;&lt;span style=&quot;background-color: initial;&quot;&gt;&lt;font style=&quot;font-size: 14px;&quot;&gt;(3) Write(k,v)&lt;/font&gt;&lt;/span&gt;&lt;/div&gt;&lt;div style=&quot;text-align: justify; font-size: 14px;&quot;&gt;&lt;span style=&quot;background-color: initial;&quot;&gt;&lt;font style=&quot;font-size: 14px;&quot;&gt;(4) Inv(k)&lt;/font&gt;&lt;/span&gt;&lt;/div&gt;&lt;div style=&quot;text-align: justify; font-size: 14px;&quot;&gt;&lt;span style=&quot;background-color: initial;&quot;&gt;&lt;font style=&quot;font-size: 14px;&quot;&gt;(5) Inv(call)&lt;/font&gt;&lt;/span&gt;&lt;/div&gt;&lt;div style=&quot;text-align: justify; font-size: 14px;&quot;&gt;&lt;span style=&quot;background-color: initial;&quot;&gt;&lt;font style=&quot;font-size: 14px;&quot;&gt;(6) Cache.delete(call(read,k))&lt;/font&gt;&lt;/span&gt;&lt;/div&gt;&lt;div style=&quot;text-align: justify; font-size: 14px;&quot;&gt;&lt;span style=&quot;background-color: initial;&quot;&gt;&lt;font style=&quot;font-size: 14px;&quot;&gt;(7) Inv(call)&lt;/font&gt;&lt;/span&gt;&lt;/div&gt;&lt;div style=&quot;text-align: justify; font-size: 14px;&quot;&gt;&lt;span style=&quot;background-color: initial;&quot;&gt;&lt;font style=&quot;font-size: 14px;&quot;&gt;(8)&amp;nbsp;&lt;/font&gt;&lt;/span&gt;&lt;span style=&quot;background-color: initial;&quot;&gt;Cache.delete(&lt;/span&gt;call(read,k)&lt;span style=&quot;background-color: initial;&quot;&gt;)&lt;/span&gt;&lt;/div&gt;&lt;div style=&quot;text-align: justify; font-size: 14px;&quot;&gt;&lt;span style=&quot;background-color: initial;&quot;&gt;&lt;br&gt;&lt;/span&gt;&lt;/div&gt;&lt;div style=&quot;text-align: justify; font-size: 14px;&quot;&gt;&lt;b&gt;Read Process&lt;/b&gt;&lt;br&gt;&lt;/div&gt;&lt;div style=&quot;text-align: justify; font-size: 14px;&quot;&gt;&lt;font style=&quot;font-size: 14px;&quot;&gt;(1) Cache.get(call(read,k))&lt;/font&gt;&lt;/div&gt;&lt;div style=&quot;text-align: justify; font-size: 14px;&quot;&gt;&lt;br&gt;&lt;/div&gt;&lt;div style=&quot;text-align: justify; font-size: 14px;&quot;&gt;&lt;br&gt;&lt;/div&gt;&lt;div style=&quot;text-align: justify; font-size: 14px;&quot;&gt;&lt;br&gt;&lt;/div&gt;" style="text;html=1;align=center;verticalAlign=middle;whiteSpace=wrap;rounded=0;" parent="1" vertex="1">
          <mxGeometry x="827" y="410" width="213" height="280" as="geometry" />
        </mxCell>
        <mxCell id="BVx5rpm0QCm9_0AkrCD--31" value="" style="shape=image;verticalLabelPosition=bottom;labelBackgroundColor=default;verticalAlign=top;aspect=fixed;imageAspect=0;image=data:image/png,iVBORw0KGgoAAAANSUhEUgAAABcAAAAXCAYAAADgKtSgAAAACXBIWXMAABJ0AAASdAHeZh94AAAIZklEQVRIDQFbCKT3AQAAAAAAAAAAAAAAAAAAAAAAAAAAAAAAAOVMWRQCAgZV/v7/RQAAASwAAAAW////CgEBAOv/AAHkAQD/wQECAbQasqHCAAAAAAAAAAAAAAAAAAAAAAAAAAAAAAAAAQAAAAAAAAAAAAAAAAAAAADbSW0HCgPwcQEAAW7/AAAZAAAAAAAAAAAAAAAAAAAAAAAAAAAAAAAAAAAAAAAAAAAAAQC0Av8Agxm0osoAAAAAAAAAAAAAAAAAAAAAAQAAAAAAAAAAAAAAAOxMXhv5AAGhAAD/QwAAAAAAAAAAAAAA9gAAAMgAAQHiAAD/9v//ABYBAf8tAP8BJwAAAAAAAAAAAP8A9f4BAHAdtKKcAAAAAAAAAAAAAAAAAQAAAAAAAAAA5ElkHAED+roAAAApAAAAAP8AAOUBAACR9v0DoCW3n+sAAAAAAAAAAAAAAAAAAAAA4ktcPQMBA3IAAP9PAAAAAQAAAP/+AAB3HbSiiwAAAAAAAAAAAQAAAADfQGAIBQz9twEAAUAAAAAAAP//uwYHCV8VrprnAAAAAAAAAAAAAAAAAAAAAAAAAAAAAAAAAAAAAAAAAADjTF5kAgD/jwAAAQwAAAD6AAACVxu0oLAAAAAAAgAAAAAGDP1wAQABQAAAAAAA//+79v4QTRWumucAAAAAAAAAAAAAAAAAAAAAAAAAAAAAAAAAAAAAAAAAAAAAAAAdtKKc//8AYgEBAPsAAAAGAQD+jttJWw4AAAAABNtJYRUBAP1v/wAAAAAAAOQFCgNeJauT+eVLXmoAAQBdAQD+lBq0pKUAAAAAAAAAAAAAAADcRl0WBwUBkAIBABP2/QNcHLWfq+ZLXS8AAQF7/wAAIQgDA3IAAACAAgkC/lT/AAAYAAAAAP///5AWq6DoAAAAAAABAFsAAAA4/wACneJLXmIAAAAAAAAAANtJVRUJBQGvAgEAWQAAAEYIA/08AAAAAPLwBYkBAQDgAAAAAAMB/1UAAAAAAgAC/0QAAAAAAAD/9PP4AaAAAAAAAAAAAAEA/pYAAAD5AAAABwMBAJblTF9h5UxZFAoCCa8AAQA6AAAAAP8B/8H8FAK3AAAAACjFnvP//wGtAAAAAP//ASroTVs4AgD/AC4AAAAAAAEAxym9ou0AAAAAAAAAABq0pKX+/gBsAAAA+QAAAAcAAP+X/wEFvQABADsAAAAAAAEAwgD2AVMhoKD4AAAAAAAAAAD/Af/AAAAAAAAAAAD8/wIwAgIAABYAAAAAAP8B4wAAAAAAAAAAAAAAAAAAAAAdtqKc/v4AbAAAAPkAAAAHAf8ALgAAAAAAAQDC/voFURy9ou0AAAAAAAAAAAAAAAAA//7jAAAAAAAAAAADAQIWAv7/AAkAAAAA/gD/9wAAAAAAAAAAAAAAAAAAAAAAAAAABwACtAD//90AAAAAAAAAAAAAAAD//wCxHbmd7gAAAAAAAAAAAAAAAAAAAAADBATxAAAAAAAAAAD+//4LAgEBAOsAAAAAAv8BFQAAAAAAAAAAAAAAAAAAAADoUWgW+gH+sAABASoAAAAAAAAAAAAAAAABAACH40xeZAAAAAAAAAAAAAAAAAAAAAD+/P0cAAAAAAAAAAD/AAHpAv8AAeQAAAAAAAEALwAAAAAAAAAAAAAAAOhRaBb9+/axAQEANwAAAAAA/wDCAwECbgAAAPkAAAAGAgAAleVLX2MAAAAAAAAAAAAAAAD//wItAAAAAAAAAAAD/gHkAgEA/8EAAAAAAAAAJ+JLXD0AAAAAAAAAAP379o8AAAA4AAAAAAABAML+/AVRGLOgk/3/AGoAAAD5AAAABgAB/5XkTGIvAAAAAAAAAAABAf9KAAAAAAEAAPL49gG6AgECAbQAAAAAAAAAAAMBA3EAAAAAAAAAAAD//xIAAAAA/wH/wf76BVEduZ3uAAAAAB61op4A/wJqAAAA+QAAAAf/AP4RAAAAAOdOXkEAAABKAAAAAP8AAb4hwKDwAhqyocIAAAC0AAAAAAAA/1DjTF5kAAAAAPcGAF//AABV+xMDSB25ne4AAAAAAAAAAAAAAAAbtaCe+v4COAMB/0MdtKDA40djEv7+/4wAAAACAAAA/QED/Y4AAAAAAQAAAADmSmI0/wH8wAABAAsAAP/0AQMBXhqxoq8AAAAAAAAAAAAAAAAAAAAAAAAAAAAAAAAAAAAAAAAAAAAAAADkQ14TAgkAo/8AAEkAAAAAAAAAoRu0omAAAAAAAgAAAAAatp7MAQIAcwAAAP8AAAEMAP4AqeVMXoLYO2INAAAAAAAAAAAAAAAAAAAAAAAAAAAAAAAAAAAAAOhNXUIBCQC8/wAASQAAAAABAAHK+An3bwAAAAAAAAAAAQAAAAAAAAAAAAAAAOZMX3kAAf+B//8ABQAAAAABAQDg/wABrAL/Ab/9APzlAwQE8f/7/B39AQAvA/8CSP8BAEkAAAACAAAAAP8AAMr/Av5bHbKk3AAAAAAAAAAAAQAAAAAAAAAAAAAAAAAAAADmTF5RAAAAjf8AACEAAAAAAAAAAAAAAAAAAAAAAAAAAAAAAAAAAAAAAAAAAAAAAAAAAAD9AP//o/b+/m8lt6XyAAAAAAAAAAAAAAAAAQAAAAAAAAAAAAAAAAAAAAAAAAAA20lbDgoEAnAA/wFWAAAAKwAAAAAAAAAAAAAAAAAAAAAAAAAAAQD/8gABALz//AKOG7ehxQAAAAAAAAAAAAAAAAAAAAAAAAAAAQAAAAAAAAAAAAAAAAAAAAAAAAAAAAAAAAAAAAAAAAAA6E1bOP4AAy8BAAEX/v/+C/8AAekD///j+gD9vB+1pu8AAAAAAAAAAAAAAAAAAAAAAAAAAAAAAAAAAAAAhSmwo3uG22MAAAAASUVORK5CYII=;" parent="1" vertex="1">
          <mxGeometry x="680" y="50" width="23" height="23" as="geometry" />
        </mxCell>
        <mxCell id="BVx5rpm0QCm9_0AkrCD--32" value="" style="shape=image;verticalLabelPosition=bottom;labelBackgroundColor=default;verticalAlign=top;aspect=fixed;imageAspect=0;image=data:image/png,iVBORw0KGgoAAAANSUhEUgAAABcAAAAXCAYAAADgKtSgAAAACXBIWXMAABJ0AAASdAHeZh94AAAIZklEQVRIDQFbCKT3AQAAAAAAAAAAAAAAAAAAAAAAAAAAAAAAAGrqqgz4BgJKAv//Tv8CADAA/wAbAAAACAAAAOYAAADd//8AtgEAAq+dEVPhAAAAAAAAAAAAAAAAAAAAAAAAAAAAAAAAAQAAAAAAAAAAAAAAAAAAAAB//78E5fHrZf4AAYABAAAWAAAAAAAAAAAAAAAAAAAAAAAAAAAAAAAAAAAAAAAAAP0BAACbAAT7gJwMWukAAAAAAAAAAAAAAAAAAAAAAQAAAAAAAAAAAAAAAF7yrhME/v2qAAAAQgAAAAAAAAAAAAAAAAAAAAAAAAAAAAAAAAAAAAAAAAAAAAAAAAAAAAAAAAAAAAAA6f8CAFKfDlXGAAAAAAAAAAAAAAAAAQAAAAAAAAAAXvKuEwT9/Mb/AAAmAAAAAAAAAAAAAAAAAAAAAAAAAAAAAAAAAAAAAAAAAAAAAAAAAAAAAAAAAAAAAAAAAAAAAAAAAPr/AQBMoBBWuwAAAAAAAAAAAgAAAAB//78EAvv7qv7//yb///8A////AP///wD///8A////AP///wD///8A////AP///wD///8A////AP///wD///8A////AP///wYA/v+qYPGsJQAAAAAAAAAAAgAAAADg7+ll/wD/Qv///wD///8A////AP///wD///8A////AP///wD///8A////AP///wD///8A////AP///wD///8A////AP///wD///8Q/vz9mAD//wEAAAAAAVXqqgwIAv3dAAAAFgAAAAAAAAAAAAAAAAAAAAAAAAAAAAAAAAAAAAAAAAAAAAAAAAAAAAAAAAAAAAAAAAAAAAAAAAAAAAAAAAAAAAAAAAAAAAAAAAAB/kijE1u5AgcA/Er+/v4W/v7+AP7+/gD+/v4A/v7+AP7+/gD+/v4A/v7+AP7+/gD+/v4A/v7+AP7+/gAxBRoAGAEMAP7+/gD+/v4A/v7+AP7+/gD+/v4A/v7+AP79AGMAAAAABP3+/U4AAAAAAAAAAAAAAAAAAAAAAAAAAAAAAAAAAAAAAAAAAAAAAAAAAAAAAAAAAB8EEQBdCzMA/gD/AKXzzgDL+eIAAAAAAAAAAAAAAAAAAAAAAAAAAElg358IBPz+/jABAAAAAAAAAAAAAAAAAAAAAAAAAAAAAAAAAAAAAAAAAAAAAAAAAAAACQEFAGIONgADAAEAAwABAPb++gD9/v4AAAAAAAAAAAAAAAAAAAAAAAAAAAz1CAUiBP/+/hv/AAAAAAAAAAAAAAAAAAAAAAAAAAAAAAAoBhcAGgQOAL/22wAAAAAAXBAzABQCCwAAAAAAuvXZAND35AAAAAAAAAAAAAAAAAAAAAAAAAAAAAAAAAAAAP8ZBP3+/ggAAAAAAAAAAAAAAAAAAAAAAAAAABIDCgBlEDgADAIHACEFEgDi+/AAMggcAP8AAADd+uwArPHRAP0A/gAAAAAAAAAAAAAAAAAAAAAAAAAAAAAAAAAB/v8IBP3+/uYAAAAiAAAAAAAAAAAAAAAAAAAAAA4ECAD/AP8AAAAAADYJHwA2CR8AAAAAAPX++gCW7cQA+v78AAAAAAAAAAAAAAAAAAAAAAAAAAAAAAAAAAAAAAACAQDoAv39/d39/f0A/f39AP39/QD9/f0A/f39ANr36QB95rUA3PnrAAAA/wAAAP8AAAD/AJjsxADr+vMA/f39AP39/QD9/f0A/f39AP39/QD9/f0A/f39AP39/f8B9vngAvz+/Lb8/f0A/P39APz9/QD8/f0A/P39APz9/QDq+vMAg+a4ALzy2gD//wAAsfDTAM304gD8/f0A/P39APz9/QD8/f0A/P39APz9/QD8/f0A/P39APz8/cevKWztBPv7AK8BAf2MAAAAAwAAAAAAAAAAAAAAAAAAAAAAAAAA/AD9AJrpxADM9OEA0fblAP3//gAAAAAAAAAAAAAAAAAAAAAAAAAAAAAAAAAAAAAAAAAAAAABAaoAAAAAAQAAAAA+1ZCXAf//aAAAAAAAAAAAAAAAAAAAAAAAAAAAAAAAAAAAAAAAAAAAAAAAAAAAAAAAAAAAAAAAAAAAAAAAAAAAAAAAAAAAAAAAAAAAAAAA4/ry/yfHOnL3BAAAAAD5/gCABP79UQAAABcAAAAAAAAAAAAAAAAAAAAAAAAAAAAAAAAAAAAAAAAAAAAAAAAAAAAAAAAAAAAAAAAAAAAAAAAAAAAAAAAAAAAA/wABccc6c/cAAAAAAQAAAAAAAAAAOc+IOv7/AcAAAAAFAAAAAAAAAAAAAAAAAAAAAAAAAAAAAAAAAAAAAAAAAAAAAAAAAAAAAAAAAAAAAAAAAAAAAAAAAAAAAACHyTJ3egAAAAAAAAAAAQAAAAAAAAAAAAAAADTLhUX+/wCqAAAAEAAAAAAAAAAAAAAAAAAAAAAAAAAAAAAAAAAAAAAAAAAAAAAAAAAAAAAAAAAAAAAAAP8AAIfPNfp8AAGB/gAAAAAAAAAAAQAAAAAAAAAAAAAAAAAAAAAwyIMl/f7/mAAA/0IAAAAAAAAAAAAAAAAAAAAAAAAAAAAAAAAAAAAAAAAAAAAAAAAA/wDjAQAAcdI7f60AAAAAAAAAAAAAAAAAAAAAAQAAAAAAAAAAAAAAAAAAAAAAAAAAAP8AASjDfkYA//5jAAEBSQAAAAwAAAAAAAAAAAAAAAAAAAD/AAABx////qr1BfWa5DqP9wAAAAAAAAAAAAAAAAAAAAAAAAAAAQAAAAAAAAAAAAAAAAAAAAAAAAAAAAAAAAAAAAAAAAAAIL9/CAT9+iL+AgEZAwAACP4A/ugF/gHg2ESH7QAAAAAAAAAAAAAAAAAAAAAAAAAAAAAAAAAAAAAAAAAA0LsK6R89ItIAAAAASUVORK5CYII=;" parent="1" vertex="1">
          <mxGeometry x="720" y="50" width="23" height="23" as="geometry" />
        </mxCell>
        <mxCell id="BVx5rpm0QCm9_0AkrCD--45" value="" style="group" parent="1" vertex="1" connectable="0">
          <mxGeometry x="100" y="620" width="580" height="30" as="geometry" />
        </mxCell>
        <mxCell id="BVx5rpm0QCm9_0AkrCD--46" value="" style="endArrow=none;html=1;rounded=0;" parent="BVx5rpm0QCm9_0AkrCD--45" edge="1">
          <mxGeometry width="50" height="50" relative="1" as="geometry">
            <mxPoint x="60" y="14" as="sourcePoint" />
            <mxPoint x="670" y="14" as="targetPoint" />
          </mxGeometry>
        </mxCell>
        <mxCell id="BVx5rpm0QCm9_0AkrCD--47" value="S3" style="text;html=1;align=center;verticalAlign=middle;whiteSpace=wrap;rounded=0;" parent="BVx5rpm0QCm9_0AkrCD--45" vertex="1">
          <mxGeometry width="60" height="30" as="geometry" />
        </mxCell>
        <mxCell id="BVx5rpm0QCm9_0AkrCD--48" value="" style="group" parent="1" vertex="1" connectable="0">
          <mxGeometry x="100" y="670" width="580" height="43" as="geometry" />
        </mxCell>
        <mxCell id="BVx5rpm0QCm9_0AkrCD--49" value="" style="endArrow=none;html=1;rounded=0;" parent="BVx5rpm0QCm9_0AkrCD--48" edge="1">
          <mxGeometry width="50" height="50" relative="1" as="geometry">
            <mxPoint x="60" y="14" as="sourcePoint" />
            <mxPoint x="670" y="14" as="targetPoint" />
          </mxGeometry>
        </mxCell>
        <mxCell id="BVx5rpm0QCm9_0AkrCD--50" value="S3.C" style="text;html=1;align=center;verticalAlign=middle;whiteSpace=wrap;rounded=0;" parent="BVx5rpm0QCm9_0AkrCD--48" vertex="1">
          <mxGeometry width="60" height="30" as="geometry" />
        </mxCell>
        <mxCell id="BVx5rpm0QCm9_0AkrCD--51" value="" style="group" parent="1" vertex="1" connectable="0">
          <mxGeometry x="100" y="720" width="580" height="30" as="geometry" />
        </mxCell>
        <mxCell id="BVx5rpm0QCm9_0AkrCD--52" value="" style="endArrow=none;html=1;rounded=0;" parent="BVx5rpm0QCm9_0AkrCD--51" edge="1">
          <mxGeometry width="50" height="50" relative="1" as="geometry">
            <mxPoint x="60" y="14" as="sourcePoint" />
            <mxPoint x="670" y="14" as="targetPoint" />
          </mxGeometry>
        </mxCell>
        <mxCell id="BVx5rpm0QCm9_0AkrCD--53" value="S3.CM" style="text;html=1;align=center;verticalAlign=middle;whiteSpace=wrap;rounded=0;" parent="BVx5rpm0QCm9_0AkrCD--51" vertex="1">
          <mxGeometry width="60" height="30" as="geometry" />
        </mxCell>
        <mxCell id="BVx5rpm0QCm9_0AkrCD--67" value="" style="group" parent="1" vertex="1" connectable="0">
          <mxGeometry x="100" y="770" width="580" height="30" as="geometry" />
        </mxCell>
        <mxCell id="BVx5rpm0QCm9_0AkrCD--68" value="" style="endArrow=none;html=1;rounded=0;" parent="BVx5rpm0QCm9_0AkrCD--67" edge="1">
          <mxGeometry width="50" height="50" relative="1" as="geometry">
            <mxPoint x="60" y="14" as="sourcePoint" />
            <mxPoint x="670" y="14" as="targetPoint" />
          </mxGeometry>
        </mxCell>
        <mxCell id="O3Wke8OLRP9PxBDbUxBz-111" value="w3" style="edgeLabel;html=1;align=center;verticalAlign=middle;resizable=0;points=[];" vertex="1" connectable="0" parent="BVx5rpm0QCm9_0AkrCD--68">
          <mxGeometry x="-0.4662" relative="1" as="geometry">
            <mxPoint as="offset" />
          </mxGeometry>
        </mxCell>
        <mxCell id="BVx5rpm0QCm9_0AkrCD--69" value="Rev.Stor." style="text;html=1;align=center;verticalAlign=middle;whiteSpace=wrap;rounded=0;" parent="BVx5rpm0QCm9_0AkrCD--67" vertex="1">
          <mxGeometry width="60" height="30" as="geometry" />
        </mxCell>
        <mxCell id="BVx5rpm0QCm9_0AkrCD--70" value="" style="group" parent="1" vertex="1" connectable="0">
          <mxGeometry x="100" y="830" width="580" height="30" as="geometry" />
        </mxCell>
        <mxCell id="BVx5rpm0QCm9_0AkrCD--71" value="" style="endArrow=none;html=1;rounded=0;" parent="BVx5rpm0QCm9_0AkrCD--70" edge="1">
          <mxGeometry width="50" height="50" relative="1" as="geometry">
            <mxPoint x="60" y="14" as="sourcePoint" />
            <mxPoint x="670" y="14" as="targetPoint" />
          </mxGeometry>
        </mxCell>
        <mxCell id="BVx5rpm0QCm9_0AkrCD--72" value="S4.CM" style="text;html=1;align=center;verticalAlign=middle;whiteSpace=wrap;rounded=0;" parent="BVx5rpm0QCm9_0AkrCD--70" vertex="1">
          <mxGeometry width="60" height="30" as="geometry" />
        </mxCell>
        <mxCell id="O3Wke8OLRP9PxBDbUxBz-74" value="&lt;b style=&quot;font-size: 16px;&quot;&gt;次序：wrc&lt;/b&gt;&lt;div&gt;&lt;b style=&quot;font-size: 16px;&quot;&gt;write完毕 ~ cache3更新完毕&lt;/b&gt;&lt;/div&gt;" style="text;html=1;align=center;verticalAlign=middle;whiteSpace=wrap;rounded=0;" vertex="1" parent="1">
          <mxGeometry x="1220" y="1086" width="220" height="90" as="geometry" />
        </mxCell>
        <mxCell id="QklGPaeIDomwiR8OTyBh-51" value="" style="endArrow=classic;html=1;rounded=0;dashed=1;dashPattern=8 8;" parent="1" edge="1">
          <mxGeometry width="50" height="50" relative="1" as="geometry">
            <mxPoint x="200" y="470" as="sourcePoint" />
            <mxPoint x="230" y="420" as="targetPoint" />
          </mxGeometry>
        </mxCell>
        <mxCell id="QklGPaeIDomwiR8OTyBh-52" value="" style="endArrow=classic;html=1;rounded=0;dashed=1;dashPattern=8 8;" parent="1" edge="1">
          <mxGeometry width="50" height="50" relative="1" as="geometry">
            <mxPoint x="170" y="420" as="sourcePoint" />
            <mxPoint x="200" y="480" as="targetPoint" />
          </mxGeometry>
        </mxCell>
        <mxCell id="O3Wke8OLRP9PxBDbUxBz-84" value="r1" style="edgeLabel;html=1;align=center;verticalAlign=middle;resizable=0;points=[];" vertex="1" connectable="0" parent="QklGPaeIDomwiR8OTyBh-52">
          <mxGeometry x="0.0107" y="-2" relative="1" as="geometry">
            <mxPoint as="offset" />
          </mxGeometry>
        </mxCell>
        <mxCell id="O3Wke8OLRP9PxBDbUxBz-75" value="" style="shape=image;verticalLabelPosition=bottom;labelBackgroundColor=default;verticalAlign=top;aspect=fixed;imageAspect=0;image=data:image/png,iVBORw0KGgoAAAANSUhEUgAAABcAAAAXCAYAAADgKtSgAAAACXBIWXMAABJ0AAASdAHeZh94AAAIZklEQVRIDQFbCKT3AQAAAAAAAAAAAAAAAAAAAAAAAAAAAAAAAGrqqgz4BgJKAv//Tv8CADAA/wAbAAAACAAAAOYAAADd//8AtgEAAq+dEVPhAAAAAAAAAAAAAAAAAAAAAAAAAAAAAAAAAQAAAAAAAAAAAAAAAAAAAAB//78E5fHrZf4AAYABAAAWAAAAAAAAAAAAAAAAAAAAAAAAAAAAAAAAAAAAAAAAAP0BAACbAAT7gJwMWukAAAAAAAAAAAAAAAAAAAAAAQAAAAAAAAAAAAAAAF7yrhME/v2qAAAAQgAAAAAAAAAAAAAAAAAAAAAAAAAAAAAAAAAAAAAAAAAAAAAAAAAAAAAAAAAAAAAA6f8CAFKfDlXGAAAAAAAAAAAAAAAAAQAAAAAAAAAAXvKuEwT9/Mb/AAAmAAAAAAAAAAAAAAAAAAAAAAAAAAAAAAAAAAAAAAAAAAAAAAAAAAAAAAAAAAAAAAAAAAAAAAAAAPr/AQBMoBBWuwAAAAAAAAAAAgAAAAB//78EAvv7qv7//yb///8A////AP///wD///8A////AP///wD///8A////AP///wD///8A////AP///wD///8A////AP///wYA/v+qYPGsJQAAAAAAAAAAAgAAAADg7+ll/wD/Qv///wD///8A////AP///wD///8A////AP///wD///8A////AP///wD///8A////AP///wD///8A////AP///wD///8Q/vz9mAD//wEAAAAAAVXqqgwIAv3dAAAAFgAAAAAAAAAAAAAAAAAAAAAAAAAAAAAAAAAAAAAAAAAAAAAAAAAAAAAAAAAAAAAAAAAAAAAAAAAAAAAAAAAAAAAAAAAAAAAAAAAB/kijE1u5AgcA/Er+/v4W/v7+AP7+/gD+/v4A/v7+AP7+/gD+/v4A/v7+AP7+/gD+/v4A/v7+AP7+/gAxBRoAGAEMAP7+/gD+/v4A/v7+AP7+/gD+/v4A/v7+AP79AGMAAAAABP3+/U4AAAAAAAAAAAAAAAAAAAAAAAAAAAAAAAAAAAAAAAAAAAAAAAAAAAAAAAAAAB8EEQBdCzMA/gD/AKXzzgDL+eIAAAAAAAAAAAAAAAAAAAAAAAAAAElg358IBPz+/jABAAAAAAAAAAAAAAAAAAAAAAAAAAAAAAAAAAAAAAAAAAAAAAAAAAAACQEFAGIONgADAAEAAwABAPb++gD9/v4AAAAAAAAAAAAAAAAAAAAAAAAAAAz1CAUiBP/+/hv/AAAAAAAAAAAAAAAAAAAAAAAAAAAAAAAoBhcAGgQOAL/22wAAAAAAXBAzABQCCwAAAAAAuvXZAND35AAAAAAAAAAAAAAAAAAAAAAAAAAAAAAAAAAAAP8ZBP3+/ggAAAAAAAAAAAAAAAAAAAAAAAAAABIDCgBlEDgADAIHACEFEgDi+/AAMggcAP8AAADd+uwArPHRAP0A/gAAAAAAAAAAAAAAAAAAAAAAAAAAAAAAAAAB/v8IBP3+/uYAAAAiAAAAAAAAAAAAAAAAAAAAAA4ECAD/AP8AAAAAADYJHwA2CR8AAAAAAPX++gCW7cQA+v78AAAAAAAAAAAAAAAAAAAAAAAAAAAAAAAAAAAAAAACAQDoAv39/d39/f0A/f39AP39/QD9/f0A/f39ANr36QB95rUA3PnrAAAA/wAAAP8AAAD/AJjsxADr+vMA/f39AP39/QD9/f0A/f39AP39/QD9/f0A/f39AP39/f8B9vngAvz+/Lb8/f0A/P39APz9/QD8/f0A/P39APz9/QDq+vMAg+a4ALzy2gD//wAAsfDTAM304gD8/f0A/P39APz9/QD8/f0A/P39APz9/QD8/f0A/P39APz8/cevKWztBPv7AK8BAf2MAAAAAwAAAAAAAAAAAAAAAAAAAAAAAAAA/AD9AJrpxADM9OEA0fblAP3//gAAAAAAAAAAAAAAAAAAAAAAAAAAAAAAAAAAAAAAAAAAAAABAaoAAAAAAQAAAAA+1ZCXAf//aAAAAAAAAAAAAAAAAAAAAAAAAAAAAAAAAAAAAAAAAAAAAAAAAAAAAAAAAAAAAAAAAAAAAAAAAAAAAAAAAAAAAAAAAAAAAAAA4/ry/yfHOnL3BAAAAAD5/gCABP79UQAAABcAAAAAAAAAAAAAAAAAAAAAAAAAAAAAAAAAAAAAAAAAAAAAAAAAAAAAAAAAAAAAAAAAAAAAAAAAAAAAAAAAAAAA/wABccc6c/cAAAAAAQAAAAAAAAAAOc+IOv7/AcAAAAAFAAAAAAAAAAAAAAAAAAAAAAAAAAAAAAAAAAAAAAAAAAAAAAAAAAAAAAAAAAAAAAAAAAAAAAAAAAAAAACHyTJ3egAAAAAAAAAAAQAAAAAAAAAAAAAAADTLhUX+/wCqAAAAEAAAAAAAAAAAAAAAAAAAAAAAAAAAAAAAAAAAAAAAAAAAAAAAAAAAAAAAAAAAAAAAAP8AAIfPNfp8AAGB/gAAAAAAAAAAAQAAAAAAAAAAAAAAAAAAAAAwyIMl/f7/mAAA/0IAAAAAAAAAAAAAAAAAAAAAAAAAAAAAAAAAAAAAAAAAAAAAAAAA/wDjAQAAcdI7f60AAAAAAAAAAAAAAAAAAAAAAQAAAAAAAAAAAAAAAAAAAAAAAAAAAP8AASjDfkYA//5jAAEBSQAAAAwAAAAAAAAAAAAAAAAAAAD/AAABx////qr1BfWa5DqP9wAAAAAAAAAAAAAAAAAAAAAAAAAAAQAAAAAAAAAAAAAAAAAAAAAAAAAAAAAAAAAAAAAAAAAAIL9/CAT9+iL+AgEZAwAACP4A/ugF/gHg2ESH7QAAAAAAAAAAAAAAAAAAAAAAAAAAAAAAAAAAAAAAAAAA0LsK6R89ItIAAAAASUVORK5CYII=;" vertex="1" parent="1">
          <mxGeometry x="223.5" y="387" width="23" height="23" as="geometry" />
        </mxCell>
        <mxCell id="O3Wke8OLRP9PxBDbUxBz-273" value="&lt;font style=&quot;font-size: 16px;&quot;&gt;&lt;b&gt;次序：rwc&lt;/b&gt;&lt;/font&gt;&lt;div&gt;&lt;font style=&quot;font-size: 16px;&quot;&gt;&lt;b&gt;在write操作完成之前read&lt;/b&gt;&lt;/font&gt;&lt;/div&gt;" style="text;html=1;align=center;verticalAlign=middle;whiteSpace=wrap;rounded=0;" vertex="1" parent="1">
          <mxGeometry x="1140" y="495" width="220" height="90" as="geometry" />
        </mxCell>
        <mxCell id="O3Wke8OLRP9PxBDbUxBz-494" value="" style="group" vertex="1" connectable="0" parent="1">
          <mxGeometry x="80" y="1086" width="580" height="43" as="geometry" />
        </mxCell>
        <mxCell id="O3Wke8OLRP9PxBDbUxBz-495" value="" style="endArrow=none;html=1;rounded=0;" edge="1" parent="O3Wke8OLRP9PxBDbUxBz-494">
          <mxGeometry width="50" height="50" relative="1" as="geometry">
            <mxPoint x="60" y="14" as="sourcePoint" />
            <mxPoint x="670" y="10" as="targetPoint" />
          </mxGeometry>
        </mxCell>
        <mxCell id="O3Wke8OLRP9PxBDbUxBz-496" value="S1" style="text;html=1;align=center;verticalAlign=middle;whiteSpace=wrap;rounded=0;" vertex="1" parent="O3Wke8OLRP9PxBDbUxBz-494">
          <mxGeometry width="60" height="30" as="geometry" />
        </mxCell>
        <mxCell id="O3Wke8OLRP9PxBDbUxBz-497" value="" style="group" vertex="1" connectable="0" parent="1">
          <mxGeometry x="80" y="1136" width="580" height="53" as="geometry" />
        </mxCell>
        <mxCell id="O3Wke8OLRP9PxBDbUxBz-498" value="" style="endArrow=none;html=1;rounded=0;" edge="1" parent="O3Wke8OLRP9PxBDbUxBz-497">
          <mxGeometry width="50" height="50" relative="1" as="geometry">
            <mxPoint x="60" y="14" as="sourcePoint" />
            <mxPoint x="670" y="14" as="targetPoint" />
          </mxGeometry>
        </mxCell>
        <mxCell id="O3Wke8OLRP9PxBDbUxBz-499" value="S1.C" style="text;html=1;align=center;verticalAlign=middle;whiteSpace=wrap;rounded=0;" vertex="1" parent="O3Wke8OLRP9PxBDbUxBz-497">
          <mxGeometry width="60" height="30" as="geometry" />
        </mxCell>
        <mxCell id="O3Wke8OLRP9PxBDbUxBz-500" value="" style="endArrow=classic;html=1;rounded=0;dashed=1;dashPattern=8 8;" edge="1" parent="O3Wke8OLRP9PxBDbUxBz-497">
          <mxGeometry width="50" height="50" relative="1" as="geometry">
            <mxPoint x="390" y="60" as="sourcePoint" />
            <mxPoint x="430" y="20" as="targetPoint" />
          </mxGeometry>
        </mxCell>
        <mxCell id="O3Wke8OLRP9PxBDbUxBz-501" value="w8" style="edgeLabel;html=1;align=center;verticalAlign=middle;resizable=0;points=[];" vertex="1" connectable="0" parent="O3Wke8OLRP9PxBDbUxBz-500">
          <mxGeometry x="-0.1346" y="3" relative="1" as="geometry">
            <mxPoint x="-1" as="offset" />
          </mxGeometry>
        </mxCell>
        <mxCell id="O3Wke8OLRP9PxBDbUxBz-502" value="" style="shape=image;verticalLabelPosition=bottom;labelBackgroundColor=default;verticalAlign=top;aspect=fixed;imageAspect=0;image=data:image/png,iVBORw0KGgoAAAANSUhEUgAAABcAAAAXCAYAAADgKtSgAAAACXBIWXMAABJ0AAASdAHeZh94AAAIZklEQVRIDQFbCKT3AQAAAAAAAAAAAAAAAAAAAAAAAAAAAAAAAOVMWRQCAgZV/v7/RQAAASwAAAAW////CgEBAOv/AAHkAQD/wQECAbQasqHCAAAAAAAAAAAAAAAAAAAAAAAAAAAAAAAAAQAAAAAAAAAAAAAAAAAAAADbSW0HCgPwcQEAAW7/AAAZAAAAAAAAAAAAAAAAAAAAAAAAAAAAAAAAAAAAAAAAAAAAAQC0Av8Agxm0osoAAAAAAAAAAAAAAAAAAAAAAQAAAAAAAAAAAAAAAOxMXhv5AAGhAAD/QwAAAAAAAAAAAAAA9gAAAMgAAQHiAAD/9v//ABYBAf8tAP8BJwAAAAAAAAAAAP8A9f4BAHAdtKKcAAAAAAAAAAAAAAAAAQAAAAAAAAAA5ElkHAED+roAAAApAAAAAP8AAOUBAACR9v0DoCW3n+sAAAAAAAAAAAAAAAAAAAAA4ktcPQMBA3IAAP9PAAAAAQAAAP/+AAB3HbSiiwAAAAAAAAAAAQAAAADfQGAIBQz9twEAAUAAAAAAAP//uwYHCV8VrprnAAAAAAAAAAAAAAAAAAAAAAAAAAAAAAAAAAAAAAAAAADjTF5kAgD/jwAAAQwAAAD6AAACVxu0oLAAAAAAAgAAAAAGDP1wAQABQAAAAAAA//+79v4QTRWumucAAAAAAAAAAAAAAAAAAAAAAAAAAAAAAAAAAAAAAAAAAAAAAAAdtKKc//8AYgEBAPsAAAAGAQD+jttJWw4AAAAABNtJYRUBAP1v/wAAAAAAAOQFCgNeJauT+eVLXmoAAQBdAQD+lBq0pKUAAAAAAAAAAAAAAADcRl0WBwUBkAIBABP2/QNcHLWfq+ZLXS8AAQF7/wAAIQgDA3IAAACAAgkC/lT/AAAYAAAAAP///5AWq6DoAAAAAAABAFsAAAA4/wACneJLXmIAAAAAAAAAANtJVRUJBQGvAgEAWQAAAEYIA/08AAAAAPLwBYkBAQDgAAAAAAMB/1UAAAAAAgAC/0QAAAAAAAD/9PP4AaAAAAAAAAAAAAEA/pYAAAD5AAAABwMBAJblTF9h5UxZFAoCCa8AAQA6AAAAAP8B/8H8FAK3AAAAACjFnvP//wGtAAAAAP//ASroTVs4AgD/AC4AAAAAAAEAxym9ou0AAAAAAAAAABq0pKX+/gBsAAAA+QAAAAcAAP+X/wEFvQABADsAAAAAAAEAwgD2AVMhoKD4AAAAAAAAAAD/Af/AAAAAAAAAAAD8/wIwAgIAABYAAAAAAP8B4wAAAAAAAAAAAAAAAAAAAAAdtqKc/v4AbAAAAPkAAAAHAf8ALgAAAAAAAQDC/voFURy9ou0AAAAAAAAAAAAAAAAA//7jAAAAAAAAAAADAQIWAv7/AAkAAAAA/gD/9wAAAAAAAAAAAAAAAAAAAAAAAAAABwACtAD//90AAAAAAAAAAAAAAAD//wCxHbmd7gAAAAAAAAAAAAAAAAAAAAADBATxAAAAAAAAAAD+//4LAgEBAOsAAAAAAv8BFQAAAAAAAAAAAAAAAAAAAADoUWgW+gH+sAABASoAAAAAAAAAAAAAAAABAACH40xeZAAAAAAAAAAAAAAAAAAAAAD+/P0cAAAAAAAAAAD/AAHpAv8AAeQAAAAAAAEALwAAAAAAAAAAAAAAAOhRaBb9+/axAQEANwAAAAAA/wDCAwECbgAAAPkAAAAGAgAAleVLX2MAAAAAAAAAAAAAAAD//wItAAAAAAAAAAAD/gHkAgEA/8EAAAAAAAAAJ+JLXD0AAAAAAAAAAP379o8AAAA4AAAAAAABAML+/AVRGLOgk/3/AGoAAAD5AAAABgAB/5XkTGIvAAAAAAAAAAABAf9KAAAAAAEAAPL49gG6AgECAbQAAAAAAAAAAAMBA3EAAAAAAAAAAAD//xIAAAAA/wH/wf76BVEduZ3uAAAAAB61op4A/wJqAAAA+QAAAAf/AP4RAAAAAOdOXkEAAABKAAAAAP8AAb4hwKDwAhqyocIAAAC0AAAAAAAA/1DjTF5kAAAAAPcGAF//AABV+xMDSB25ne4AAAAAAAAAAAAAAAAbtaCe+v4COAMB/0MdtKDA40djEv7+/4wAAAACAAAA/QED/Y4AAAAAAQAAAADmSmI0/wH8wAABAAsAAP/0AQMBXhqxoq8AAAAAAAAAAAAAAAAAAAAAAAAAAAAAAAAAAAAAAAAAAAAAAADkQ14TAgkAo/8AAEkAAAAAAAAAoRu0omAAAAAAAgAAAAAatp7MAQIAcwAAAP8AAAEMAP4AqeVMXoLYO2INAAAAAAAAAAAAAAAAAAAAAAAAAAAAAAAAAAAAAOhNXUIBCQC8/wAASQAAAAABAAHK+An3bwAAAAAAAAAAAQAAAAAAAAAAAAAAAOZMX3kAAf+B//8ABQAAAAABAQDg/wABrAL/Ab/9APzlAwQE8f/7/B39AQAvA/8CSP8BAEkAAAACAAAAAP8AAMr/Av5bHbKk3AAAAAAAAAAAAQAAAAAAAAAAAAAAAAAAAADmTF5RAAAAjf8AACEAAAAAAAAAAAAAAAAAAAAAAAAAAAAAAAAAAAAAAAAAAAAAAAAAAAD9AP//o/b+/m8lt6XyAAAAAAAAAAAAAAAAAQAAAAAAAAAAAAAAAAAAAAAAAAAA20lbDgoEAnAA/wFWAAAAKwAAAAAAAAAAAAAAAAAAAAAAAAAAAQD/8gABALz//AKOG7ehxQAAAAAAAAAAAAAAAAAAAAAAAAAAAQAAAAAAAAAAAAAAAAAAAAAAAAAAAAAAAAAAAAAAAAAA6E1bOP4AAy8BAAEX/v/+C/8AAekD///j+gD9vB+1pu8AAAAAAAAAAAAAAAAAAAAAAAAAAAAAAAAAAAAAhSmwo3uG22MAAAAASUVORK5CYII=;" vertex="1" parent="O3Wke8OLRP9PxBDbUxBz-497">
          <mxGeometry x="209.99999999999997" y="15" width="23" height="23" as="geometry" />
        </mxCell>
        <mxCell id="O3Wke8OLRP9PxBDbUxBz-503" value="" style="endArrow=classic;html=1;rounded=0;dashed=1;dashPattern=8 8;" edge="1" parent="O3Wke8OLRP9PxBDbUxBz-497">
          <mxGeometry width="50" height="50" relative="1" as="geometry">
            <mxPoint x="550" y="65" as="sourcePoint" />
            <mxPoint x="580" y="15" as="targetPoint" />
          </mxGeometry>
        </mxCell>
        <mxCell id="O3Wke8OLRP9PxBDbUxBz-504" value="r10" style="edgeLabel;html=1;align=center;verticalAlign=middle;resizable=0;points=[];" vertex="1" connectable="0" parent="O3Wke8OLRP9PxBDbUxBz-503">
          <mxGeometry x="-0.0824" relative="1" as="geometry">
            <mxPoint as="offset" />
          </mxGeometry>
        </mxCell>
        <mxCell id="O3Wke8OLRP9PxBDbUxBz-505" value="" style="group" vertex="1" connectable="0" parent="1">
          <mxGeometry x="80" y="1186" width="580" height="30" as="geometry" />
        </mxCell>
        <mxCell id="O3Wke8OLRP9PxBDbUxBz-506" value="" style="endArrow=none;html=1;rounded=0;" edge="1" parent="O3Wke8OLRP9PxBDbUxBz-505">
          <mxGeometry width="50" height="50" relative="1" as="geometry">
            <mxPoint x="60" y="14" as="sourcePoint" />
            <mxPoint x="670" y="14" as="targetPoint" />
          </mxGeometry>
        </mxCell>
        <mxCell id="O3Wke8OLRP9PxBDbUxBz-507" value="S1.CM" style="text;html=1;align=center;verticalAlign=middle;whiteSpace=wrap;rounded=0;" vertex="1" parent="O3Wke8OLRP9PxBDbUxBz-505">
          <mxGeometry width="60" height="30" as="geometry" />
        </mxCell>
        <mxCell id="O3Wke8OLRP9PxBDbUxBz-508" value="" style="endArrow=classic;html=1;rounded=0;" edge="1" parent="O3Wke8OLRP9PxBDbUxBz-505">
          <mxGeometry width="50" height="50" relative="1" as="geometry">
            <mxPoint x="90" y="70" as="sourcePoint" />
            <mxPoint x="110" y="260" as="targetPoint" />
          </mxGeometry>
        </mxCell>
        <mxCell id="O3Wke8OLRP9PxBDbUxBz-509" value="w2" style="edgeLabel;html=1;align=center;verticalAlign=middle;resizable=0;points=[];" vertex="1" connectable="0" parent="O3Wke8OLRP9PxBDbUxBz-508">
          <mxGeometry x="-0.2067" relative="1" as="geometry">
            <mxPoint as="offset" />
          </mxGeometry>
        </mxCell>
        <mxCell id="O3Wke8OLRP9PxBDbUxBz-510" value="" style="group" vertex="1" connectable="0" parent="1">
          <mxGeometry x="80" y="1236" width="580" height="30" as="geometry" />
        </mxCell>
        <mxCell id="O3Wke8OLRP9PxBDbUxBz-511" value="" style="endArrow=none;html=1;rounded=0;" edge="1" parent="O3Wke8OLRP9PxBDbUxBz-510">
          <mxGeometry width="50" height="50" relative="1" as="geometry">
            <mxPoint x="60" y="14" as="sourcePoint" />
            <mxPoint x="670" y="14" as="targetPoint" />
          </mxGeometry>
        </mxCell>
        <mxCell id="O3Wke8OLRP9PxBDbUxBz-512" value="S2" style="text;html=1;align=center;verticalAlign=middle;whiteSpace=wrap;rounded=0;" vertex="1" parent="O3Wke8OLRP9PxBDbUxBz-510">
          <mxGeometry width="60" height="30" as="geometry" />
        </mxCell>
        <mxCell id="O3Wke8OLRP9PxBDbUxBz-513" value="" style="endArrow=classic;html=1;rounded=0;dashed=1;dashPattern=8 8;" edge="1" parent="O3Wke8OLRP9PxBDbUxBz-510">
          <mxGeometry width="50" height="50" relative="1" as="geometry">
            <mxPoint x="300" y="70" as="sourcePoint" />
            <mxPoint x="330" y="120" as="targetPoint" />
          </mxGeometry>
        </mxCell>
        <mxCell id="O3Wke8OLRP9PxBDbUxBz-514" value="r3" style="edgeLabel;html=1;align=center;verticalAlign=middle;resizable=0;points=[];" vertex="1" connectable="0" parent="O3Wke8OLRP9PxBDbUxBz-513">
          <mxGeometry x="-0.1094" y="-1" relative="1" as="geometry">
            <mxPoint as="offset" />
          </mxGeometry>
        </mxCell>
        <mxCell id="O3Wke8OLRP9PxBDbUxBz-515" value="" style="endArrow=classic;html=1;rounded=0;" edge="1" parent="O3Wke8OLRP9PxBDbUxBz-510">
          <mxGeometry width="50" height="50" relative="1" as="geometry">
            <mxPoint x="320" y="70" as="sourcePoint" />
            <mxPoint x="390" y="220" as="targetPoint" />
          </mxGeometry>
        </mxCell>
        <mxCell id="O3Wke8OLRP9PxBDbUxBz-516" value="r4" style="edgeLabel;html=1;align=center;verticalAlign=middle;resizable=0;points=[];" vertex="1" connectable="0" parent="O3Wke8OLRP9PxBDbUxBz-515">
          <mxGeometry x="-0.1394" y="3" relative="1" as="geometry">
            <mxPoint as="offset" />
          </mxGeometry>
        </mxCell>
        <mxCell id="O3Wke8OLRP9PxBDbUxBz-517" value="&lt;div style=&quot;text-align: justify; font-size: 14px;&quot;&gt;&lt;b&gt;Write Process&lt;/b&gt;&lt;span style=&quot;background-color: initial;&quot;&gt;&lt;font style=&quot;font-size: 14px;&quot;&gt;&lt;br&gt;&lt;/font&gt;&lt;/span&gt;&lt;/div&gt;&lt;div style=&quot;text-align: justify; font-size: 14px;&quot;&gt;&lt;span style=&quot;background-color: initial;&quot;&gt;&lt;font style=&quot;font-size: 14px;&quot;&gt;(1) call(&quot;write&quot;,k,v)&lt;/font&gt;&lt;/span&gt;&lt;/div&gt;&lt;div style=&quot;text-align: justify; font-size: 14px;&quot;&gt;&lt;font style=&quot;font-size: 14px;&quot;&gt;(2) call(&quot;write&quot;,k,v)&lt;/font&gt;&lt;/div&gt;&lt;div style=&quot;text-align: justify; font-size: 14px;&quot;&gt;&lt;span style=&quot;background-color: initial;&quot;&gt;&lt;font style=&quot;font-size: 14px;&quot;&gt;(3) Write(k,v)&lt;/font&gt;&lt;/span&gt;&lt;/div&gt;&lt;div style=&quot;text-align: justify; font-size: 14px;&quot;&gt;&lt;span style=&quot;background-color: initial;&quot;&gt;&lt;font style=&quot;font-size: 14px;&quot;&gt;(4) Inv(k)&lt;/font&gt;&lt;/span&gt;&lt;/div&gt;&lt;div style=&quot;text-align: justify; font-size: 14px;&quot;&gt;(4&#39;) return =&amp;gt; &quot;Function Write finished&quot;&lt;span style=&quot;background-color: initial;&quot;&gt;&lt;font style=&quot;font-size: 14px;&quot;&gt;&lt;br&gt;&lt;/font&gt;&lt;/span&gt;&lt;/div&gt;&lt;div style=&quot;text-align: justify; font-size: 14px;&quot;&gt;&lt;span style=&quot;background-color: initial;&quot;&gt;&lt;font style=&quot;font-size: 14px;&quot;&gt;(5) Inv(call)&lt;/font&gt;&lt;/span&gt;&lt;/div&gt;&lt;div style=&quot;text-align: justify; font-size: 14px;&quot;&gt;&lt;span style=&quot;background-color: initial;&quot;&gt;&lt;font style=&quot;font-size: 14px;&quot;&gt;(6) Cache.delete(&lt;/font&gt;&lt;/span&gt;call(read,k)&lt;span style=&quot;background-color: initial;&quot;&gt;&lt;font style=&quot;font-size: 14px;&quot;&gt;)&lt;/font&gt;&lt;/span&gt;&lt;/div&gt;&lt;div style=&quot;text-align: justify; font-size: 14px;&quot;&gt;&lt;span style=&quot;background-color: initial;&quot;&gt;&lt;font style=&quot;font-size: 14px;&quot;&gt;(7) Inv(call)&lt;/font&gt;&lt;/span&gt;&lt;/div&gt;&lt;div style=&quot;text-align: justify; font-size: 14px;&quot;&gt;&lt;span style=&quot;background-color: initial;&quot;&gt;&lt;font style=&quot;font-size: 14px;&quot;&gt;(8)&amp;nbsp;&lt;/font&gt;&lt;/span&gt;&lt;span style=&quot;background-color: initial;&quot;&gt;Cache.delete(&lt;/span&gt;call(read,k)&lt;span style=&quot;background-color: initial;&quot;&gt;)&lt;/span&gt;&lt;/div&gt;&lt;div style=&quot;text-align: justify; font-size: 14px;&quot;&gt;&lt;span style=&quot;background-color: initial;&quot;&gt;&lt;br&gt;&lt;/span&gt;&lt;/div&gt;&lt;div style=&quot;text-align: justify; font-size: 14px;&quot;&gt;&lt;b&gt;Read Process&lt;/b&gt;&lt;br&gt;&lt;/div&gt;&lt;div style=&quot;text-align: justify; font-size: 14px;&quot;&gt;&lt;font style=&quot;font-size: 14px;&quot;&gt;&lt;span style=&quot;background-color: initial;&quot;&gt;(1) precall(&quot;read&quot;,k): visited_disjoint(ctx,ca) == false&lt;/span&gt;&lt;/font&gt;&lt;br&gt;&lt;/div&gt;&lt;div style=&quot;text-align: justify; font-size: 14px;&quot;&gt;&lt;font style=&quot;font-size: 14px;&quot;&gt;&lt;span style=&quot;background-color: initial;&quot;&gt;(2) call(read, k)&lt;/span&gt;&lt;/font&gt;&lt;/div&gt;&lt;div style=&quot;text-align: justify; font-size: 14px;&quot;&gt;&lt;font style=&quot;font-size: 14px;&quot;&gt;&lt;span style=&quot;background-color: initial;&quot;&gt;(3)&amp;nbsp;&lt;/span&gt;&lt;/font&gt;&lt;span style=&quot;background-color: initial;&quot;&gt;precall(&quot;read&quot;,k): visited_disjoint(ctx,ca) == false&lt;/span&gt;&lt;/div&gt;&lt;div style=&quot;text-align: justify; font-size: 14px;&quot;&gt;(4) call(read, k)&lt;span style=&quot;background-color: initial;&quot;&gt;&lt;br&gt;&lt;/span&gt;&lt;/div&gt;&lt;div style=&quot;text-align: justify; font-size: 14px;&quot;&gt;(5) Read(k)&lt;/div&gt;&lt;div style=&quot;text-align: justify; font-size: 14px;&quot;&gt;(6&#39;) return v&lt;/div&gt;&lt;div style=&quot;text-align: justify; font-size: 14px;&quot;&gt;(6) End(read, …)&lt;/div&gt;&lt;div style=&quot;text-align: justify; font-size: 14px;&quot;&gt;(7) Save&lt;/div&gt;&lt;div style=&quot;text-align: justify; font-size: 14px;&quot;&gt;(8) Cache.set(call(read,k), v)&lt;/div&gt;&lt;div style=&quot;text-align: justify; font-size: 14px;&quot;&gt;(9) Save&lt;br&gt;&lt;/div&gt;&lt;div style=&quot;text-align: justify; font-size: 14px;&quot;&gt;(10) Cache.set(call(read,k), v)&lt;/div&gt;" style="text;html=1;align=center;verticalAlign=middle;whiteSpace=wrap;rounded=0;" vertex="1" parent="1">
          <mxGeometry x="790" y="1086" width="331.5" height="424" as="geometry" />
        </mxCell>
        <mxCell id="O3Wke8OLRP9PxBDbUxBz-518" value="" style="group" vertex="1" connectable="0" parent="1">
          <mxGeometry x="80" y="1286" width="580" height="30" as="geometry" />
        </mxCell>
        <mxCell id="O3Wke8OLRP9PxBDbUxBz-519" value="" style="endArrow=none;html=1;rounded=0;" edge="1" parent="O3Wke8OLRP9PxBDbUxBz-518">
          <mxGeometry width="50" height="50" relative="1" as="geometry">
            <mxPoint x="60" y="14" as="sourcePoint" />
            <mxPoint x="670" y="14" as="targetPoint" />
          </mxGeometry>
        </mxCell>
        <mxCell id="O3Wke8OLRP9PxBDbUxBz-520" value="S3" style="text;html=1;align=center;verticalAlign=middle;whiteSpace=wrap;rounded=0;" vertex="1" parent="O3Wke8OLRP9PxBDbUxBz-518">
          <mxGeometry width="60" height="30" as="geometry" />
        </mxCell>
        <mxCell id="O3Wke8OLRP9PxBDbUxBz-521" value="" style="group" vertex="1" connectable="0" parent="1">
          <mxGeometry x="80" y="1336" width="580" height="43" as="geometry" />
        </mxCell>
        <mxCell id="O3Wke8OLRP9PxBDbUxBz-522" value="" style="endArrow=none;html=1;rounded=0;" edge="1" parent="O3Wke8OLRP9PxBDbUxBz-521">
          <mxGeometry width="50" height="50" relative="1" as="geometry">
            <mxPoint x="60" y="14" as="sourcePoint" />
            <mxPoint x="670" y="14" as="targetPoint" />
          </mxGeometry>
        </mxCell>
        <mxCell id="O3Wke8OLRP9PxBDbUxBz-523" value="S3.C" style="text;html=1;align=center;verticalAlign=middle;whiteSpace=wrap;rounded=0;" vertex="1" parent="O3Wke8OLRP9PxBDbUxBz-521">
          <mxGeometry width="60" height="30" as="geometry" />
        </mxCell>
        <mxCell id="O3Wke8OLRP9PxBDbUxBz-524" value="" style="endArrow=classic;html=1;rounded=0;dashed=1;dashPattern=8 8;" edge="1" parent="O3Wke8OLRP9PxBDbUxBz-521">
          <mxGeometry width="50" height="50" relative="1" as="geometry">
            <mxPoint x="230" y="60" as="sourcePoint" />
            <mxPoint x="270" y="10" as="targetPoint" />
          </mxGeometry>
        </mxCell>
        <mxCell id="O3Wke8OLRP9PxBDbUxBz-525" value="w6" style="edgeLabel;html=1;align=center;verticalAlign=middle;resizable=0;points=[];" vertex="1" connectable="0" parent="O3Wke8OLRP9PxBDbUxBz-524">
          <mxGeometry x="-0.1346" y="3" relative="1" as="geometry">
            <mxPoint x="-1" as="offset" />
          </mxGeometry>
        </mxCell>
        <mxCell id="O3Wke8OLRP9PxBDbUxBz-526" value="" style="endArrow=classic;html=1;rounded=0;" edge="1" parent="O3Wke8OLRP9PxBDbUxBz-521">
          <mxGeometry width="50" height="50" relative="1" as="geometry">
            <mxPoint x="250" y="60" as="sourcePoint" />
            <mxPoint x="390" y="-140" as="targetPoint" />
          </mxGeometry>
        </mxCell>
        <mxCell id="O3Wke8OLRP9PxBDbUxBz-527" value="w7" style="edgeLabel;html=1;align=center;verticalAlign=middle;resizable=0;points=[];" vertex="1" connectable="0" parent="O3Wke8OLRP9PxBDbUxBz-526">
          <mxGeometry x="-0.1388" relative="1" as="geometry">
            <mxPoint as="offset" />
          </mxGeometry>
        </mxCell>
        <mxCell id="O3Wke8OLRP9PxBDbUxBz-528" value="" style="shape=image;verticalLabelPosition=bottom;labelBackgroundColor=default;verticalAlign=top;aspect=fixed;imageAspect=0;image=data:image/png,iVBORw0KGgoAAAANSUhEUgAAABcAAAAXCAYAAADgKtSgAAAACXBIWXMAABJ0AAASdAHeZh94AAAIZklEQVRIDQFbCKT3AQAAAAAAAAAAAAAAAAAAAAAAAAAAAAAAAOVMWRQCAgZV/v7/RQAAASwAAAAW////CgEBAOv/AAHkAQD/wQECAbQasqHCAAAAAAAAAAAAAAAAAAAAAAAAAAAAAAAAAQAAAAAAAAAAAAAAAAAAAADbSW0HCgPwcQEAAW7/AAAZAAAAAAAAAAAAAAAAAAAAAAAAAAAAAAAAAAAAAAAAAAAAAQC0Av8Agxm0osoAAAAAAAAAAAAAAAAAAAAAAQAAAAAAAAAAAAAAAOxMXhv5AAGhAAD/QwAAAAAAAAAAAAAA9gAAAMgAAQHiAAD/9v//ABYBAf8tAP8BJwAAAAAAAAAAAP8A9f4BAHAdtKKcAAAAAAAAAAAAAAAAAQAAAAAAAAAA5ElkHAED+roAAAApAAAAAP8AAOUBAACR9v0DoCW3n+sAAAAAAAAAAAAAAAAAAAAA4ktcPQMBA3IAAP9PAAAAAQAAAP/+AAB3HbSiiwAAAAAAAAAAAQAAAADfQGAIBQz9twEAAUAAAAAAAP//uwYHCV8VrprnAAAAAAAAAAAAAAAAAAAAAAAAAAAAAAAAAAAAAAAAAADjTF5kAgD/jwAAAQwAAAD6AAACVxu0oLAAAAAAAgAAAAAGDP1wAQABQAAAAAAA//+79v4QTRWumucAAAAAAAAAAAAAAAAAAAAAAAAAAAAAAAAAAAAAAAAAAAAAAAAdtKKc//8AYgEBAPsAAAAGAQD+jttJWw4AAAAABNtJYRUBAP1v/wAAAAAAAOQFCgNeJauT+eVLXmoAAQBdAQD+lBq0pKUAAAAAAAAAAAAAAADcRl0WBwUBkAIBABP2/QNcHLWfq+ZLXS8AAQF7/wAAIQgDA3IAAACAAgkC/lT/AAAYAAAAAP///5AWq6DoAAAAAAABAFsAAAA4/wACneJLXmIAAAAAAAAAANtJVRUJBQGvAgEAWQAAAEYIA/08AAAAAPLwBYkBAQDgAAAAAAMB/1UAAAAAAgAC/0QAAAAAAAD/9PP4AaAAAAAAAAAAAAEA/pYAAAD5AAAABwMBAJblTF9h5UxZFAoCCa8AAQA6AAAAAP8B/8H8FAK3AAAAACjFnvP//wGtAAAAAP//ASroTVs4AgD/AC4AAAAAAAEAxym9ou0AAAAAAAAAABq0pKX+/gBsAAAA+QAAAAcAAP+X/wEFvQABADsAAAAAAAEAwgD2AVMhoKD4AAAAAAAAAAD/Af/AAAAAAAAAAAD8/wIwAgIAABYAAAAAAP8B4wAAAAAAAAAAAAAAAAAAAAAdtqKc/v4AbAAAAPkAAAAHAf8ALgAAAAAAAQDC/voFURy9ou0AAAAAAAAAAAAAAAAA//7jAAAAAAAAAAADAQIWAv7/AAkAAAAA/gD/9wAAAAAAAAAAAAAAAAAAAAAAAAAABwACtAD//90AAAAAAAAAAAAAAAD//wCxHbmd7gAAAAAAAAAAAAAAAAAAAAADBATxAAAAAAAAAAD+//4LAgEBAOsAAAAAAv8BFQAAAAAAAAAAAAAAAAAAAADoUWgW+gH+sAABASoAAAAAAAAAAAAAAAABAACH40xeZAAAAAAAAAAAAAAAAAAAAAD+/P0cAAAAAAAAAAD/AAHpAv8AAeQAAAAAAAEALwAAAAAAAAAAAAAAAOhRaBb9+/axAQEANwAAAAAA/wDCAwECbgAAAPkAAAAGAgAAleVLX2MAAAAAAAAAAAAAAAD//wItAAAAAAAAAAAD/gHkAgEA/8EAAAAAAAAAJ+JLXD0AAAAAAAAAAP379o8AAAA4AAAAAAABAML+/AVRGLOgk/3/AGoAAAD5AAAABgAB/5XkTGIvAAAAAAAAAAABAf9KAAAAAAEAAPL49gG6AgECAbQAAAAAAAAAAAMBA3EAAAAAAAAAAAD//xIAAAAA/wH/wf76BVEduZ3uAAAAAB61op4A/wJqAAAA+QAAAAf/AP4RAAAAAOdOXkEAAABKAAAAAP8AAb4hwKDwAhqyocIAAAC0AAAAAAAA/1DjTF5kAAAAAPcGAF//AABV+xMDSB25ne4AAAAAAAAAAAAAAAAbtaCe+v4COAMB/0MdtKDA40djEv7+/4wAAAACAAAA/QED/Y4AAAAAAQAAAADmSmI0/wH8wAABAAsAAP/0AQMBXhqxoq8AAAAAAAAAAAAAAAAAAAAAAAAAAAAAAAAAAAAAAAAAAAAAAADkQ14TAgkAo/8AAEkAAAAAAAAAoRu0omAAAAAAAgAAAAAatp7MAQIAcwAAAP8AAAEMAP4AqeVMXoLYO2INAAAAAAAAAAAAAAAAAAAAAAAAAAAAAAAAAAAAAOhNXUIBCQC8/wAASQAAAAABAAHK+An3bwAAAAAAAAAAAQAAAAAAAAAAAAAAAOZMX3kAAf+B//8ABQAAAAABAQDg/wABrAL/Ab/9APzlAwQE8f/7/B39AQAvA/8CSP8BAEkAAAACAAAAAP8AAMr/Av5bHbKk3AAAAAAAAAAAAQAAAAAAAAAAAAAAAAAAAADmTF5RAAAAjf8AACEAAAAAAAAAAAAAAAAAAAAAAAAAAAAAAAAAAAAAAAAAAAAAAAAAAAD9AP//o/b+/m8lt6XyAAAAAAAAAAAAAAAAAQAAAAAAAAAAAAAAAAAAAAAAAAAA20lbDgoEAnAA/wFWAAAAKwAAAAAAAAAAAAAAAAAAAAAAAAAAAQD/8gABALz//AKOG7ehxQAAAAAAAAAAAAAAAAAAAAAAAAAAAQAAAAAAAAAAAAAAAAAAAAAAAAAAAAAAAAAAAAAAAAAA6E1bOP4AAy8BAAEX/v/+C/8AAekD///j+gD9vB+1pu8AAAAAAAAAAAAAAAAAAAAAAAAAAAAAAAAAAAAAhSmwo3uG22MAAAAASUVORK5CYII=;" vertex="1" parent="O3Wke8OLRP9PxBDbUxBz-521">
          <mxGeometry x="300" y="20" width="23" height="23" as="geometry" />
        </mxCell>
        <mxCell id="O3Wke8OLRP9PxBDbUxBz-529" value="" style="endArrow=classic;html=1;rounded=0;dashed=1;dashPattern=8 8;" edge="1" parent="O3Wke8OLRP9PxBDbUxBz-521">
          <mxGeometry width="50" height="50" relative="1" as="geometry">
            <mxPoint x="500" y="60" as="sourcePoint" />
            <mxPoint x="530" y="10" as="targetPoint" />
          </mxGeometry>
        </mxCell>
        <mxCell id="O3Wke8OLRP9PxBDbUxBz-530" value="r8" style="edgeLabel;html=1;align=center;verticalAlign=middle;resizable=0;points=[];" vertex="1" connectable="0" parent="O3Wke8OLRP9PxBDbUxBz-529">
          <mxGeometry x="-0.0588" y="-3" relative="1" as="geometry">
            <mxPoint x="1" as="offset" />
          </mxGeometry>
        </mxCell>
        <mxCell id="O3Wke8OLRP9PxBDbUxBz-531" value="" style="endArrow=classic;html=1;rounded=0;" edge="1" parent="O3Wke8OLRP9PxBDbUxBz-521">
          <mxGeometry width="50" height="50" relative="1" as="geometry">
            <mxPoint x="500" y="60" as="sourcePoint" />
            <mxPoint x="550" y="-140" as="targetPoint" />
          </mxGeometry>
        </mxCell>
        <mxCell id="O3Wke8OLRP9PxBDbUxBz-532" value="r9" style="edgeLabel;html=1;align=center;verticalAlign=middle;resizable=0;points=[];" vertex="1" connectable="0" parent="O3Wke8OLRP9PxBDbUxBz-531">
          <mxGeometry x="0.184" y="2" relative="1" as="geometry">
            <mxPoint as="offset" />
          </mxGeometry>
        </mxCell>
        <mxCell id="O3Wke8OLRP9PxBDbUxBz-533" value="" style="group" vertex="1" connectable="0" parent="1">
          <mxGeometry x="80" y="1386" width="580" height="30" as="geometry" />
        </mxCell>
        <mxCell id="O3Wke8OLRP9PxBDbUxBz-534" value="" style="endArrow=none;html=1;rounded=0;" edge="1" parent="O3Wke8OLRP9PxBDbUxBz-533">
          <mxGeometry width="50" height="50" relative="1" as="geometry">
            <mxPoint x="60" y="14" as="sourcePoint" />
            <mxPoint x="670" y="14" as="targetPoint" />
          </mxGeometry>
        </mxCell>
        <mxCell id="O3Wke8OLRP9PxBDbUxBz-535" value="S3.CM" style="text;html=1;align=center;verticalAlign=middle;whiteSpace=wrap;rounded=0;" vertex="1" parent="O3Wke8OLRP9PxBDbUxBz-533">
          <mxGeometry width="60" height="30" as="geometry" />
        </mxCell>
        <mxCell id="O3Wke8OLRP9PxBDbUxBz-536" value="" style="endArrow=classic;html=1;rounded=0;dashed=1;dashPattern=8 8;" edge="1" parent="O3Wke8OLRP9PxBDbUxBz-533">
          <mxGeometry width="50" height="50" relative="1" as="geometry">
            <mxPoint x="150" y="60" as="sourcePoint" />
            <mxPoint x="180" y="110" as="targetPoint" />
          </mxGeometry>
        </mxCell>
        <mxCell id="O3Wke8OLRP9PxBDbUxBz-537" value="w4" style="edgeLabel;html=1;align=center;verticalAlign=middle;resizable=0;points=[];" vertex="1" connectable="0" parent="O3Wke8OLRP9PxBDbUxBz-536">
          <mxGeometry x="0.2247" relative="1" as="geometry">
            <mxPoint as="offset" />
          </mxGeometry>
        </mxCell>
        <mxCell id="O3Wke8OLRP9PxBDbUxBz-538" value="" style="endArrow=classic;html=1;rounded=0;" edge="1" parent="O3Wke8OLRP9PxBDbUxBz-533">
          <mxGeometry width="50" height="50" relative="1" as="geometry">
            <mxPoint x="150" y="60" as="sourcePoint" />
            <mxPoint x="200" y="-290" as="targetPoint" />
          </mxGeometry>
        </mxCell>
        <mxCell id="O3Wke8OLRP9PxBDbUxBz-539" value="w4&#39;" style="edgeLabel;html=1;align=center;verticalAlign=middle;resizable=0;points=[];" vertex="1" connectable="0" parent="O3Wke8OLRP9PxBDbUxBz-538">
          <mxGeometry x="0.0712" y="1" relative="1" as="geometry">
            <mxPoint as="offset" />
          </mxGeometry>
        </mxCell>
        <mxCell id="O3Wke8OLRP9PxBDbUxBz-540" value="" style="group" vertex="1" connectable="0" parent="1">
          <mxGeometry x="80" y="1436" width="580" height="30" as="geometry" />
        </mxCell>
        <mxCell id="O3Wke8OLRP9PxBDbUxBz-541" value="" style="endArrow=none;html=1;rounded=0;" edge="1" parent="O3Wke8OLRP9PxBDbUxBz-540">
          <mxGeometry width="50" height="50" relative="1" as="geometry">
            <mxPoint x="60" y="14" as="sourcePoint" />
            <mxPoint x="670" y="14" as="targetPoint" />
          </mxGeometry>
        </mxCell>
        <mxCell id="O3Wke8OLRP9PxBDbUxBz-542" value="DB.Stor." style="text;html=1;align=center;verticalAlign=middle;whiteSpace=wrap;rounded=0;" vertex="1" parent="O3Wke8OLRP9PxBDbUxBz-540">
          <mxGeometry width="60" height="30" as="geometry" />
        </mxCell>
        <mxCell id="O3Wke8OLRP9PxBDbUxBz-543" value="" style="endArrow=classic;html=1;rounded=0;" edge="1" parent="O3Wke8OLRP9PxBDbUxBz-540">
          <mxGeometry width="50" height="50" relative="1" as="geometry">
            <mxPoint x="180" y="60" as="sourcePoint" />
            <mxPoint x="230" y="-40" as="targetPoint" />
          </mxGeometry>
        </mxCell>
        <mxCell id="O3Wke8OLRP9PxBDbUxBz-544" value="w5" style="edgeLabel;html=1;align=center;verticalAlign=middle;resizable=0;points=[];" vertex="1" connectable="0" parent="O3Wke8OLRP9PxBDbUxBz-543">
          <mxGeometry x="0.0656" y="1" relative="1" as="geometry">
            <mxPoint as="offset" />
          </mxGeometry>
        </mxCell>
        <mxCell id="O3Wke8OLRP9PxBDbUxBz-545" value="" style="endArrow=classic;html=1;rounded=0;" edge="1" parent="O3Wke8OLRP9PxBDbUxBz-540">
          <mxGeometry width="50" height="50" relative="1" as="geometry">
            <mxPoint x="450" y="70" as="sourcePoint" />
            <mxPoint x="500" y="-40" as="targetPoint" />
          </mxGeometry>
        </mxCell>
        <mxCell id="O3Wke8OLRP9PxBDbUxBz-546" value="r7" style="edgeLabel;html=1;align=center;verticalAlign=middle;resizable=0;points=[];" vertex="1" connectable="0" parent="O3Wke8OLRP9PxBDbUxBz-545">
          <mxGeometry x="0.086" relative="1" as="geometry">
            <mxPoint as="offset" />
          </mxGeometry>
        </mxCell>
        <mxCell id="O3Wke8OLRP9PxBDbUxBz-547" value="" style="group" vertex="1" connectable="0" parent="1">
          <mxGeometry x="80" y="1486" width="580" height="30" as="geometry" />
        </mxCell>
        <mxCell id="O3Wke8OLRP9PxBDbUxBz-548" value="" style="endArrow=none;html=1;rounded=0;" edge="1" parent="O3Wke8OLRP9PxBDbUxBz-547">
          <mxGeometry width="50" height="50" relative="1" as="geometry">
            <mxPoint x="60" y="14" as="sourcePoint" />
            <mxPoint x="670" y="14" as="targetPoint" />
          </mxGeometry>
        </mxCell>
        <mxCell id="O3Wke8OLRP9PxBDbUxBz-549" value="S4.CM" style="text;html=1;align=center;verticalAlign=middle;whiteSpace=wrap;rounded=0;" vertex="1" parent="O3Wke8OLRP9PxBDbUxBz-547">
          <mxGeometry width="60" height="30" as="geometry" />
        </mxCell>
        <mxCell id="O3Wke8OLRP9PxBDbUxBz-550" value="" style="endArrow=classic;html=1;rounded=0;" edge="1" parent="1">
          <mxGeometry width="50" height="50" relative="1" as="geometry">
            <mxPoint x="150" y="1096" as="sourcePoint" />
            <mxPoint x="170" y="1256" as="targetPoint" />
          </mxGeometry>
        </mxCell>
        <mxCell id="O3Wke8OLRP9PxBDbUxBz-551" value="w1" style="edgeLabel;html=1;align=center;verticalAlign=middle;resizable=0;points=[];" vertex="1" connectable="0" parent="O3Wke8OLRP9PxBDbUxBz-550">
          <mxGeometry x="-0.0418" y="2" relative="1" as="geometry">
            <mxPoint as="offset" />
          </mxGeometry>
        </mxCell>
        <mxCell id="O3Wke8OLRP9PxBDbUxBz-552" value="w3" style="rounded=0;whiteSpace=wrap;html=1;" vertex="1" parent="1">
          <mxGeometry x="200" y="1446" width="30" height="10" as="geometry" />
        </mxCell>
        <mxCell id="O3Wke8OLRP9PxBDbUxBz-555" value="" style="shape=image;verticalLabelPosition=bottom;labelBackgroundColor=default;verticalAlign=top;aspect=fixed;imageAspect=0;image=data:image/png,iVBORw0KGgoAAAANSUhEUgAAABcAAAAXCAYAAADgKtSgAAAACXBIWXMAABJ0AAASdAHeZh94AAAIZklEQVRIDQFbCKT3AQAAAAAAAAAAAAAAAAAAAAAAAAAAAAAAAGrqqgz4BgJKAv//Tv8CADAA/wAbAAAACAAAAOYAAADd//8AtgEAAq+dEVPhAAAAAAAAAAAAAAAAAAAAAAAAAAAAAAAAAQAAAAAAAAAAAAAAAAAAAAB//78E5fHrZf4AAYABAAAWAAAAAAAAAAAAAAAAAAAAAAAAAAAAAAAAAAAAAAAAAP0BAACbAAT7gJwMWukAAAAAAAAAAAAAAAAAAAAAAQAAAAAAAAAAAAAAAF7yrhME/v2qAAAAQgAAAAAAAAAAAAAAAAAAAAAAAAAAAAAAAAAAAAAAAAAAAAAAAAAAAAAAAAAAAAAA6f8CAFKfDlXGAAAAAAAAAAAAAAAAAQAAAAAAAAAAXvKuEwT9/Mb/AAAmAAAAAAAAAAAAAAAAAAAAAAAAAAAAAAAAAAAAAAAAAAAAAAAAAAAAAAAAAAAAAAAAAAAAAAAAAPr/AQBMoBBWuwAAAAAAAAAAAgAAAAB//78EAvv7qv7//yb///8A////AP///wD///8A////AP///wD///8A////AP///wD///8A////AP///wD///8A////AP///wYA/v+qYPGsJQAAAAAAAAAAAgAAAADg7+ll/wD/Qv///wD///8A////AP///wD///8A////AP///wD///8A////AP///wD///8A////AP///wD///8A////AP///wD///8Q/vz9mAD//wEAAAAAAVXqqgwIAv3dAAAAFgAAAAAAAAAAAAAAAAAAAAAAAAAAAAAAAAAAAAAAAAAAAAAAAAAAAAAAAAAAAAAAAAAAAAAAAAAAAAAAAAAAAAAAAAAAAAAAAAAB/kijE1u5AgcA/Er+/v4W/v7+AP7+/gD+/v4A/v7+AP7+/gD+/v4A/v7+AP7+/gD+/v4A/v7+AP7+/gAxBRoAGAEMAP7+/gD+/v4A/v7+AP7+/gD+/v4A/v7+AP79AGMAAAAABP3+/U4AAAAAAAAAAAAAAAAAAAAAAAAAAAAAAAAAAAAAAAAAAAAAAAAAAAAAAAAAAB8EEQBdCzMA/gD/AKXzzgDL+eIAAAAAAAAAAAAAAAAAAAAAAAAAAElg358IBPz+/jABAAAAAAAAAAAAAAAAAAAAAAAAAAAAAAAAAAAAAAAAAAAAAAAAAAAACQEFAGIONgADAAEAAwABAPb++gD9/v4AAAAAAAAAAAAAAAAAAAAAAAAAAAz1CAUiBP/+/hv/AAAAAAAAAAAAAAAAAAAAAAAAAAAAAAAoBhcAGgQOAL/22wAAAAAAXBAzABQCCwAAAAAAuvXZAND35AAAAAAAAAAAAAAAAAAAAAAAAAAAAAAAAAAAAP8ZBP3+/ggAAAAAAAAAAAAAAAAAAAAAAAAAABIDCgBlEDgADAIHACEFEgDi+/AAMggcAP8AAADd+uwArPHRAP0A/gAAAAAAAAAAAAAAAAAAAAAAAAAAAAAAAAAB/v8IBP3+/uYAAAAiAAAAAAAAAAAAAAAAAAAAAA4ECAD/AP8AAAAAADYJHwA2CR8AAAAAAPX++gCW7cQA+v78AAAAAAAAAAAAAAAAAAAAAAAAAAAAAAAAAAAAAAACAQDoAv39/d39/f0A/f39AP39/QD9/f0A/f39ANr36QB95rUA3PnrAAAA/wAAAP8AAAD/AJjsxADr+vMA/f39AP39/QD9/f0A/f39AP39/QD9/f0A/f39AP39/f8B9vngAvz+/Lb8/f0A/P39APz9/QD8/f0A/P39APz9/QDq+vMAg+a4ALzy2gD//wAAsfDTAM304gD8/f0A/P39APz9/QD8/f0A/P39APz9/QD8/f0A/P39APz8/cevKWztBPv7AK8BAf2MAAAAAwAAAAAAAAAAAAAAAAAAAAAAAAAA/AD9AJrpxADM9OEA0fblAP3//gAAAAAAAAAAAAAAAAAAAAAAAAAAAAAAAAAAAAAAAAAAAAABAaoAAAAAAQAAAAA+1ZCXAf//aAAAAAAAAAAAAAAAAAAAAAAAAAAAAAAAAAAAAAAAAAAAAAAAAAAAAAAAAAAAAAAAAAAAAAAAAAAAAAAAAAAAAAAAAAAAAAAA4/ry/yfHOnL3BAAAAAD5/gCABP79UQAAABcAAAAAAAAAAAAAAAAAAAAAAAAAAAAAAAAAAAAAAAAAAAAAAAAAAAAAAAAAAAAAAAAAAAAAAAAAAAAAAAAAAAAA/wABccc6c/cAAAAAAQAAAAAAAAAAOc+IOv7/AcAAAAAFAAAAAAAAAAAAAAAAAAAAAAAAAAAAAAAAAAAAAAAAAAAAAAAAAAAAAAAAAAAAAAAAAAAAAAAAAAAAAACHyTJ3egAAAAAAAAAAAQAAAAAAAAAAAAAAADTLhUX+/wCqAAAAEAAAAAAAAAAAAAAAAAAAAAAAAAAAAAAAAAAAAAAAAAAAAAAAAAAAAAAAAAAAAAAAAP8AAIfPNfp8AAGB/gAAAAAAAAAAAQAAAAAAAAAAAAAAAAAAAAAwyIMl/f7/mAAA/0IAAAAAAAAAAAAAAAAAAAAAAAAAAAAAAAAAAAAAAAAAAAAAAAAA/wDjAQAAcdI7f60AAAAAAAAAAAAAAAAAAAAAAQAAAAAAAAAAAAAAAAAAAAAAAAAAAP8AASjDfkYA//5jAAEBSQAAAAwAAAAAAAAAAAAAAAAAAAD/AAABx////qr1BfWa5DqP9wAAAAAAAAAAAAAAAAAAAAAAAAAAAQAAAAAAAAAAAAAAAAAAAAAAAAAAAAAAAAAAAAAAAAAAIL9/CAT9+iL+AgEZAwAACP4A/ugF/gHg2ESH7QAAAAAAAAAAAAAAAAAAAAAAAAAAAAAAAAAAAAAAAAAA0LsK6R89ItIAAAAASUVORK5CYII=;" vertex="1" parent="1">
          <mxGeometry x="530" y="1063" width="23" height="23" as="geometry" />
        </mxCell>
        <mxCell id="O3Wke8OLRP9PxBDbUxBz-556" value="" style="endArrow=classic;html=1;rounded=0;dashed=1;dashPattern=8 8;" edge="1" parent="1">
          <mxGeometry width="50" height="50" relative="1" as="geometry">
            <mxPoint x="300" y="1096" as="sourcePoint" />
            <mxPoint x="310" y="1146" as="targetPoint" />
          </mxGeometry>
        </mxCell>
        <mxCell id="O3Wke8OLRP9PxBDbUxBz-557" value="r1" style="edgeLabel;html=1;align=center;verticalAlign=middle;resizable=0;points=[];" vertex="1" connectable="0" parent="O3Wke8OLRP9PxBDbUxBz-556">
          <mxGeometry x="-0.064" y="-2" relative="1" as="geometry">
            <mxPoint x="1" as="offset" />
          </mxGeometry>
        </mxCell>
        <mxCell id="O3Wke8OLRP9PxBDbUxBz-558" value="" style="endArrow=classic;html=1;rounded=0;" edge="1" parent="1">
          <mxGeometry width="50" height="50" relative="1" as="geometry">
            <mxPoint x="320" y="1096" as="sourcePoint" />
            <mxPoint x="380" y="1306" as="targetPoint" />
          </mxGeometry>
        </mxCell>
        <mxCell id="O3Wke8OLRP9PxBDbUxBz-559" value="r2" style="edgeLabel;html=1;align=center;verticalAlign=middle;resizable=0;points=[];" vertex="1" connectable="0" parent="O3Wke8OLRP9PxBDbUxBz-558">
          <mxGeometry x="0.1123" y="-2" relative="1" as="geometry">
            <mxPoint as="offset" />
          </mxGeometry>
        </mxCell>
        <mxCell id="O3Wke8OLRP9PxBDbUxBz-560" value="r5" style="rounded=0;whiteSpace=wrap;html=1;" vertex="1" parent="1">
          <mxGeometry x="480" y="1446" width="30" height="10" as="geometry" />
        </mxCell>
        <mxCell id="O3Wke8OLRP9PxBDbUxBz-561" value="" style="endArrow=classic;html=1;rounded=0;exitX=1;exitY=0.75;exitDx=0;exitDy=0;" edge="1" parent="1" source="O3Wke8OLRP9PxBDbUxBz-560">
          <mxGeometry width="50" height="50" relative="1" as="geometry">
            <mxPoint x="520" y="1456" as="sourcePoint" />
            <mxPoint x="530" y="1096" as="targetPoint" />
          </mxGeometry>
        </mxCell>
        <mxCell id="O3Wke8OLRP9PxBDbUxBz-562" value="r6&#39;" style="edgeLabel;html=1;align=center;verticalAlign=middle;resizable=0;points=[];" vertex="1" connectable="0" parent="O3Wke8OLRP9PxBDbUxBz-561">
          <mxGeometry x="-0.0087" y="2" relative="1" as="geometry">
            <mxPoint as="offset" />
          </mxGeometry>
        </mxCell>
        <mxCell id="O3Wke8OLRP9PxBDbUxBz-563" value="" style="endArrow=classic;html=1;rounded=0;dashed=1;dashPattern=8 8;" edge="1" parent="1">
          <mxGeometry width="50" height="50" relative="1" as="geometry">
            <mxPoint x="510" y="1446" as="sourcePoint" />
            <mxPoint x="530" y="1506" as="targetPoint" />
          </mxGeometry>
        </mxCell>
        <mxCell id="O3Wke8OLRP9PxBDbUxBz-564" value="r6" style="edgeLabel;html=1;align=center;verticalAlign=middle;resizable=0;points=[];" vertex="1" connectable="0" parent="O3Wke8OLRP9PxBDbUxBz-563">
          <mxGeometry x="-0.174" y="2" relative="1" as="geometry">
            <mxPoint as="offset" />
          </mxGeometry>
        </mxCell>
        <mxCell id="O3Wke8OLRP9PxBDbUxBz-569" value="&lt;b style=&quot;font-size: 16px;&quot;&gt;次序：wc3rc1&lt;br&gt;&lt;/b&gt;&lt;div&gt;&lt;b style=&quot;background-color: initial; font-size: 16px;&quot;&gt;cache3更新&lt;/b&gt;&lt;b style=&quot;font-size: 16px;&quot;&gt;完毕 ~ cache1更新完毕&lt;/b&gt;&lt;/div&gt;" style="text;html=1;align=center;verticalAlign=middle;whiteSpace=wrap;rounded=0;" vertex="1" parent="1">
          <mxGeometry x="1220" y="1663" width="270" height="90" as="geometry" />
        </mxCell>
        <mxCell id="O3Wke8OLRP9PxBDbUxBz-570" value="" style="group" vertex="1" connectable="0" parent="1">
          <mxGeometry x="80" y="1663" width="580" height="43" as="geometry" />
        </mxCell>
        <mxCell id="O3Wke8OLRP9PxBDbUxBz-571" value="" style="endArrow=none;html=1;rounded=0;" edge="1" parent="O3Wke8OLRP9PxBDbUxBz-570">
          <mxGeometry width="50" height="50" relative="1" as="geometry">
            <mxPoint x="60" y="14" as="sourcePoint" />
            <mxPoint x="670" y="10" as="targetPoint" />
          </mxGeometry>
        </mxCell>
        <mxCell id="O3Wke8OLRP9PxBDbUxBz-572" value="S1" style="text;html=1;align=center;verticalAlign=middle;whiteSpace=wrap;rounded=0;" vertex="1" parent="O3Wke8OLRP9PxBDbUxBz-570">
          <mxGeometry width="60" height="30" as="geometry" />
        </mxCell>
        <mxCell id="O3Wke8OLRP9PxBDbUxBz-573" value="" style="group" vertex="1" connectable="0" parent="1">
          <mxGeometry x="80" y="1713" width="580" height="53" as="geometry" />
        </mxCell>
        <mxCell id="O3Wke8OLRP9PxBDbUxBz-574" value="" style="endArrow=none;html=1;rounded=0;" edge="1" parent="O3Wke8OLRP9PxBDbUxBz-573">
          <mxGeometry width="50" height="50" relative="1" as="geometry">
            <mxPoint x="60" y="14" as="sourcePoint" />
            <mxPoint x="670" y="14" as="targetPoint" />
          </mxGeometry>
        </mxCell>
        <mxCell id="O3Wke8OLRP9PxBDbUxBz-575" value="S1.C" style="text;html=1;align=center;verticalAlign=middle;whiteSpace=wrap;rounded=0;" vertex="1" parent="O3Wke8OLRP9PxBDbUxBz-573">
          <mxGeometry width="60" height="30" as="geometry" />
        </mxCell>
        <mxCell id="O3Wke8OLRP9PxBDbUxBz-578" value="" style="shape=image;verticalLabelPosition=bottom;labelBackgroundColor=default;verticalAlign=top;aspect=fixed;imageAspect=0;image=data:image/png,iVBORw0KGgoAAAANSUhEUgAAABcAAAAXCAYAAADgKtSgAAAACXBIWXMAABJ0AAASdAHeZh94AAAIZklEQVRIDQFbCKT3AQAAAAAAAAAAAAAAAAAAAAAAAAAAAAAAAOVMWRQCAgZV/v7/RQAAASwAAAAW////CgEBAOv/AAHkAQD/wQECAbQasqHCAAAAAAAAAAAAAAAAAAAAAAAAAAAAAAAAAQAAAAAAAAAAAAAAAAAAAADbSW0HCgPwcQEAAW7/AAAZAAAAAAAAAAAAAAAAAAAAAAAAAAAAAAAAAAAAAAAAAAAAAQC0Av8Agxm0osoAAAAAAAAAAAAAAAAAAAAAAQAAAAAAAAAAAAAAAOxMXhv5AAGhAAD/QwAAAAAAAAAAAAAA9gAAAMgAAQHiAAD/9v//ABYBAf8tAP8BJwAAAAAAAAAAAP8A9f4BAHAdtKKcAAAAAAAAAAAAAAAAAQAAAAAAAAAA5ElkHAED+roAAAApAAAAAP8AAOUBAACR9v0DoCW3n+sAAAAAAAAAAAAAAAAAAAAA4ktcPQMBA3IAAP9PAAAAAQAAAP/+AAB3HbSiiwAAAAAAAAAAAQAAAADfQGAIBQz9twEAAUAAAAAAAP//uwYHCV8VrprnAAAAAAAAAAAAAAAAAAAAAAAAAAAAAAAAAAAAAAAAAADjTF5kAgD/jwAAAQwAAAD6AAACVxu0oLAAAAAAAgAAAAAGDP1wAQABQAAAAAAA//+79v4QTRWumucAAAAAAAAAAAAAAAAAAAAAAAAAAAAAAAAAAAAAAAAAAAAAAAAdtKKc//8AYgEBAPsAAAAGAQD+jttJWw4AAAAABNtJYRUBAP1v/wAAAAAAAOQFCgNeJauT+eVLXmoAAQBdAQD+lBq0pKUAAAAAAAAAAAAAAADcRl0WBwUBkAIBABP2/QNcHLWfq+ZLXS8AAQF7/wAAIQgDA3IAAACAAgkC/lT/AAAYAAAAAP///5AWq6DoAAAAAAABAFsAAAA4/wACneJLXmIAAAAAAAAAANtJVRUJBQGvAgEAWQAAAEYIA/08AAAAAPLwBYkBAQDgAAAAAAMB/1UAAAAAAgAC/0QAAAAAAAD/9PP4AaAAAAAAAAAAAAEA/pYAAAD5AAAABwMBAJblTF9h5UxZFAoCCa8AAQA6AAAAAP8B/8H8FAK3AAAAACjFnvP//wGtAAAAAP//ASroTVs4AgD/AC4AAAAAAAEAxym9ou0AAAAAAAAAABq0pKX+/gBsAAAA+QAAAAcAAP+X/wEFvQABADsAAAAAAAEAwgD2AVMhoKD4AAAAAAAAAAD/Af/AAAAAAAAAAAD8/wIwAgIAABYAAAAAAP8B4wAAAAAAAAAAAAAAAAAAAAAdtqKc/v4AbAAAAPkAAAAHAf8ALgAAAAAAAQDC/voFURy9ou0AAAAAAAAAAAAAAAAA//7jAAAAAAAAAAADAQIWAv7/AAkAAAAA/gD/9wAAAAAAAAAAAAAAAAAAAAAAAAAABwACtAD//90AAAAAAAAAAAAAAAD//wCxHbmd7gAAAAAAAAAAAAAAAAAAAAADBATxAAAAAAAAAAD+//4LAgEBAOsAAAAAAv8BFQAAAAAAAAAAAAAAAAAAAADoUWgW+gH+sAABASoAAAAAAAAAAAAAAAABAACH40xeZAAAAAAAAAAAAAAAAAAAAAD+/P0cAAAAAAAAAAD/AAHpAv8AAeQAAAAAAAEALwAAAAAAAAAAAAAAAOhRaBb9+/axAQEANwAAAAAA/wDCAwECbgAAAPkAAAAGAgAAleVLX2MAAAAAAAAAAAAAAAD//wItAAAAAAAAAAAD/gHkAgEA/8EAAAAAAAAAJ+JLXD0AAAAAAAAAAP379o8AAAA4AAAAAAABAML+/AVRGLOgk/3/AGoAAAD5AAAABgAB/5XkTGIvAAAAAAAAAAABAf9KAAAAAAEAAPL49gG6AgECAbQAAAAAAAAAAAMBA3EAAAAAAAAAAAD//xIAAAAA/wH/wf76BVEduZ3uAAAAAB61op4A/wJqAAAA+QAAAAf/AP4RAAAAAOdOXkEAAABKAAAAAP8AAb4hwKDwAhqyocIAAAC0AAAAAAAA/1DjTF5kAAAAAPcGAF//AABV+xMDSB25ne4AAAAAAAAAAAAAAAAbtaCe+v4COAMB/0MdtKDA40djEv7+/4wAAAACAAAA/QED/Y4AAAAAAQAAAADmSmI0/wH8wAABAAsAAP/0AQMBXhqxoq8AAAAAAAAAAAAAAAAAAAAAAAAAAAAAAAAAAAAAAAAAAAAAAADkQ14TAgkAo/8AAEkAAAAAAAAAoRu0omAAAAAAAgAAAAAatp7MAQIAcwAAAP8AAAEMAP4AqeVMXoLYO2INAAAAAAAAAAAAAAAAAAAAAAAAAAAAAAAAAAAAAOhNXUIBCQC8/wAASQAAAAABAAHK+An3bwAAAAAAAAAAAQAAAAAAAAAAAAAAAOZMX3kAAf+B//8ABQAAAAABAQDg/wABrAL/Ab/9APzlAwQE8f/7/B39AQAvA/8CSP8BAEkAAAACAAAAAP8AAMr/Av5bHbKk3AAAAAAAAAAAAQAAAAAAAAAAAAAAAAAAAADmTF5RAAAAjf8AACEAAAAAAAAAAAAAAAAAAAAAAAAAAAAAAAAAAAAAAAAAAAAAAAAAAAD9AP//o/b+/m8lt6XyAAAAAAAAAAAAAAAAAQAAAAAAAAAAAAAAAAAAAAAAAAAA20lbDgoEAnAA/wFWAAAAKwAAAAAAAAAAAAAAAAAAAAAAAAAAAQD/8gABALz//AKOG7ehxQAAAAAAAAAAAAAAAAAAAAAAAAAAAQAAAAAAAAAAAAAAAAAAAAAAAAAAAAAAAAAAAAAAAAAA6E1bOP4AAy8BAAEX/v/+C/8AAekD///j+gD9vB+1pu8AAAAAAAAAAAAAAAAAAAAAAAAAAAAAAAAAAAAAhSmwo3uG22MAAAAASUVORK5CYII=;" vertex="1" parent="O3Wke8OLRP9PxBDbUxBz-573">
          <mxGeometry x="239.99999999999997" y="18" width="23" height="23" as="geometry" />
        </mxCell>
        <mxCell id="O3Wke8OLRP9PxBDbUxBz-630" value="" style="endArrow=classic;html=1;rounded=0;dashed=1;dashPattern=8 8;" edge="1" parent="O3Wke8OLRP9PxBDbUxBz-573">
          <mxGeometry width="50" height="50" relative="1" as="geometry">
            <mxPoint x="250" y="-35" as="sourcePoint" />
            <mxPoint x="270" y="17" as="targetPoint" />
          </mxGeometry>
        </mxCell>
        <mxCell id="O3Wke8OLRP9PxBDbUxBz-631" value="r1" style="edgeLabel;html=1;align=center;verticalAlign=middle;resizable=0;points=[];" vertex="1" connectable="0" parent="O3Wke8OLRP9PxBDbUxBz-630">
          <mxGeometry x="-0.064" y="-2" relative="1" as="geometry">
            <mxPoint x="1" as="offset" />
          </mxGeometry>
        </mxCell>
        <mxCell id="O3Wke8OLRP9PxBDbUxBz-581" value="" style="group" vertex="1" connectable="0" parent="1">
          <mxGeometry x="80" y="1763" width="580" height="30" as="geometry" />
        </mxCell>
        <mxCell id="O3Wke8OLRP9PxBDbUxBz-582" value="" style="endArrow=none;html=1;rounded=0;" edge="1" parent="O3Wke8OLRP9PxBDbUxBz-581">
          <mxGeometry width="50" height="50" relative="1" as="geometry">
            <mxPoint x="60" y="14" as="sourcePoint" />
            <mxPoint x="670" y="14" as="targetPoint" />
          </mxGeometry>
        </mxCell>
        <mxCell id="O3Wke8OLRP9PxBDbUxBz-583" value="S1.CM" style="text;html=1;align=center;verticalAlign=middle;whiteSpace=wrap;rounded=0;" vertex="1" parent="O3Wke8OLRP9PxBDbUxBz-581">
          <mxGeometry width="60" height="30" as="geometry" />
        </mxCell>
        <mxCell id="O3Wke8OLRP9PxBDbUxBz-584" value="" style="endArrow=classic;html=1;rounded=0;" edge="1" parent="O3Wke8OLRP9PxBDbUxBz-581">
          <mxGeometry width="50" height="50" relative="1" as="geometry">
            <mxPoint x="90" y="70" as="sourcePoint" />
            <mxPoint x="110" y="260" as="targetPoint" />
          </mxGeometry>
        </mxCell>
        <mxCell id="O3Wke8OLRP9PxBDbUxBz-585" value="w2" style="edgeLabel;html=1;align=center;verticalAlign=middle;resizable=0;points=[];" vertex="1" connectable="0" parent="O3Wke8OLRP9PxBDbUxBz-584">
          <mxGeometry x="-0.2067" relative="1" as="geometry">
            <mxPoint as="offset" />
          </mxGeometry>
        </mxCell>
        <mxCell id="O3Wke8OLRP9PxBDbUxBz-586" value="" style="group" vertex="1" connectable="0" parent="1">
          <mxGeometry x="80" y="1813" width="580" height="30" as="geometry" />
        </mxCell>
        <mxCell id="O3Wke8OLRP9PxBDbUxBz-587" value="" style="endArrow=none;html=1;rounded=0;" edge="1" parent="O3Wke8OLRP9PxBDbUxBz-586">
          <mxGeometry width="50" height="50" relative="1" as="geometry">
            <mxPoint x="60" y="14" as="sourcePoint" />
            <mxPoint x="670" y="14" as="targetPoint" />
          </mxGeometry>
        </mxCell>
        <mxCell id="O3Wke8OLRP9PxBDbUxBz-588" value="S2" style="text;html=1;align=center;verticalAlign=middle;whiteSpace=wrap;rounded=0;" vertex="1" parent="O3Wke8OLRP9PxBDbUxBz-586">
          <mxGeometry width="60" height="30" as="geometry" />
        </mxCell>
        <mxCell id="O3Wke8OLRP9PxBDbUxBz-593" value="&lt;div style=&quot;text-align: justify; font-size: 14px;&quot;&gt;&lt;b&gt;Write Process&lt;/b&gt;&lt;span style=&quot;background-color: initial;&quot;&gt;&lt;font style=&quot;font-size: 14px;&quot;&gt;&lt;br&gt;&lt;/font&gt;&lt;/span&gt;&lt;/div&gt;&lt;div style=&quot;text-align: justify; font-size: 14px;&quot;&gt;&lt;span style=&quot;background-color: initial;&quot;&gt;&lt;font style=&quot;font-size: 14px;&quot;&gt;(1) call(&quot;write&quot;,k,v)&lt;/font&gt;&lt;/span&gt;&lt;/div&gt;&lt;div style=&quot;text-align: justify; font-size: 14px;&quot;&gt;&lt;font style=&quot;font-size: 14px;&quot;&gt;(2) call(&quot;write&quot;,k,v)&lt;/font&gt;&lt;/div&gt;&lt;div style=&quot;text-align: justify; font-size: 14px;&quot;&gt;&lt;span style=&quot;background-color: initial;&quot;&gt;&lt;font style=&quot;font-size: 14px;&quot;&gt;(3) Write(k,v)&lt;/font&gt;&lt;/span&gt;&lt;/div&gt;&lt;div style=&quot;text-align: justify; font-size: 14px;&quot;&gt;&lt;span style=&quot;background-color: initial;&quot;&gt;&lt;font style=&quot;font-size: 14px;&quot;&gt;(4) Inv(k)&lt;/font&gt;&lt;/span&gt;&lt;/div&gt;&lt;div style=&quot;text-align: justify; font-size: 14px;&quot;&gt;(4&#39;) return =&amp;gt; &quot;Function Write finished&quot;&lt;span style=&quot;background-color: initial;&quot;&gt;&lt;font style=&quot;font-size: 14px;&quot;&gt;&lt;br&gt;&lt;/font&gt;&lt;/span&gt;&lt;/div&gt;&lt;div style=&quot;text-align: justify; font-size: 14px;&quot;&gt;&lt;span style=&quot;background-color: initial;&quot;&gt;&lt;font style=&quot;font-size: 14px;&quot;&gt;(5) Inv(call)&lt;/font&gt;&lt;/span&gt;&lt;/div&gt;&lt;div style=&quot;text-align: justify; font-size: 14px;&quot;&gt;&lt;span style=&quot;background-color: initial;&quot;&gt;&lt;font style=&quot;font-size: 14px;&quot;&gt;(6) Cache.delete(&lt;/font&gt;&lt;/span&gt;call(read,k)&lt;span style=&quot;background-color: initial;&quot;&gt;&lt;font style=&quot;font-size: 14px;&quot;&gt;)&lt;/font&gt;&lt;/span&gt;&lt;/div&gt;&lt;div style=&quot;text-align: justify; font-size: 14px;&quot;&gt;&lt;span style=&quot;background-color: initial;&quot;&gt;&lt;font style=&quot;font-size: 14px;&quot;&gt;(7) Inv(call)&lt;/font&gt;&lt;/span&gt;&lt;/div&gt;&lt;div style=&quot;text-align: justify; font-size: 14px;&quot;&gt;&lt;span style=&quot;background-color: initial;&quot;&gt;&lt;font style=&quot;font-size: 14px;&quot;&gt;(8)&amp;nbsp;&lt;/font&gt;&lt;/span&gt;&lt;span style=&quot;background-color: initial;&quot;&gt;Cache.delete(&lt;/span&gt;call(read,k)&lt;span style=&quot;background-color: initial;&quot;&gt;)&lt;/span&gt;&lt;/div&gt;&lt;div style=&quot;text-align: justify; font-size: 14px;&quot;&gt;&lt;span style=&quot;background-color: initial;&quot;&gt;&lt;br&gt;&lt;/span&gt;&lt;/div&gt;&lt;div style=&quot;text-align: justify; font-size: 14px;&quot;&gt;&lt;b&gt;Read Process&lt;/b&gt;&lt;br&gt;&lt;/div&gt;&lt;div style=&quot;text-align: justify; font-size: 14px;&quot;&gt;&lt;font style=&quot;font-size: 14px;&quot;&gt;&lt;span style=&quot;background-color: initial;&quot;&gt;(1) precall(&quot;read&quot;,k): visited_disjoint(ctx,ca) == false&lt;/span&gt;&lt;/font&gt;&lt;br&gt;&lt;/div&gt;&lt;div style=&quot;text-align: justify; font-size: 14px;&quot;&gt;&lt;font style=&quot;font-size: 14px;&quot;&gt;&lt;span style=&quot;background-color: initial;&quot;&gt;(2) call(read, k)&lt;/span&gt;&lt;/font&gt;&lt;/div&gt;&lt;div style=&quot;text-align: justify; font-size: 14px;&quot;&gt;&lt;font style=&quot;font-size: 14px;&quot;&gt;&lt;span style=&quot;background-color: initial;&quot;&gt;(3)&amp;nbsp;&lt;/span&gt;&lt;/font&gt;&lt;span style=&quot;background-color: initial;&quot;&gt;precall(&quot;read&quot;,k): visited_disjoint(ctx,ca) == false&lt;/span&gt;&lt;/div&gt;&lt;div style=&quot;text-align: justify; font-size: 14px;&quot;&gt;(4) call(read, k)&lt;span style=&quot;background-color: initial;&quot;&gt;&lt;br&gt;&lt;/span&gt;&lt;/div&gt;&lt;div style=&quot;text-align: justify; font-size: 14px;&quot;&gt;(5) Read(k)&lt;/div&gt;&lt;div style=&quot;text-align: justify; font-size: 14px;&quot;&gt;(6&#39;) return v&lt;/div&gt;&lt;div style=&quot;text-align: justify; font-size: 14px;&quot;&gt;(6) End(read, …)&lt;/div&gt;&lt;div style=&quot;text-align: justify; font-size: 14px;&quot;&gt;(7) Save&lt;/div&gt;&lt;div style=&quot;text-align: justify; font-size: 14px;&quot;&gt;(8) Cache.set(call(read,k), v)&lt;/div&gt;&lt;div style=&quot;text-align: justify; font-size: 14px;&quot;&gt;(9) Save&lt;br&gt;&lt;/div&gt;&lt;div style=&quot;text-align: justify; font-size: 14px;&quot;&gt;(10) Cache.set(call(read,k), v)&lt;/div&gt;" style="text;html=1;align=center;verticalAlign=middle;whiteSpace=wrap;rounded=0;" vertex="1" parent="1">
          <mxGeometry x="790" y="1663" width="331.5" height="424" as="geometry" />
        </mxCell>
        <mxCell id="O3Wke8OLRP9PxBDbUxBz-594" value="" style="group" vertex="1" connectable="0" parent="1">
          <mxGeometry x="80" y="1863" width="580" height="30" as="geometry" />
        </mxCell>
        <mxCell id="O3Wke8OLRP9PxBDbUxBz-595" value="" style="endArrow=none;html=1;rounded=0;" edge="1" parent="O3Wke8OLRP9PxBDbUxBz-594">
          <mxGeometry width="50" height="50" relative="1" as="geometry">
            <mxPoint x="60" y="14" as="sourcePoint" />
            <mxPoint x="670" y="14" as="targetPoint" />
          </mxGeometry>
        </mxCell>
        <mxCell id="O3Wke8OLRP9PxBDbUxBz-596" value="S3" style="text;html=1;align=center;verticalAlign=middle;whiteSpace=wrap;rounded=0;" vertex="1" parent="O3Wke8OLRP9PxBDbUxBz-594">
          <mxGeometry width="60" height="30" as="geometry" />
        </mxCell>
        <mxCell id="O3Wke8OLRP9PxBDbUxBz-597" value="" style="group" vertex="1" connectable="0" parent="1">
          <mxGeometry x="80" y="1913" width="580" height="43" as="geometry" />
        </mxCell>
        <mxCell id="O3Wke8OLRP9PxBDbUxBz-598" value="" style="endArrow=none;html=1;rounded=0;" edge="1" parent="O3Wke8OLRP9PxBDbUxBz-597">
          <mxGeometry width="50" height="50" relative="1" as="geometry">
            <mxPoint x="60" y="14" as="sourcePoint" />
            <mxPoint x="670" y="14" as="targetPoint" />
          </mxGeometry>
        </mxCell>
        <mxCell id="O3Wke8OLRP9PxBDbUxBz-599" value="S3.C" style="text;html=1;align=center;verticalAlign=middle;whiteSpace=wrap;rounded=0;" vertex="1" parent="O3Wke8OLRP9PxBDbUxBz-597">
          <mxGeometry width="60" height="30" as="geometry" />
        </mxCell>
        <mxCell id="O3Wke8OLRP9PxBDbUxBz-600" value="" style="endArrow=classic;html=1;rounded=0;dashed=1;dashPattern=8 8;" edge="1" parent="O3Wke8OLRP9PxBDbUxBz-597">
          <mxGeometry width="50" height="50" relative="1" as="geometry">
            <mxPoint x="230" y="60" as="sourcePoint" />
            <mxPoint x="270" y="10" as="targetPoint" />
          </mxGeometry>
        </mxCell>
        <mxCell id="O3Wke8OLRP9PxBDbUxBz-639" value="w6" style="edgeLabel;html=1;align=center;verticalAlign=middle;resizable=0;points=[];" vertex="1" connectable="0" parent="O3Wke8OLRP9PxBDbUxBz-600">
          <mxGeometry x="-0.1346" y="2" relative="1" as="geometry">
            <mxPoint as="offset" />
          </mxGeometry>
        </mxCell>
        <mxCell id="O3Wke8OLRP9PxBDbUxBz-609" value="" style="group" vertex="1" connectable="0" parent="1">
          <mxGeometry x="80" y="1963" width="580" height="30" as="geometry" />
        </mxCell>
        <mxCell id="O3Wke8OLRP9PxBDbUxBz-610" value="" style="endArrow=none;html=1;rounded=0;" edge="1" parent="O3Wke8OLRP9PxBDbUxBz-609">
          <mxGeometry width="50" height="50" relative="1" as="geometry">
            <mxPoint x="60" y="14" as="sourcePoint" />
            <mxPoint x="670" y="14" as="targetPoint" />
          </mxGeometry>
        </mxCell>
        <mxCell id="O3Wke8OLRP9PxBDbUxBz-611" value="S3.CM" style="text;html=1;align=center;verticalAlign=middle;whiteSpace=wrap;rounded=0;" vertex="1" parent="O3Wke8OLRP9PxBDbUxBz-609">
          <mxGeometry width="60" height="30" as="geometry" />
        </mxCell>
        <mxCell id="O3Wke8OLRP9PxBDbUxBz-612" value="" style="endArrow=classic;html=1;rounded=0;dashed=1;dashPattern=8 8;" edge="1" parent="O3Wke8OLRP9PxBDbUxBz-609">
          <mxGeometry width="50" height="50" relative="1" as="geometry">
            <mxPoint x="150" y="60" as="sourcePoint" />
            <mxPoint x="180" y="110" as="targetPoint" />
          </mxGeometry>
        </mxCell>
        <mxCell id="O3Wke8OLRP9PxBDbUxBz-613" value="w4" style="edgeLabel;html=1;align=center;verticalAlign=middle;resizable=0;points=[];" vertex="1" connectable="0" parent="O3Wke8OLRP9PxBDbUxBz-612">
          <mxGeometry x="0.2247" relative="1" as="geometry">
            <mxPoint as="offset" />
          </mxGeometry>
        </mxCell>
        <mxCell id="O3Wke8OLRP9PxBDbUxBz-614" value="" style="endArrow=classic;html=1;rounded=0;" edge="1" parent="O3Wke8OLRP9PxBDbUxBz-609">
          <mxGeometry width="50" height="50" relative="1" as="geometry">
            <mxPoint x="150" y="60" as="sourcePoint" />
            <mxPoint x="200" y="-290" as="targetPoint" />
          </mxGeometry>
        </mxCell>
        <mxCell id="O3Wke8OLRP9PxBDbUxBz-615" value="w4&#39;" style="edgeLabel;html=1;align=center;verticalAlign=middle;resizable=0;points=[];" vertex="1" connectable="0" parent="O3Wke8OLRP9PxBDbUxBz-614">
          <mxGeometry x="0.0712" y="1" relative="1" as="geometry">
            <mxPoint as="offset" />
          </mxGeometry>
        </mxCell>
        <mxCell id="O3Wke8OLRP9PxBDbUxBz-616" value="" style="group" vertex="1" connectable="0" parent="1">
          <mxGeometry x="80" y="2013" width="580" height="30" as="geometry" />
        </mxCell>
        <mxCell id="O3Wke8OLRP9PxBDbUxBz-617" value="" style="endArrow=none;html=1;rounded=0;" edge="1" parent="O3Wke8OLRP9PxBDbUxBz-616">
          <mxGeometry width="50" height="50" relative="1" as="geometry">
            <mxPoint x="60" y="14" as="sourcePoint" />
            <mxPoint x="670" y="14" as="targetPoint" />
          </mxGeometry>
        </mxCell>
        <mxCell id="O3Wke8OLRP9PxBDbUxBz-618" value="DB.Stor." style="text;html=1;align=center;verticalAlign=middle;whiteSpace=wrap;rounded=0;" vertex="1" parent="O3Wke8OLRP9PxBDbUxBz-616">
          <mxGeometry width="60" height="30" as="geometry" />
        </mxCell>
        <mxCell id="O3Wke8OLRP9PxBDbUxBz-619" value="" style="endArrow=classic;html=1;rounded=0;" edge="1" parent="O3Wke8OLRP9PxBDbUxBz-616">
          <mxGeometry width="50" height="50" relative="1" as="geometry">
            <mxPoint x="180" y="60" as="sourcePoint" />
            <mxPoint x="230" y="-40" as="targetPoint" />
          </mxGeometry>
        </mxCell>
        <mxCell id="O3Wke8OLRP9PxBDbUxBz-620" value="w5" style="edgeLabel;html=1;align=center;verticalAlign=middle;resizable=0;points=[];" vertex="1" connectable="0" parent="O3Wke8OLRP9PxBDbUxBz-619">
          <mxGeometry x="0.0656" y="1" relative="1" as="geometry">
            <mxPoint as="offset" />
          </mxGeometry>
        </mxCell>
        <mxCell id="O3Wke8OLRP9PxBDbUxBz-623" value="" style="group" vertex="1" connectable="0" parent="1">
          <mxGeometry x="80" y="2063" width="580" height="30" as="geometry" />
        </mxCell>
        <mxCell id="O3Wke8OLRP9PxBDbUxBz-624" value="" style="endArrow=none;html=1;rounded=0;" edge="1" parent="O3Wke8OLRP9PxBDbUxBz-623">
          <mxGeometry width="50" height="50" relative="1" as="geometry">
            <mxPoint x="60" y="14" as="sourcePoint" />
            <mxPoint x="670" y="14" as="targetPoint" />
          </mxGeometry>
        </mxCell>
        <mxCell id="O3Wke8OLRP9PxBDbUxBz-625" value="S4.CM" style="text;html=1;align=center;verticalAlign=middle;whiteSpace=wrap;rounded=0;" vertex="1" parent="O3Wke8OLRP9PxBDbUxBz-623">
          <mxGeometry width="60" height="30" as="geometry" />
        </mxCell>
        <mxCell id="O3Wke8OLRP9PxBDbUxBz-626" value="" style="endArrow=classic;html=1;rounded=0;" edge="1" parent="1">
          <mxGeometry width="50" height="50" relative="1" as="geometry">
            <mxPoint x="150" y="1673" as="sourcePoint" />
            <mxPoint x="170" y="1833" as="targetPoint" />
          </mxGeometry>
        </mxCell>
        <mxCell id="O3Wke8OLRP9PxBDbUxBz-627" value="w1" style="edgeLabel;html=1;align=center;verticalAlign=middle;resizable=0;points=[];" vertex="1" connectable="0" parent="O3Wke8OLRP9PxBDbUxBz-626">
          <mxGeometry x="-0.0418" y="2" relative="1" as="geometry">
            <mxPoint as="offset" />
          </mxGeometry>
        </mxCell>
        <mxCell id="O3Wke8OLRP9PxBDbUxBz-628" value="w3" style="rounded=0;whiteSpace=wrap;html=1;" vertex="1" parent="1">
          <mxGeometry x="200" y="2023" width="30" height="10" as="geometry" />
        </mxCell>
      </root>
    </mxGraphModel>
  </diagram>
</mxfile>
